{"glyphs":{"0":{"ha":800,"x_min":42,"x_max":758,"o":"m 399 -22 q 210 42 290 -22 q 86 235 131 106 q 42 557 42 365 q 86 876 42 747 q 210 1069 131 1006 q 399 1133 290 1133 q 588 1069 507 1133 q 714 876 669 1006 q 758 557 758 747 q 714 235 758 365 q 588 42 669 106 q 399 -22 507 -22 m 163 557 q 255 138 179 265 q 433 11 331 11 q 642 433 642 11 q 638 557 642 490 q 544 974 621 849 q 364 1100 468 1100 q 158 682 158 1100 q 163 557 158 624 z "},"1":{"ha":342,"x_min":42,"x_max":300,"o":"m 138 860 q 111 997 138 944 q 42 1065 85 1049 q 242 1133 150 1065 l 242 253 q 258 95 242 165 q 300 0 274 25 l 79 0 q 122 95 106 25 q 138 253 138 165 l 138 860 z "},"2":{"ha":758,"x_min":42,"x_max":717,"o":"m 42 0 q 84 194 42 106 q 187 351 126 283 q 349 514 247 418 q 489 652 438 596 q 575 776 540 708 q 610 919 610 843 q 580 1017 610 975 q 503 1083 550 1060 q 404 1106 456 1106 q 255 1056 310 1106 q 189 922 200 1007 l 92 1044 q 147 1053 121 1044 q 208 1081 172 1063 q 305 1119 261 1106 q 411 1133 349 1133 q 563 1102 493 1133 q 675 1013 633 1071 q 717 878 717 956 q 679 717 717 790 q 587 587 642 644 q 439 449 532 529 q 294 313 349 368 q 201 185 240 257 q 156 28 161 113 l 422 28 q 606 63 542 28 q 713 146 671 99 l 679 28 l 671 0 l 42 0 z "},"3":{"ha":815,"x_min":42,"x_max":774,"o":"m 394 -22 q 165 32 257 -22 q 42 186 74 86 l 154 329 q 187 161 154 235 q 278 47 219 88 q 414 6 338 6 q 534 38 476 6 q 627 131 592 71 q 663 271 663 192 q 593 433 663 367 q 472 502 529 485 q 338 522 415 519 l 401 600 l 451 664 l 489 647 q 601 760 561 701 q 640 911 640 819 q 610 1015 640 971 q 533 1083 581 1060 q 435 1106 486 1106 q 285 1056 340 1106 q 219 922 231 1007 l 122 1044 q 177 1053 151 1044 q 239 1081 203 1063 q 335 1119 292 1106 q 442 1133 379 1133 q 594 1104 525 1133 q 706 1018 664 1075 q 747 883 747 961 q 702 734 747 801 q 578 604 657 667 q 722 478 669 551 q 774 289 774 404 q 722 124 774 194 q 585 15 671 53 q 394 -22 499 -22 z "},"4":{"ha":747,"x_min":42,"x_max":706,"o":"m 490 554 q 464 691 490 639 q 394 760 438 743 q 594 828 503 760 l 594 390 q 706 474 657 418 l 672 356 l 664 328 l 594 328 l 594 253 q 610 95 594 165 q 653 0 626 25 l 432 0 q 474 95 458 25 q 490 253 490 165 l 490 328 l 42 328 l 383 1111 l 515 1111 q 432 1028 475 1093 q 349 868 389 963 l 125 356 l 415 356 q 490 361 461 356 l 490 554 z "},"5":{"ha":815,"x_min":42,"x_max":774,"o":"m 394 -22 q 165 32 257 -22 q 42 186 74 86 l 154 329 q 187 161 154 235 q 278 47 219 88 q 414 6 338 6 q 535 39 478 6 q 627 135 592 72 q 663 285 663 199 q 592 482 663 415 q 412 573 522 549 q 103 615 301 597 l 235 1118 l 722 1118 l 739 1053 l 772 935 q 666 1017 731 982 q 482 1053 601 1053 l 246 1053 l 165 750 q 487 706 361 738 q 693 579 613 674 q 774 303 774 485 q 723 128 774 201 q 585 16 672 54 q 394 -22 499 -22 z "},"6":{"ha":754,"x_min":42,"x_max":713,"o":"m 42 581 q 138 975 43 817 q 444 1133 232 1133 q 593 1104 529 1133 l 550 1051 q 425 1106 499 1106 q 290 1040 351 1106 q 194 856 229 975 q 157 585 158 738 q 235 679 183 647 q 360 711 288 711 q 541 670 461 711 q 667 547 621 629 q 713 343 713 464 q 632 71 713 164 q 415 -22 551 -22 q 180 62 263 -22 q 69 276 97 146 q 42 581 42 407 m 163 451 q 231 137 175 268 q 406 6 288 6 q 597 264 597 6 q 593 343 597 300 q 508 604 576 526 q 340 682 440 682 q 215 626 268 682 q 163 451 161 569 z "},"7":{"ha":728,"x_min":42,"x_max":686,"o":"m 121 0 q 197 83 160 18 q 267 243 233 149 l 561 1090 l 332 1090 q 148 1055 213 1090 q 42 972 83 1019 l 75 1090 l 83 1118 l 686 1118 l 382 243 q 342 56 342 126 q 354 0 342 19 l 121 0 z "},"8":{"ha":807,"x_min":42,"x_max":765,"o":"m 385 624 l 385 624 q 221 558 286 624 q 156 367 156 493 q 158 310 156 329 q 215 133 171 201 q 316 36 260 65 q 426 7 372 7 q 585 67 521 7 q 649 260 649 126 q 646 310 649 274 q 552 559 629 494 q 392 624 475 624 l 385 624 m 42 310 q 115 519 42 435 q 290 636 189 604 q 156 722 207 660 q 106 879 106 783 q 188 1068 106 1003 q 392 1133 269 1133 q 536 1105 471 1133 q 641 1019 601 1076 q 681 879 681 963 q 631 724 681 785 q 497 638 581 663 q 690 521 614 608 q 765 310 765 433 q 716 128 765 203 q 585 15 667 53 q 403 -22 503 -22 q 222 15 304 -22 q 90 128 139 53 q 42 310 42 203 m 222 921 q 251 767 222 826 q 324 680 281 707 q 410 653 367 653 q 519 697 478 653 q 561 836 561 740 q 560 879 561 864 q 493 1049 549 994 q 372 1104 438 1104 q 264 1060 306 1104 q 222 921 222 1017 z "},"9":{"ha":754,"x_min":42,"x_max":713,"o":"m 394 400 q 213 441 293 400 q 88 565 133 482 q 42 768 42 647 q 82 969 42 888 q 190 1092 122 1051 q 344 1133 258 1133 q 582 1050 501 1133 q 688 838 663 967 q 713 531 713 710 q 672 257 713 382 q 538 55 631 132 q 303 -22 446 -22 q 158 5 222 -22 q 53 82 94 32 l 129 181 q 205 52 154 99 q 322 6 256 6 q 460 70 399 6 q 558 251 522 135 q 594 517 593 368 q 515 429 567 458 q 394 400 464 400 m 161 768 q 246 507 178 585 q 414 429 314 429 q 537 481 483 429 q 594 639 590 532 q 526 969 583 832 q 336 1106 469 1106 q 210 1042 261 1106 q 158 840 158 979 q 161 768 158 794 z "}," ":{"ha":278,"x_min":0,"x_max":0,"o":""}," ":{"ha":278,"x_min":0,"x_max":0,"o":""},"A":{"ha":847,"x_min":14,"x_max":826,"o":"m 594 0 q 613 54 613 17 q 601 129 613 85 q 565 243 589 174 l 481 476 q 485 375 485 425 q 417 94 485 193 q 208 -4 349 -4 q 61 47 108 -4 q 14 190 14 99 q 61 417 14 288 l 272 1003 q 190 1113 228 1078 l 363 1113 l 682 235 q 755 93 714 157 q 826 0 796 29 l 594 0 m 92 419 q 40 189 40 276 q 208 24 40 24 q 326 81 281 24 q 385 244 371 138 q 356 362 390 322 q 257 406 321 401 l 383 469 l 468 511 l 335 878 q 290 972 315 925 l 92 419 z "},"Á":{"ha":847,"x_min":14,"x_max":826,"o":"m 594 0 q 613 54 613 17 q 601 129 613 85 q 565 243 589 174 l 481 476 q 485 375 485 425 q 417 94 485 193 q 208 -4 349 -4 q 61 47 108 -4 q 14 190 14 99 q 61 417 14 288 l 272 1003 q 190 1113 228 1078 l 363 1113 l 682 235 q 755 93 714 157 q 826 0 796 29 l 594 0 m 92 419 q 40 189 40 276 q 208 24 40 24 q 326 81 281 24 q 385 244 371 138 q 356 362 390 322 q 257 406 321 401 l 383 469 l 468 511 l 335 878 q 290 972 315 925 l 92 419 m 260 1151 q 269 1181 269 1165 q 246 1239 269 1201 l 350 1239 l 288 1151 l 260 1151 z "},"Ă":{"ha":847,"x_min":14,"x_max":826,"o":"m 594 0 q 613 54 613 17 q 601 129 613 85 q 565 243 589 174 l 481 476 q 485 375 485 425 q 417 94 485 193 q 208 -4 349 -4 q 61 47 108 -4 q 14 190 14 99 q 61 417 14 288 l 272 1003 q 190 1113 228 1078 l 363 1113 l 682 235 q 755 93 714 157 q 826 0 796 29 l 594 0 m 92 419 q 40 189 40 276 q 208 24 40 24 q 326 81 281 24 q 385 244 371 138 q 356 362 390 322 q 257 406 321 401 l 383 469 l 468 511 l 335 878 q 290 972 315 925 l 92 419 m 297 1169 q 249 1188 269 1169 q 229 1239 229 1207 l 257 1239 q 267 1198 257 1213 q 297 1183 278 1183 q 328 1198 318 1183 q 339 1239 339 1213 l 367 1239 q 347 1188 367 1207 q 297 1169 326 1169 z "},"Â":{"ha":847,"x_min":14,"x_max":826,"o":"m 594 0 q 613 54 613 17 q 601 129 613 85 q 565 243 589 174 l 481 476 q 485 375 485 425 q 417 94 485 193 q 208 -4 349 -4 q 61 47 108 -4 q 14 190 14 99 q 61 417 14 288 l 272 1003 q 190 1113 228 1078 l 363 1113 l 682 235 q 755 93 714 157 q 826 0 796 29 l 594 0 m 92 419 q 40 189 40 276 q 208 24 40 24 q 326 81 281 24 q 385 244 371 138 q 356 362 390 322 q 257 406 321 401 l 383 469 l 468 511 l 335 878 q 290 972 315 925 l 92 419 m 282 1239 l 315 1239 l 368 1150 l 336 1150 l 299 1213 l 261 1150 l 229 1150 l 282 1239 z "},"Ä":{"ha":847,"x_min":14,"x_max":826,"o":"m 594 0 q 613 54 613 17 q 601 129 613 85 q 565 243 589 174 l 481 476 q 485 375 485 425 q 417 94 485 193 q 208 -4 349 -4 q 61 47 108 -4 q 14 190 14 99 q 61 417 14 288 l 272 1003 q 190 1113 228 1078 l 363 1113 l 682 235 q 755 93 714 157 q 826 0 796 29 l 594 0 m 92 419 q 40 189 40 276 q 208 24 40 24 q 326 81 281 24 q 385 244 371 138 q 356 362 390 322 q 257 406 321 401 l 383 469 l 468 511 l 335 878 q 290 972 315 925 l 92 419 m 257 1160 q 233 1170 243 1160 q 222 1194 222 1181 q 233 1219 222 1210 q 257 1229 243 1229 q 281 1219 271 1229 q 292 1194 292 1208 q 281 1170 292 1181 q 257 1160 271 1160 m 375 1194 q 385 1219 375 1210 q 410 1229 396 1229 q 434 1219 424 1229 q 444 1194 444 1208 q 434 1170 444 1181 q 410 1160 424 1160 q 385 1170 396 1160 q 375 1194 375 1181 z "},"À":{"ha":847,"x_min":14,"x_max":826,"o":"m 594 0 q 613 54 613 17 q 601 129 613 85 q 565 243 589 174 l 481 476 q 485 375 485 425 q 417 94 485 193 q 208 -4 349 -4 q 61 47 108 -4 q 14 190 14 99 q 61 417 14 288 l 272 1003 q 190 1113 228 1078 l 363 1113 l 682 235 q 755 93 714 157 q 826 0 796 29 l 594 0 m 92 419 q 40 189 40 276 q 208 24 40 24 q 326 81 281 24 q 385 244 371 138 q 356 362 390 322 q 257 406 321 401 l 383 469 l 468 511 l 335 878 q 290 972 315 925 l 92 419 m 308 1151 l 246 1239 l 350 1239 q 326 1181 326 1201 q 336 1151 326 1165 l 308 1151 z "},"Ā":{"ha":847,"x_min":14,"x_max":826,"o":"m 594 0 q 613 54 613 17 q 601 129 613 85 q 565 243 589 174 l 481 476 q 485 375 485 425 q 417 94 485 193 q 208 -4 349 -4 q 61 47 108 -4 q 14 190 14 99 q 61 417 14 288 l 272 1003 q 190 1113 228 1078 l 363 1113 l 682 235 q 755 93 714 157 q 826 0 796 29 l 594 0 m 92 419 q 40 189 40 276 q 208 24 40 24 q 326 81 281 24 q 385 244 371 138 q 356 362 390 322 q 257 406 321 401 l 383 469 l 468 511 l 335 878 q 290 972 315 925 l 92 419 m 161 1211 l 435 1211 l 435 1183 l 161 1183 l 161 1211 z "},"Ą":{"ha":847,"x_min":14,"x_max":826,"o":"m 594 0 q 613 54 613 17 q 601 129 613 85 q 565 243 589 174 l 481 476 q 485 375 485 425 q 417 94 485 193 q 208 -4 349 -4 q 61 47 108 -4 q 14 190 14 99 q 61 417 14 288 l 272 1003 q 190 1113 228 1078 l 363 1113 l 682 235 q 755 93 714 157 q 826 0 796 29 l 729 0 l 729 -7 q 682 -62 682 -7 q 763 -124 682 -124 l 763 -137 q 675 -120 715 -137 q 635 -58 635 -103 q 671 0 635 -19 l 594 0 m 92 419 q 40 189 40 276 q 208 24 40 24 q 326 81 281 24 q 385 244 371 138 q 356 362 390 322 q 257 406 321 401 l 383 469 l 468 511 l 335 878 q 290 972 315 925 l 92 419 z "},"Å":{"ha":847,"x_min":14,"x_max":826,"o":"m 594 0 q 613 54 613 17 q 601 129 613 85 q 565 243 589 174 l 481 476 q 485 375 485 425 q 417 94 485 193 q 208 -4 349 -4 q 61 47 108 -4 q 14 190 14 99 q 61 417 14 288 l 272 1003 q 190 1113 228 1078 l 363 1113 l 682 235 q 755 93 714 157 q 826 0 796 29 l 594 0 m 92 419 q 40 189 40 276 q 208 24 40 24 q 326 81 281 24 q 385 244 371 138 q 356 362 390 322 q 257 406 321 401 l 383 469 l 468 511 l 335 878 q 290 972 315 925 l 92 419 m 297 1140 q 257 1157 274 1140 q 240 1199 240 1174 q 257 1240 240 1224 q 297 1256 274 1256 q 339 1240 322 1256 q 356 1199 356 1224 q 339 1157 356 1174 q 297 1140 322 1140 m 264 1199 q 274 1174 264 1183 q 297 1164 283 1164 q 322 1174 313 1164 q 332 1199 332 1183 q 322 1222 332 1213 q 297 1232 313 1232 q 274 1222 283 1232 q 264 1199 264 1213 z "},"Ã":{"ha":847,"x_min":14,"x_max":826,"o":"m 594 0 q 613 54 613 17 q 601 129 613 85 q 565 243 589 174 l 481 476 q 485 375 485 425 q 417 94 485 193 q 208 -4 349 -4 q 61 47 108 -4 q 14 190 14 99 q 61 417 14 288 l 272 1003 q 190 1113 228 1078 l 363 1113 l 682 235 q 755 93 714 157 q 826 0 796 29 l 594 0 m 92 419 q 40 189 40 276 q 208 24 40 24 q 326 81 281 24 q 385 244 371 138 q 356 362 390 322 q 257 406 321 401 l 383 469 l 468 511 l 335 878 q 290 972 315 925 l 92 419 m 376 1136 q 328 1149 346 1136 q 289 1190 311 1163 q 256 1228 271 1215 q 214 1240 240 1240 q 166 1214 176 1240 q 156 1153 156 1188 l 128 1153 q 153 1233 128 1211 q 214 1254 179 1254 q 265 1240 246 1254 q 304 1197 283 1225 q 339 1161 325 1172 q 375 1150 353 1150 q 425 1170 410 1150 q 440 1244 440 1190 l 468 1244 q 442 1161 468 1186 q 376 1136 417 1136 z "},"Æ":{"ha":1203,"x_min":14,"x_max":1175,"o":"m 224 869 q 271 1058 271 1000 q 253 1113 271 1094 l 1147 1113 l 1147 1004 q 1058 1063 1111 1042 q 894 1085 1006 1085 l 740 1085 q 662 1054 688 1085 q 630 978 636 1024 q 624 860 624 933 l 624 574 q 688 631 646 614 q 793 649 729 649 l 839 649 q 992 671 921 649 q 1092 722 1064 693 l 1092 547 q 992 599 1064 576 q 839 621 921 621 l 793 621 q 664 580 704 621 q 624 438 624 539 l 624 253 q 630 134 624 179 q 662 58 636 89 q 742 28 688 28 l 885 28 q 1069 63 1004 28 q 1175 146 1133 99 l 1142 28 l 1133 0 l 461 0 q 503 95 488 25 q 519 253 519 165 l 519 860 q 496 1024 519 963 q 406 1085 472 1085 l 331 1085 l 92 419 q 40 189 40 276 q 208 24 40 24 q 326 81 281 24 q 385 244 371 138 q 356 362 390 322 q 257 406 321 401 l 383 469 l 476 515 q 485 375 485 440 q 416 94 485 193 q 208 -4 347 -4 q 61 47 108 -4 q 14 190 14 99 q 61 417 14 288 l 224 869 z "},"B":{"ha":788,"x_min":42,"x_max":760,"o":"m 42 0 q 84 95 68 25 q 100 253 100 165 l 100 860 q 84 1017 100 947 q 42 1113 68 1088 l 193 1113 q 275 1124 228 1113 q 302 1129 281 1125 q 347 1133 324 1133 q 503 1104 428 1133 q 631 1005 579 1075 q 682 818 682 935 q 561 592 682 661 q 703 485 646 560 q 760 281 760 410 q 658 53 760 128 q 403 -22 557 -22 q 274 -8 340 -22 q 204 0 226 0 l 42 0 m 204 253 q 239 108 204 164 q 323 29 274 53 q 421 6 372 6 q 519 24 467 6 q 613 100 572 43 q 654 260 654 157 q 650 321 654 288 q 560 525 635 465 q 394 585 486 585 q 204 263 204 585 l 204 253 m 204 451 q 270 567 217 514 q 424 619 324 619 q 497 611 461 619 q 553 686 532 639 q 575 801 575 733 q 571 860 575 829 q 485 1060 550 1015 q 342 1106 419 1106 q 230 1040 256 1106 q 204 861 204 974 l 204 451 z "},"C":{"ha":864,"x_min":28,"x_max":836,"o":"m 478 -22 q 253 42 356 -22 q 89 238 150 107 q 28 557 28 369 q 89 874 28 744 q 253 1069 150 1004 q 478 1133 356 1133 q 619 1110 551 1133 q 743 1040 686 1086 l 636 904 q 553 1046 613 996 q 429 1096 493 1096 q 226 996 308 1096 q 144 667 144 896 q 149 557 144 615 q 279 156 172 269 q 526 43 386 43 q 679 76 610 43 q 814 194 749 108 l 836 178 q 680 28 774 79 q 478 -22 586 -22 z "},"Ć":{"ha":864,"x_min":28,"x_max":836,"o":"m 478 -22 q 253 42 356 -22 q 89 238 150 107 q 28 557 28 369 q 89 874 28 744 q 253 1069 150 1004 q 478 1133 356 1133 q 619 1110 551 1133 q 743 1040 686 1086 l 636 904 q 553 1046 613 996 q 429 1096 493 1096 q 226 996 308 1096 q 144 667 144 896 q 149 557 144 615 q 279 156 172 269 q 526 43 386 43 q 679 76 610 43 q 814 194 749 108 l 836 178 q 680 28 774 79 q 478 -22 586 -22 m 393 1151 q 403 1181 403 1165 q 379 1239 403 1201 l 483 1239 l 421 1151 l 393 1151 z "},"Č":{"ha":864,"x_min":28,"x_max":836,"o":"m 478 -22 q 253 42 356 -22 q 89 238 150 107 q 28 557 28 369 q 89 874 28 744 q 253 1069 150 1004 q 478 1133 356 1133 q 619 1110 551 1133 q 743 1040 686 1086 l 636 904 q 553 1046 613 996 q 429 1096 493 1096 q 226 996 308 1096 q 144 667 144 896 q 149 557 144 615 q 279 156 172 269 q 526 43 386 43 q 679 76 610 43 q 814 194 749 108 l 836 178 q 680 28 774 79 q 478 -22 586 -22 m 363 1239 l 394 1239 l 432 1176 l 469 1239 l 501 1239 l 449 1150 l 415 1150 l 363 1239 z "},"Ç":{"ha":864,"x_min":28,"x_max":836,"o":"m 478 -22 q 253 42 356 -22 q 89 238 150 107 q 28 557 28 369 q 89 874 28 744 q 253 1069 150 1004 q 478 1133 356 1133 q 619 1110 551 1133 q 743 1040 686 1086 l 636 904 q 553 1046 613 996 q 429 1096 493 1096 q 226 996 308 1096 q 144 667 144 896 q 149 557 144 615 q 279 156 172 269 q 526 43 386 43 q 679 76 610 43 q 814 194 749 108 l 836 178 q 680 28 774 79 q 478 -22 586 -22 m 404 -22 l 418 -22 l 396 -89 q 438 -82 417 -82 q 479 -92 463 -82 q 496 -121 496 -101 q 455 -167 496 -153 q 368 -182 414 -182 l 368 -168 q 424 -161 399 -168 q 449 -135 449 -154 q 437 -114 449 -122 q 410 -106 425 -106 q 389 -110 400 -106 l 375 -110 l 404 -22 z "},"Ċ":{"ha":864,"x_min":28,"x_max":836,"o":"m 478 -22 q 253 42 356 -22 q 89 238 150 107 q 28 557 28 369 q 89 874 28 744 q 253 1069 150 1004 q 478 1133 356 1133 q 619 1110 551 1133 q 743 1040 686 1086 l 636 904 q 553 1046 613 996 q 429 1096 493 1096 q 226 996 308 1096 q 144 667 144 896 q 149 557 144 615 q 279 156 172 269 q 526 43 386 43 q 679 76 610 43 q 814 194 749 108 l 836 178 q 680 28 774 79 q 478 -22 586 -22 m 432 1161 q 408 1172 418 1161 q 397 1196 397 1182 q 408 1221 397 1211 q 432 1231 418 1231 q 456 1220 446 1231 q 467 1196 467 1210 q 456 1172 467 1182 q 432 1161 446 1161 z "},"D":{"ha":828,"x_min":42,"x_max":800,"o":"m 42 0 q 84 95 68 25 q 100 253 100 165 l 100 860 q 84 1017 100 947 q 42 1113 68 1088 l 193 1113 q 272 1124 228 1113 q 301 1129 279 1125 q 347 1133 324 1133 q 573 1069 469 1133 q 738 874 676 1004 q 800 557 800 743 q 740 240 800 371 q 583 43 679 108 q 378 -22 486 -22 q 265 -8 318 -22 q 204 0 226 0 l 42 0 m 204 253 q 263 65 204 122 q 396 8 321 8 q 537 51 472 8 q 642 191 601 93 q 683 447 683 289 q 679 557 683 499 q 606 876 663 753 q 477 1052 549 999 q 342 1106 406 1106 q 230 1040 256 1106 q 204 861 204 974 l 204 253 z "},"Ð":{"ha":828,"x_min":42,"x_max":800,"o":"m 42 0 q 84 95 68 25 q 100 253 100 165 l 100 588 l 64 588 l 64 615 l 100 615 l 100 860 q 84 1017 100 947 q 42 1113 68 1088 l 193 1113 q 272 1124 228 1113 q 301 1129 279 1125 q 347 1133 324 1133 q 573 1069 469 1133 q 738 874 676 1004 q 800 557 800 743 q 740 240 800 371 q 583 43 679 108 q 378 -22 486 -22 q 265 -8 318 -22 q 204 0 226 0 l 42 0 m 204 253 q 263 65 204 122 q 396 8 321 8 q 537 51 472 8 q 642 191 601 93 q 683 447 683 289 q 679 557 683 499 q 606 876 663 753 q 477 1052 549 999 q 342 1106 406 1106 q 230 1040 256 1106 q 204 861 204 974 l 204 615 l 338 615 l 338 588 l 204 588 l 204 253 z "},"Ď":{"ha":828,"x_min":42,"x_max":800,"o":"m 42 0 q 84 95 68 25 q 100 253 100 165 l 100 860 q 84 1017 100 947 q 42 1113 68 1088 l 193 1113 q 272 1124 228 1113 q 301 1129 279 1125 q 347 1133 324 1133 q 573 1069 469 1133 q 738 874 676 1004 q 800 557 800 743 q 740 240 800 371 q 583 43 679 108 q 378 -22 486 -22 q 265 -8 318 -22 q 204 0 226 0 l 42 0 m 204 253 q 263 65 204 122 q 396 8 321 8 q 537 51 472 8 q 642 191 601 93 q 683 447 683 289 q 679 557 683 499 q 606 876 663 753 q 477 1052 549 999 q 342 1106 406 1106 q 230 1040 256 1106 q 204 861 204 974 l 204 253 m 344 1239 l 376 1239 l 414 1176 l 451 1239 l 483 1239 l 431 1150 l 397 1150 l 344 1239 z "},"Đ":{"ha":828,"x_min":42,"x_max":800,"o":"m 42 0 q 84 95 68 25 q 100 253 100 165 l 100 588 l 64 588 l 64 615 l 100 615 l 100 860 q 84 1017 100 947 q 42 1113 68 1088 l 193 1113 q 272 1124 228 1113 q 301 1129 279 1125 q 347 1133 324 1133 q 573 1069 469 1133 q 738 874 676 1004 q 800 557 800 743 q 740 240 800 371 q 583 43 679 108 q 378 -22 486 -22 q 265 -8 318 -22 q 204 0 226 0 l 42 0 m 204 253 q 263 65 204 122 q 396 8 321 8 q 537 51 472 8 q 642 191 601 93 q 683 447 683 289 q 679 557 683 499 q 606 876 663 753 q 477 1052 549 999 q 342 1106 406 1106 q 230 1040 256 1106 q 204 861 204 974 l 204 615 l 338 615 l 338 588 l 204 588 l 204 253 z "},"E":{"ha":783,"x_min":42,"x_max":756,"o":"m 42 0 q 84 95 68 25 q 100 253 100 165 l 100 860 q 84 1017 100 947 q 42 1113 68 1088 l 728 1113 l 728 1004 q 639 1063 692 1042 q 475 1085 586 1085 l 321 1085 q 242 1054 268 1085 q 210 978 217 1024 q 204 860 204 933 l 204 574 q 268 631 226 614 q 374 649 310 649 l 419 649 q 573 671 501 649 q 672 722 644 693 l 672 547 q 573 599 644 576 q 419 621 501 621 l 374 621 q 244 580 285 621 q 204 438 204 539 l 204 253 q 210 134 204 179 q 242 58 217 89 q 322 28 268 28 l 465 28 q 649 63 585 28 q 756 146 714 99 l 722 28 l 714 0 l 42 0 z "},"É":{"ha":783,"x_min":42,"x_max":756,"o":"m 42 0 q 84 95 68 25 q 100 253 100 165 l 100 860 q 84 1017 100 947 q 42 1113 68 1088 l 728 1113 l 728 1004 q 639 1063 692 1042 q 475 1085 586 1085 l 321 1085 q 242 1054 268 1085 q 210 978 217 1024 q 204 860 204 933 l 204 574 q 268 631 226 614 q 374 649 310 649 l 419 649 q 573 671 501 649 q 672 722 644 693 l 672 547 q 573 599 644 576 q 419 621 501 621 l 374 621 q 244 580 285 621 q 204 438 204 539 l 204 253 q 210 134 204 179 q 242 58 217 89 q 322 28 268 28 l 465 28 q 649 63 585 28 q 756 146 714 99 l 722 28 l 714 0 l 42 0 m 353 1151 q 363 1181 363 1165 q 339 1239 363 1201 l 443 1239 l 381 1151 l 353 1151 z "},"Ě":{"ha":783,"x_min":42,"x_max":756,"o":"m 42 0 q 84 95 68 25 q 100 253 100 165 l 100 860 q 84 1017 100 947 q 42 1113 68 1088 l 728 1113 l 728 1004 q 639 1063 692 1042 q 475 1085 586 1085 l 321 1085 q 242 1054 268 1085 q 210 978 217 1024 q 204 860 204 933 l 204 574 q 268 631 226 614 q 374 649 310 649 l 419 649 q 573 671 501 649 q 672 722 644 693 l 672 547 q 573 599 644 576 q 419 621 501 621 l 374 621 q 244 580 285 621 q 204 438 204 539 l 204 253 q 210 134 204 179 q 242 58 217 89 q 322 28 268 28 l 465 28 q 649 63 585 28 q 756 146 714 99 l 722 28 l 714 0 l 42 0 m 322 1239 l 354 1239 l 392 1176 l 429 1239 l 461 1239 l 408 1150 l 375 1150 l 322 1239 z "},"Ê":{"ha":783,"x_min":42,"x_max":756,"o":"m 42 0 q 84 95 68 25 q 100 253 100 165 l 100 860 q 84 1017 100 947 q 42 1113 68 1088 l 728 1113 l 728 1004 q 639 1063 692 1042 q 475 1085 586 1085 l 321 1085 q 242 1054 268 1085 q 210 978 217 1024 q 204 860 204 933 l 204 574 q 268 631 226 614 q 374 649 310 649 l 419 649 q 573 671 501 649 q 672 722 644 693 l 672 547 q 573 599 644 576 q 419 621 501 621 l 374 621 q 244 580 285 621 q 204 438 204 539 l 204 253 q 210 134 204 179 q 242 58 217 89 q 322 28 268 28 l 465 28 q 649 63 585 28 q 756 146 714 99 l 722 28 l 714 0 l 42 0 m 375 1239 l 408 1239 l 461 1150 l 429 1150 l 392 1213 l 354 1150 l 322 1150 l 375 1239 z "},"Ë":{"ha":783,"x_min":42,"x_max":756,"o":"m 42 0 q 84 95 68 25 q 100 253 100 165 l 100 860 q 84 1017 100 947 q 42 1113 68 1088 l 728 1113 l 728 1004 q 639 1063 692 1042 q 475 1085 586 1085 l 321 1085 q 242 1054 268 1085 q 210 978 217 1024 q 204 860 204 933 l 204 574 q 268 631 226 614 q 374 649 310 649 l 419 649 q 573 671 501 649 q 672 722 644 693 l 672 547 q 573 599 644 576 q 419 621 501 621 l 374 621 q 244 580 285 621 q 204 438 204 539 l 204 253 q 210 134 204 179 q 242 58 217 89 q 322 28 268 28 l 465 28 q 649 63 585 28 q 756 146 714 99 l 722 28 l 714 0 l 42 0 m 350 1160 q 326 1170 336 1160 q 315 1194 315 1181 q 326 1219 315 1210 q 350 1229 336 1229 q 374 1219 364 1229 q 385 1194 385 1208 q 374 1170 385 1181 q 350 1160 364 1160 m 468 1194 q 478 1219 468 1210 q 503 1229 489 1229 q 527 1219 517 1229 q 538 1194 538 1208 q 527 1170 538 1181 q 503 1160 517 1160 q 478 1170 489 1160 q 468 1194 468 1181 z "},"Ė":{"ha":783,"x_min":42,"x_max":756,"o":"m 42 0 q 84 95 68 25 q 100 253 100 165 l 100 860 q 84 1017 100 947 q 42 1113 68 1088 l 728 1113 l 728 1004 q 639 1063 692 1042 q 475 1085 586 1085 l 321 1085 q 242 1054 268 1085 q 210 978 217 1024 q 204 860 204 933 l 204 574 q 268 631 226 614 q 374 649 310 649 l 419 649 q 573 671 501 649 q 672 722 644 693 l 672 547 q 573 599 644 576 q 419 621 501 621 l 374 621 q 244 580 285 621 q 204 438 204 539 l 204 253 q 210 134 204 179 q 242 58 217 89 q 322 28 268 28 l 465 28 q 649 63 585 28 q 756 146 714 99 l 722 28 l 714 0 l 42 0 m 392 1161 q 367 1172 378 1161 q 357 1196 357 1182 q 367 1221 357 1211 q 392 1231 378 1231 q 416 1220 406 1231 q 426 1196 426 1210 q 416 1172 426 1182 q 392 1161 406 1161 z "},"È":{"ha":783,"x_min":42,"x_max":756,"o":"m 42 0 q 84 95 68 25 q 100 253 100 165 l 100 860 q 84 1017 100 947 q 42 1113 68 1088 l 728 1113 l 728 1004 q 639 1063 692 1042 q 475 1085 586 1085 l 321 1085 q 242 1054 268 1085 q 210 978 217 1024 q 204 860 204 933 l 204 574 q 268 631 226 614 q 374 649 310 649 l 419 649 q 573 671 501 649 q 672 722 644 693 l 672 547 q 573 599 644 576 q 419 621 501 621 l 374 621 q 244 580 285 621 q 204 438 204 539 l 204 253 q 210 134 204 179 q 242 58 217 89 q 322 28 268 28 l 465 28 q 649 63 585 28 q 756 146 714 99 l 722 28 l 714 0 l 42 0 m 401 1151 l 339 1239 l 443 1239 q 419 1181 419 1201 q 429 1151 419 1165 l 401 1151 z "},"Ē":{"ha":783,"x_min":42,"x_max":756,"o":"m 42 0 q 84 95 68 25 q 100 253 100 165 l 100 860 q 84 1017 100 947 q 42 1113 68 1088 l 728 1113 l 728 1004 q 639 1063 692 1042 q 475 1085 586 1085 l 321 1085 q 242 1054 268 1085 q 210 978 217 1024 q 204 860 204 933 l 204 574 q 268 631 226 614 q 374 649 310 649 l 419 649 q 573 671 501 649 q 672 722 644 693 l 672 547 q 573 599 644 576 q 419 621 501 621 l 374 621 q 244 580 285 621 q 204 438 204 539 l 204 253 q 210 134 204 179 q 242 58 217 89 q 322 28 268 28 l 465 28 q 649 63 585 28 q 756 146 714 99 l 722 28 l 714 0 l 42 0 m 254 1211 l 528 1211 l 528 1183 l 254 1183 l 254 1211 z "},"Ę":{"ha":783,"x_min":42,"x_max":756,"o":"m 42 0 q 84 95 68 25 q 100 253 100 165 l 100 860 q 84 1017 100 947 q 42 1113 68 1088 l 728 1113 l 728 1004 q 639 1063 692 1042 q 475 1085 586 1085 l 321 1085 q 242 1054 268 1085 q 210 978 217 1024 q 204 860 204 933 l 204 574 q 268 631 226 614 q 374 649 310 649 l 419 649 q 573 671 501 649 q 672 722 644 693 l 672 547 q 573 599 644 576 q 419 621 501 621 l 374 621 q 244 580 285 621 q 204 438 204 539 l 204 253 q 210 134 204 179 q 242 58 217 89 q 322 28 268 28 l 465 28 q 649 63 585 28 q 756 146 714 99 l 722 28 l 714 0 l 672 0 l 672 -7 q 625 -62 625 -7 q 706 -124 625 -124 l 706 -137 q 618 -120 658 -137 q 578 -58 578 -103 q 614 0 578 -19 l 42 0 z "},"Ẽ":{"ha":783,"x_min":42,"x_max":756,"o":"m 42 0 q 84 95 68 25 q 100 253 100 165 l 100 860 q 84 1017 100 947 q 42 1113 68 1088 l 728 1113 l 728 1004 q 639 1063 692 1042 q 475 1085 586 1085 l 321 1085 q 242 1054 268 1085 q 210 978 217 1024 q 204 860 204 933 l 204 574 q 268 631 226 614 q 374 649 310 649 l 419 649 q 573 671 501 649 q 672 722 644 693 l 672 547 q 573 599 644 576 q 419 621 501 621 l 374 621 q 244 580 285 621 q 204 438 204 539 l 204 253 q 210 134 204 179 q 242 58 217 89 q 322 28 268 28 l 465 28 q 649 63 585 28 q 756 146 714 99 l 722 28 l 714 0 l 42 0 m 469 1136 q 422 1149 439 1136 q 382 1190 404 1163 q 349 1228 364 1215 q 307 1240 333 1240 q 259 1214 269 1240 q 249 1153 249 1188 l 221 1153 q 247 1233 221 1211 q 307 1254 272 1254 q 358 1240 339 1254 q 397 1197 376 1225 q 432 1161 418 1172 q 468 1150 446 1150 q 518 1170 503 1150 q 533 1244 533 1190 l 561 1244 q 535 1161 561 1186 q 469 1136 510 1136 z "},"F":{"ha":756,"x_min":42,"x_max":728,"o":"m 42 0 q 84 95 68 25 q 100 253 100 165 l 100 860 q 84 1017 100 947 q 42 1113 68 1088 l 728 1113 l 728 1004 q 639 1063 692 1042 q 475 1085 586 1085 l 321 1085 q 242 1054 268 1085 q 210 978 217 1024 q 204 860 204 933 l 204 574 q 265 629 225 611 q 364 649 304 647 l 379 649 q 533 671 461 649 q 632 722 604 693 l 632 547 q 533 599 604 576 q 379 621 461 621 l 374 621 q 244 580 285 621 q 204 438 204 539 l 204 253 q 220 95 204 165 q 263 0 236 25 l 42 0 z "},"G":{"ha":863,"x_min":28,"x_max":821,"o":"m 493 -22 q 257 42 363 -22 q 90 238 151 107 q 28 557 28 368 q 89 874 28 744 q 253 1069 150 1004 q 478 1133 356 1133 q 655 1095 571 1133 q 801 982 739 1057 l 690 842 q 638 986 679 929 q 541 1069 597 1043 q 429 1096 485 1096 q 226 996 308 1096 q 144 667 144 896 q 149 557 144 615 q 224 235 165 358 q 363 60 283 113 q 526 7 442 7 q 665 65 617 7 q 714 283 714 124 l 714 342 q 672 488 714 426 q 544 594 631 550 l 821 594 l 821 269 q 726 42 817 106 q 493 -22 636 -22 z "},"Ğ":{"ha":863,"x_min":28,"x_max":821,"o":"m 493 -22 q 257 42 363 -22 q 90 238 151 107 q 28 557 28 368 q 89 874 28 744 q 253 1069 150 1004 q 478 1133 356 1133 q 655 1095 571 1133 q 801 982 739 1057 l 690 842 q 638 986 679 929 q 541 1069 597 1043 q 429 1096 485 1096 q 226 996 308 1096 q 144 667 144 896 q 149 557 144 615 q 224 235 165 358 q 363 60 283 113 q 526 7 442 7 q 665 65 617 7 q 714 283 714 124 l 714 342 q 672 488 714 426 q 544 594 631 550 l 821 594 l 821 269 q 726 42 817 106 q 493 -22 636 -22 m 431 1169 q 383 1188 403 1169 q 363 1239 363 1207 l 390 1239 q 401 1198 390 1213 q 431 1183 411 1183 q 462 1198 451 1183 q 472 1239 472 1213 l 500 1239 q 480 1188 500 1207 q 431 1169 460 1169 z "},"Ģ":{"ha":863,"x_min":28,"x_max":821,"o":"m 486 -22 l 390 -154 l 363 -154 q 390 -86 385 -112 q 396 -12 396 -60 q 206 81 289 10 q 75 272 122 151 q 28 557 28 392 q 89 874 28 744 q 253 1069 150 1004 q 478 1133 356 1133 q 655 1095 571 1133 q 801 982 739 1057 l 690 842 q 638 986 679 929 q 541 1069 597 1043 q 429 1096 485 1096 q 226 996 308 1096 q 144 667 144 896 q 149 557 144 615 q 224 235 165 358 q 363 60 283 113 q 526 7 442 7 q 665 65 617 7 q 714 283 714 124 l 714 342 q 672 488 714 426 q 544 594 631 550 l 821 594 l 821 269 q 726 42 817 106 q 493 -22 636 -22 l 486 -22 z "},"Ġ":{"ha":863,"x_min":28,"x_max":821,"o":"m 493 -22 q 257 42 363 -22 q 90 238 151 107 q 28 557 28 368 q 89 874 28 744 q 253 1069 150 1004 q 478 1133 356 1133 q 655 1095 571 1133 q 801 982 739 1057 l 690 842 q 638 986 679 929 q 541 1069 597 1043 q 429 1096 485 1096 q 226 996 308 1096 q 144 667 144 896 q 149 557 144 615 q 224 235 165 358 q 363 60 283 113 q 526 7 442 7 q 665 65 617 7 q 714 283 714 124 l 714 342 q 672 488 714 426 q 544 594 631 550 l 821 594 l 821 269 q 726 42 817 106 q 493 -22 636 -22 m 432 1161 q 408 1172 418 1161 q 397 1196 397 1182 q 408 1221 397 1211 q 432 1231 418 1231 q 456 1220 446 1231 q 467 1196 467 1210 q 456 1172 467 1182 q 432 1161 446 1161 z "},"H":{"ha":897,"x_min":42,"x_max":856,"o":"m 42 0 q 84 95 68 25 q 100 253 100 165 l 100 860 q 84 1017 100 947 q 42 1113 68 1088 l 263 1113 q 220 1017 236 1088 q 204 860 204 947 l 204 446 q 270 503 226 485 q 381 522 314 521 q 581 558 514 525 q 670 655 647 590 q 693 836 693 719 l 693 860 q 677 1017 693 947 q 635 1113 661 1088 l 856 1113 q 813 1017 829 1088 q 797 860 797 947 l 797 253 q 813 95 797 165 q 856 0 829 25 l 635 0 q 677 95 661 25 q 693 253 693 165 l 693 556 q 572 510 646 524 q 386 494 499 497 q 246 453 288 492 q 204 313 204 414 l 204 253 q 220 95 204 165 q 263 0 236 25 l 42 0 z "},"I":{"ha":304,"x_min":42,"x_max":263,"o":"m 42 0 q 84 95 68 25 q 100 253 100 165 l 100 860 q 84 1017 100 947 q 42 1113 68 1088 l 263 1113 q 220 1017 236 1088 q 204 860 204 947 l 204 253 q 220 95 204 165 q 263 0 236 25 l 42 0 z "},"Ĳ":{"ha":654,"x_min":42,"x_max":626,"o":"m 42 0 q 84 95 68 25 q 100 253 100 165 l 100 860 q 84 1017 100 947 q 42 1113 68 1088 l 263 1113 q 220 1017 236 1088 q 204 860 204 947 l 204 253 q 220 95 204 165 q 263 0 236 25 l 42 0 m 464 860 q 448 1017 464 947 q 406 1113 432 1088 l 626 1113 q 584 1017 600 1088 q 568 860 568 947 l 568 435 l 568 431 l 568 426 q 556 186 568 275 q 492 38 543 97 q 332 -21 442 -21 l 332 7 q 422 68 393 7 q 458 215 451 129 q 464 435 464 300 l 464 860 z "},"Í":{"ha":304,"x_min":42,"x_max":263,"o":"m 42 0 q 84 95 68 25 q 100 253 100 165 l 100 860 q 84 1017 100 947 q 42 1113 68 1088 l 263 1113 q 220 1017 236 1088 q 204 860 204 947 l 204 253 q 220 95 204 165 q 263 0 236 25 l 42 0 m 114 1151 q 124 1181 124 1165 q 100 1239 124 1201 l 204 1239 l 142 1151 l 114 1151 z "},"Î":{"ha":304,"x_min":42,"x_max":263,"o":"m 42 0 q 84 95 68 25 q 100 253 100 165 l 100 860 q 84 1017 100 947 q 42 1113 68 1088 l 263 1113 q 220 1017 236 1088 q 204 860 204 947 l 204 253 q 220 95 204 165 q 263 0 236 25 l 42 0 m 136 1239 l 169 1239 l 222 1150 l 190 1150 l 153 1213 l 115 1150 l 83 1150 l 136 1239 z "},"Ï":{"ha":304,"x_min":42,"x_max":299,"o":"m 42 0 q 84 95 68 25 q 100 253 100 165 l 100 860 q 84 1017 100 947 q 42 1113 68 1088 l 263 1113 q 220 1017 236 1088 q 204 860 204 947 l 204 253 q 220 95 204 165 q 263 0 236 25 l 42 0 m 111 1160 q 87 1170 97 1160 q 76 1194 76 1181 q 87 1219 76 1210 q 111 1229 97 1229 q 135 1219 125 1229 q 146 1194 146 1208 q 135 1170 146 1181 q 111 1160 125 1160 m 229 1194 q 240 1219 229 1210 q 264 1229 250 1229 q 288 1219 278 1229 q 299 1194 299 1208 q 288 1170 299 1181 q 264 1160 278 1160 q 240 1170 250 1160 q 229 1194 229 1181 z "},"İ":{"ha":304,"x_min":42,"x_max":263,"o":"m 42 0 q 84 95 68 25 q 100 253 100 165 l 100 860 q 84 1017 100 947 q 42 1113 68 1088 l 263 1113 q 220 1017 236 1088 q 204 860 204 947 l 204 253 q 220 95 204 165 q 263 0 236 25 l 42 0 m 153 1161 q 128 1172 139 1161 q 118 1196 118 1182 q 128 1221 118 1211 q 153 1231 139 1231 q 177 1220 167 1231 q 188 1196 188 1210 q 177 1172 188 1182 q 153 1161 167 1161 z "},"Ì":{"ha":304,"x_min":42,"x_max":263,"o":"m 42 0 q 84 95 68 25 q 100 253 100 165 l 100 860 q 84 1017 100 947 q 42 1113 68 1088 l 263 1113 q 220 1017 236 1088 q 204 860 204 947 l 204 253 q 220 95 204 165 q 263 0 236 25 l 42 0 m 163 1151 l 100 1239 l 204 1239 q 181 1181 181 1201 q 190 1151 181 1165 l 163 1151 z "},"Ī":{"ha":304,"x_min":15,"x_max":289,"o":"m 42 0 q 84 95 68 25 q 100 253 100 165 l 100 860 q 84 1017 100 947 q 42 1113 68 1088 l 263 1113 q 220 1017 236 1088 q 204 860 204 947 l 204 253 q 220 95 204 165 q 263 0 236 25 l 42 0 m 15 1211 l 289 1211 l 289 1183 l 15 1183 l 15 1211 z "},"Į":{"ha":304,"x_min":42,"x_max":263,"o":"m 42 0 q 84 95 68 25 q 100 253 100 165 l 100 860 q 84 1017 100 947 q 42 1113 68 1088 l 263 1113 q 220 1017 236 1088 q 204 860 204 947 l 204 253 q 220 95 204 165 q 263 0 236 25 l 185 0 l 185 -7 q 138 -62 138 -7 q 218 -124 138 -124 l 218 -137 q 131 -120 171 -137 q 90 -58 90 -103 q 126 0 90 -19 l 42 0 z "},"Ĩ":{"ha":304,"x_min":-18,"x_max":322,"o":"m 42 0 q 84 95 68 25 q 100 253 100 165 l 100 860 q 84 1017 100 947 q 42 1113 68 1088 l 263 1113 q 220 1017 236 1088 q 204 860 204 947 l 204 253 q 220 95 204 165 q 263 0 236 25 l 42 0 m 231 1136 q 183 1149 200 1136 q 143 1190 165 1163 q 110 1228 125 1215 q 68 1240 94 1240 q 20 1214 31 1240 q 10 1153 10 1188 l -18 1153 q 8 1233 -18 1211 q 68 1254 33 1254 q 119 1240 100 1254 q 158 1197 138 1225 q 193 1161 179 1172 q 229 1150 207 1150 q 279 1170 264 1150 q 294 1244 294 1190 l 322 1244 q 297 1161 322 1186 q 231 1136 271 1136 z "},"J":{"ha":350,"x_min":28,"x_max":322,"o":"m 160 860 q 144 1017 160 947 q 101 1113 128 1088 l 322 1113 q 280 1017 296 1088 q 264 860 264 947 l 264 435 l 264 431 l 264 426 q 251 186 264 275 q 188 38 239 97 q 28 -21 138 -21 l 28 7 q 118 68 89 7 q 153 215 147 129 q 160 435 160 300 l 160 860 z "},"K":{"ha":890,"x_min":42,"x_max":863,"o":"m 42 0 q 84 95 68 25 q 100 253 100 165 l 100 860 q 84 1017 100 947 q 42 1113 68 1088 l 263 1113 q 220 1017 236 1088 q 204 860 204 947 l 204 451 q 223 526 204 489 q 277 586 242 563 q 358 610 313 610 q 411 606 386 610 l 575 914 q 621 1014 606 975 q 636 1079 636 1053 q 624 1113 636 1100 l 863 1113 q 772 1022 824 1086 q 674 869 719 957 l 510 564 q 625 396 586 511 l 688 213 q 753 82 717 136 q 824 0 789 28 l 647 0 l 514 392 q 449 517 492 460 q 347 575 407 575 q 243 503 282 575 q 204 263 204 431 l 204 253 q 220 95 204 165 q 263 0 236 25 l 42 0 z "},"Ķ":{"ha":890,"x_min":42,"x_max":863,"o":"m 42 0 q 84 95 68 25 q 100 253 100 165 l 100 860 q 84 1017 100 947 q 42 1113 68 1088 l 263 1113 q 220 1017 236 1088 q 204 860 204 947 l 204 451 q 223 526 204 489 q 277 586 242 563 q 358 610 313 610 q 411 606 386 610 l 575 914 q 621 1014 606 975 q 636 1079 636 1053 q 624 1113 636 1100 l 863 1113 q 772 1022 824 1086 q 674 869 719 957 l 510 564 q 625 396 586 511 l 688 213 q 753 82 717 136 q 824 0 789 28 l 647 0 l 514 392 q 449 517 492 460 q 347 575 407 575 q 243 503 282 575 q 204 263 204 431 l 204 253 q 220 95 204 165 q 263 0 236 25 l 42 0 m 376 -154 q 404 -83 399 -111 q 410 -3 410 -56 l 514 -3 l 404 -154 l 376 -154 z "},"L":{"ha":797,"x_min":42,"x_max":769,"o":"m 42 0 q 84 95 68 25 q 100 253 100 165 l 100 860 q 84 1017 100 947 q 42 1113 68 1088 l 263 1113 q 220 1017 236 1088 q 204 860 204 947 l 204 253 q 210 134 204 179 q 242 58 217 89 q 322 28 268 28 l 479 28 q 663 63 599 28 q 769 146 728 99 l 736 28 l 728 0 l 42 0 z "},"Ĺ":{"ha":797,"x_min":42,"x_max":769,"o":"m 42 0 q 84 95 68 25 q 100 253 100 165 l 100 860 q 84 1017 100 947 q 42 1113 68 1088 l 263 1113 q 220 1017 236 1088 q 204 860 204 947 l 204 253 q 210 134 204 179 q 242 58 217 89 q 322 28 268 28 l 479 28 q 663 63 599 28 q 769 146 728 99 l 736 28 l 728 0 l 42 0 m 360 1151 q 369 1181 369 1165 q 346 1239 369 1201 l 450 1239 l 388 1151 l 360 1151 z "},"Ľ":{"ha":797,"x_min":42,"x_max":769,"o":"m 42 0 q 84 95 68 25 q 100 253 100 165 l 100 860 q 84 1017 100 947 q 42 1113 68 1088 l 263 1113 q 220 1017 236 1088 q 204 860 204 947 l 204 253 q 210 134 204 179 q 242 58 217 89 q 322 28 268 28 l 479 28 q 663 63 599 28 q 769 146 728 99 l 736 28 l 728 0 l 42 0 m 654 739 q 648 783 654 763 q 624 826 642 803 l 711 826 l 682 739 l 654 739 z "},"Ļ":{"ha":797,"x_min":42,"x_max":769,"o":"m 42 0 q 84 95 68 25 q 100 253 100 165 l 100 860 q 84 1017 100 947 q 42 1113 68 1088 l 263 1113 q 220 1017 236 1088 q 204 860 204 947 l 204 253 q 210 134 204 179 q 242 58 217 89 q 322 28 268 28 l 479 28 q 663 63 599 28 q 769 146 728 99 l 736 28 l 728 0 l 460 0 l 357 -142 l 329 -142 q 357 -74 351 -100 q 363 0 363 -47 l 42 0 z "},"Ł":{"ha":797,"x_min":42,"x_max":769,"o":"m 42 0 q 84 95 68 25 q 100 253 100 165 l 100 565 l 56 549 l 56 578 l 100 594 l 100 860 q 84 1017 100 947 q 42 1113 68 1088 l 263 1113 q 220 1017 236 1088 q 204 860 204 947 l 204 632 l 329 678 l 329 649 l 204 603 l 204 253 q 210 134 204 179 q 242 58 217 89 q 322 28 268 28 l 479 28 q 663 63 599 28 q 769 146 728 99 l 736 28 l 728 0 l 42 0 z "},"M":{"ha":1071,"x_min":35,"x_max":1036,"o":"m 49 0 q 91 95 75 25 q 107 253 107 165 l 107 1018 q 35 1113 67 1081 l 267 1113 q 249 1058 249 1096 q 260 983 249 1028 q 296 869 272 939 l 456 408 q 510 261 483 326 l 874 1113 l 1036 1113 q 994 1017 1010 1088 q 978 860 978 947 l 978 435 l 978 431 l 978 426 q 966 187 978 276 q 903 38 954 97 q 743 -21 851 -21 q 564 26 636 -21 q 441 167 492 72 q 336 424 390 261 l 179 876 q 135 971 160 924 l 135 253 q 151 95 135 165 q 193 0 167 25 l 49 0 m 525 226 q 625 65 572 122 q 743 7 678 7 q 833 68 804 7 q 867 215 861 129 q 874 435 874 300 l 874 1042 l 525 226 z "},"N":{"ha":896,"x_min":42,"x_max":854,"o":"m 246 869 q 171 983 203 940 l 171 253 q 187 95 171 165 q 229 0 203 25 l 85 0 q 127 95 111 25 q 143 253 143 165 l 143 1019 q 42 1113 85 1094 l 283 1113 q 278 1088 278 1099 q 371 869 278 1025 l 768 207 l 768 860 q 752 1017 768 947 q 710 1113 736 1088 l 854 1113 q 812 1017 828 1088 q 796 860 796 947 l 796 0 l 768 0 l 246 869 z "},"Ń":{"ha":896,"x_min":42,"x_max":854,"o":"m 246 869 q 171 983 203 940 l 171 253 q 187 95 171 165 q 229 0 203 25 l 85 0 q 127 95 111 25 q 143 253 143 165 l 143 1019 q 42 1113 85 1094 l 283 1113 q 278 1088 278 1099 q 371 869 278 1025 l 768 207 l 768 860 q 752 1017 768 947 q 710 1113 736 1088 l 854 1113 q 812 1017 828 1088 q 796 860 796 947 l 796 0 l 768 0 l 246 869 m 410 1151 q 419 1181 419 1165 q 396 1239 419 1201 l 500 1239 l 438 1151 l 410 1151 z "},"Ň":{"ha":896,"x_min":42,"x_max":854,"o":"m 246 869 q 171 983 203 940 l 171 253 q 187 95 171 165 q 229 0 203 25 l 85 0 q 127 95 111 25 q 143 253 143 165 l 143 1019 q 42 1113 85 1094 l 283 1113 q 278 1088 278 1099 q 371 869 278 1025 l 768 207 l 768 860 q 752 1017 768 947 q 710 1113 736 1088 l 854 1113 q 812 1017 828 1088 q 796 860 796 947 l 796 0 l 768 0 l 246 869 m 379 1239 l 411 1239 l 449 1176 l 486 1239 l 518 1239 l 465 1150 l 432 1150 l 379 1239 z "},"Ņ":{"ha":896,"x_min":42,"x_max":854,"o":"m 246 869 q 171 983 203 940 l 171 253 q 187 95 171 165 q 229 0 203 25 l 85 0 q 127 95 111 25 q 143 253 143 165 l 143 1019 q 42 1113 85 1094 l 283 1113 q 278 1088 278 1099 q 371 869 278 1025 l 768 207 l 768 860 q 752 1017 768 947 q 710 1113 736 1088 l 854 1113 q 812 1017 828 1088 q 796 860 796 947 l 796 0 l 768 0 l 246 869 m 379 -154 q 407 -83 401 -111 q 413 -3 413 -56 l 517 -3 l 407 -154 l 379 -154 z "},"Ñ":{"ha":896,"x_min":42,"x_max":854,"o":"m 246 869 q 171 983 203 940 l 171 253 q 187 95 171 165 q 229 0 203 25 l 85 0 q 127 95 111 25 q 143 253 143 165 l 143 1019 q 42 1113 85 1094 l 283 1113 q 278 1088 278 1099 q 371 869 278 1025 l 768 207 l 768 860 q 752 1017 768 947 q 710 1113 736 1088 l 854 1113 q 812 1017 828 1088 q 796 860 796 947 l 796 0 l 768 0 l 246 869 m 526 1136 q 478 1149 496 1136 q 439 1190 461 1163 q 406 1228 421 1215 q 364 1240 390 1240 q 316 1214 326 1240 q 306 1153 306 1188 l 278 1153 q 303 1233 278 1211 q 364 1254 329 1254 q 415 1240 396 1254 q 454 1197 433 1225 q 489 1161 475 1172 q 525 1150 503 1150 q 575 1170 560 1150 q 590 1244 590 1190 l 618 1244 q 592 1161 618 1186 q 526 1136 567 1136 z "},"O":{"ha":958,"x_min":28,"x_max":931,"o":"m 478 -22 q 253 42 356 -22 q 89 238 150 107 q 28 557 28 369 q 89 874 28 744 q 253 1069 150 1004 q 478 1133 356 1133 q 703 1069 600 1133 q 869 874 807 1004 q 931 557 931 743 q 869 239 931 369 q 703 43 807 108 q 478 -22 600 -22 m 149 557 q 224 238 165 358 q 361 66 282 117 q 526 15 440 15 q 731 116 649 15 q 814 447 814 217 q 810 557 814 499 q 734 876 793 756 q 595 1046 675 996 q 429 1096 515 1096 q 226 996 308 1096 q 144 667 144 896 q 149 557 144 615 m 297 557 q 385 583 343 557 q 455 663 428 608 q 482 800 482 718 q 535 617 482 678 q 667 557 589 557 q 576 531 618 557 q 508 449 533 504 q 482 314 482 394 q 455 448 482 393 q 385 530 428 503 q 297 557 343 557 z "},"Ó":{"ha":958,"x_min":28,"x_max":931,"o":"m 478 -22 q 253 42 356 -22 q 89 238 150 107 q 28 557 28 369 q 89 874 28 744 q 253 1069 150 1004 q 478 1133 356 1133 q 703 1069 600 1133 q 869 874 807 1004 q 931 557 931 743 q 869 239 931 369 q 703 43 807 108 q 478 -22 600 -22 m 149 557 q 224 238 165 358 q 361 66 282 117 q 526 15 440 15 q 731 116 649 15 q 814 447 814 217 q 810 557 814 499 q 734 876 793 756 q 595 1046 675 996 q 429 1096 515 1096 q 226 996 308 1096 q 144 667 144 896 q 149 557 144 615 m 297 557 q 385 583 343 557 q 455 663 428 608 q 482 800 482 718 q 535 617 482 678 q 667 557 589 557 q 576 531 618 557 q 508 449 533 504 q 482 314 482 394 q 455 448 482 393 q 385 530 428 503 q 297 557 343 557 m 440 1151 q 450 1181 450 1165 q 426 1239 450 1201 l 531 1239 l 468 1151 l 440 1151 z "},"Ô":{"ha":958,"x_min":28,"x_max":931,"o":"m 478 -22 q 253 42 356 -22 q 89 238 150 107 q 28 557 28 369 q 89 874 28 744 q 253 1069 150 1004 q 478 1133 356 1133 q 703 1069 600 1133 q 869 874 807 1004 q 931 557 931 743 q 869 239 931 369 q 703 43 807 108 q 478 -22 600 -22 m 149 557 q 224 238 165 358 q 361 66 282 117 q 526 15 440 15 q 731 116 649 15 q 814 447 814 217 q 810 557 814 499 q 734 876 793 756 q 595 1046 675 996 q 429 1096 515 1096 q 226 996 308 1096 q 144 667 144 896 q 149 557 144 615 m 297 557 q 385 583 343 557 q 455 663 428 608 q 482 800 482 718 q 535 617 482 678 q 667 557 589 557 q 576 531 618 557 q 508 449 533 504 q 482 314 482 394 q 455 448 482 393 q 385 530 428 503 q 297 557 343 557 m 463 1239 l 496 1239 l 549 1150 l 517 1150 l 479 1213 l 442 1150 l 410 1150 l 463 1239 z "},"Ö":{"ha":958,"x_min":28,"x_max":931,"o":"m 478 -22 q 253 42 356 -22 q 89 238 150 107 q 28 557 28 369 q 89 874 28 744 q 253 1069 150 1004 q 478 1133 356 1133 q 703 1069 600 1133 q 869 874 807 1004 q 931 557 931 743 q 869 239 931 369 q 703 43 807 108 q 478 -22 600 -22 m 149 557 q 224 238 165 358 q 361 66 282 117 q 526 15 440 15 q 731 116 649 15 q 814 447 814 217 q 810 557 814 499 q 734 876 793 756 q 595 1046 675 996 q 429 1096 515 1096 q 226 996 308 1096 q 144 667 144 896 q 149 557 144 615 m 297 557 q 385 583 343 557 q 455 663 428 608 q 482 800 482 718 q 535 617 482 678 q 667 557 589 557 q 576 531 618 557 q 508 449 533 504 q 482 314 482 394 q 455 448 482 393 q 385 530 428 503 q 297 557 343 557 m 438 1160 q 413 1170 424 1160 q 403 1194 403 1181 q 413 1219 403 1210 q 438 1229 424 1229 q 462 1219 451 1229 q 472 1194 472 1208 q 462 1170 472 1181 q 438 1160 451 1160 m 556 1194 q 566 1219 556 1210 q 590 1229 576 1229 q 615 1219 604 1229 q 625 1194 625 1208 q 615 1170 625 1181 q 590 1160 604 1160 q 566 1170 576 1160 q 556 1194 556 1181 z "},"Ò":{"ha":958,"x_min":28,"x_max":931,"o":"m 478 -22 q 253 42 356 -22 q 89 238 150 107 q 28 557 28 369 q 89 874 28 744 q 253 1069 150 1004 q 478 1133 356 1133 q 703 1069 600 1133 q 869 874 807 1004 q 931 557 931 743 q 869 239 931 369 q 703 43 807 108 q 478 -22 600 -22 m 149 557 q 224 238 165 358 q 361 66 282 117 q 526 15 440 15 q 731 116 649 15 q 814 447 814 217 q 810 557 814 499 q 734 876 793 756 q 595 1046 675 996 q 429 1096 515 1096 q 226 996 308 1096 q 144 667 144 896 q 149 557 144 615 m 297 557 q 385 583 343 557 q 455 663 428 608 q 482 800 482 718 q 535 617 482 678 q 667 557 589 557 q 576 531 618 557 q 508 449 533 504 q 482 314 482 394 q 455 448 482 393 q 385 530 428 503 q 297 557 343 557 m 489 1151 l 426 1239 l 531 1239 q 507 1181 507 1201 q 517 1151 507 1165 l 489 1151 z "},"Ő":{"ha":958,"x_min":28,"x_max":931,"o":"m 478 -22 q 253 42 356 -22 q 89 238 150 107 q 28 557 28 369 q 89 874 28 744 q 253 1069 150 1004 q 478 1133 356 1133 q 703 1069 600 1133 q 869 874 807 1004 q 931 557 931 743 q 869 239 931 369 q 703 43 807 108 q 478 -22 600 -22 m 149 557 q 224 238 165 358 q 361 66 282 117 q 526 15 440 15 q 731 116 649 15 q 814 447 814 217 q 810 557 814 499 q 734 876 793 756 q 595 1046 675 996 q 429 1096 515 1096 q 226 996 308 1096 q 144 667 144 896 q 149 557 144 615 m 297 557 q 385 583 343 557 q 455 663 428 608 q 482 800 482 718 q 535 617 482 678 q 667 557 589 557 q 576 531 618 557 q 508 449 533 504 q 482 314 482 394 q 455 448 482 393 q 385 530 428 503 q 297 557 343 557 m 379 1151 q 389 1181 389 1165 q 365 1239 389 1201 l 469 1239 l 407 1151 l 379 1151 m 593 1239 l 531 1151 l 503 1151 q 513 1181 513 1165 q 489 1239 513 1201 l 593 1239 z "},"Ō":{"ha":958,"x_min":28,"x_max":931,"o":"m 478 -22 q 253 42 356 -22 q 89 238 150 107 q 28 557 28 369 q 89 874 28 744 q 253 1069 150 1004 q 478 1133 356 1133 q 703 1069 600 1133 q 869 874 807 1004 q 931 557 931 743 q 869 239 931 369 q 703 43 807 108 q 478 -22 600 -22 m 149 557 q 224 238 165 358 q 361 66 282 117 q 526 15 440 15 q 731 116 649 15 q 814 447 814 217 q 810 557 814 499 q 734 876 793 756 q 595 1046 675 996 q 429 1096 515 1096 q 226 996 308 1096 q 144 667 144 896 q 149 557 144 615 m 297 557 q 385 583 343 557 q 455 663 428 608 q 482 800 482 718 q 535 617 482 678 q 667 557 589 557 q 576 531 618 557 q 508 449 533 504 q 482 314 482 394 q 455 448 482 393 q 385 530 428 503 q 297 557 343 557 m 342 1211 l 615 1211 l 615 1183 l 342 1183 l 342 1211 z "},"Ø":{"ha":958,"x_min":28,"x_max":931,"o":"m 254 42 q 89 239 150 108 q 28 557 28 369 q 89 874 28 744 q 253 1069 150 1004 q 478 1133 356 1133 q 689 1078 594 1133 l 703 1111 l 733 1111 l 713 1063 q 872 865 814 993 q 931 557 931 738 q 869 239 931 369 q 703 43 807 108 q 478 -22 600 -22 q 278 28 369 -22 l 267 0 l 236 0 l 254 42 m 149 557 q 290 131 171 271 l 438 479 q 373 538 410 518 q 297 557 336 557 q 385 583 343 557 q 455 663 428 608 q 482 800 482 718 q 511 656 482 714 l 654 996 q 547 1072 606 1049 q 429 1096 489 1096 q 226 996 308 1096 q 144 667 144 896 q 149 557 144 615 m 311 107 q 415 38 360 60 q 526 15 471 15 q 731 116 649 15 q 814 447 814 217 q 810 557 814 499 q 675 972 786 832 l 529 625 q 591 574 556 590 q 667 557 626 557 q 576 531 618 557 q 508 449 533 504 q 482 314 482 394 q 456 449 482 392 l 311 107 z "},"Õ":{"ha":958,"x_min":28,"x_max":931,"o":"m 478 -22 q 253 42 356 -22 q 89 238 150 107 q 28 557 28 369 q 89 874 28 744 q 253 1069 150 1004 q 478 1133 356 1133 q 703 1069 600 1133 q 869 874 807 1004 q 931 557 931 743 q 869 239 931 369 q 703 43 807 108 q 478 -22 600 -22 m 149 557 q 224 238 165 358 q 361 66 282 117 q 526 15 440 15 q 731 116 649 15 q 814 447 814 217 q 810 557 814 499 q 734 876 793 756 q 595 1046 675 996 q 429 1096 515 1096 q 226 996 308 1096 q 144 667 144 896 q 149 557 144 615 m 297 557 q 385 583 343 557 q 455 663 428 608 q 482 800 482 718 q 535 617 482 678 q 667 557 589 557 q 576 531 618 557 q 508 449 533 504 q 482 314 482 394 q 455 448 482 393 q 385 530 428 503 q 297 557 343 557 m 557 1136 q 509 1149 526 1136 q 469 1190 492 1163 q 436 1228 451 1215 q 394 1240 421 1240 q 347 1214 357 1240 q 336 1153 336 1188 l 308 1153 q 334 1233 308 1211 q 394 1254 360 1254 q 445 1240 426 1254 q 485 1197 464 1225 q 519 1161 506 1172 q 556 1150 533 1150 q 606 1170 590 1150 q 621 1244 621 1190 l 649 1244 q 623 1161 649 1186 q 557 1136 597 1136 z "},"Œ":{"ha":1367,"x_min":43,"x_max":1339,"o":"m 493 -22 q 268 42 371 -22 q 104 238 165 107 q 43 557 43 369 q 104 874 43 744 q 268 1069 165 1004 q 493 1133 371 1133 q 625 1113 563 1133 l 1311 1113 l 1311 1004 q 1222 1063 1275 1042 q 1058 1085 1169 1085 l 904 1085 q 826 1054 851 1085 q 794 978 800 1024 q 788 860 788 933 l 788 574 q 851 631 810 614 q 957 649 893 649 l 1003 649 q 1156 671 1085 649 q 1256 722 1228 693 l 1256 547 q 1156 599 1228 576 q 1003 621 1085 621 l 957 621 q 828 580 868 621 q 788 438 788 539 l 788 253 q 794 134 788 179 q 826 58 800 89 q 906 28 851 28 l 1049 28 q 1233 63 1168 28 q 1339 146 1297 99 l 1306 28 l 1297 0 l 629 0 q 493 -22 567 -22 m 164 557 q 239 238 181 358 q 376 66 297 117 q 542 15 456 15 q 649 38 599 15 q 674 131 665 74 q 683 253 683 188 l 683 860 q 672 993 683 929 q 565 1072 624 1047 q 444 1096 506 1096 q 242 996 324 1096 q 160 667 160 896 q 164 557 160 615 m 313 557 q 401 583 358 557 q 470 663 443 608 q 497 800 497 718 q 551 617 497 678 q 682 557 604 557 q 591 531 633 557 q 523 449 549 504 q 497 314 497 394 q 470 448 497 393 q 401 530 443 503 q 313 557 358 557 z "},"P":{"ha":788,"x_min":42,"x_max":761,"o":"m 42 0 q 84 95 68 25 q 100 253 100 165 l 100 860 q 84 1017 100 947 q 42 1113 68 1088 l 193 1113 q 243 1117 219 1113 q 272 1122 267 1121 q 363 1133 325 1133 q 565 1092 475 1133 q 708 967 656 1050 q 761 763 761 883 q 716 582 761 661 q 594 459 671 503 q 431 415 518 415 q 286 449 347 415 q 204 526 225 482 l 204 253 q 220 95 204 165 q 263 0 236 25 l 42 0 m 204 701 q 238 553 204 611 q 322 469 271 494 q 431 443 374 443 q 539 479 492 443 q 612 581 586 515 q 638 729 638 646 q 632 804 638 751 q 527 1036 610 967 q 347 1106 444 1106 q 253 1070 285 1106 q 213 984 222 1035 q 204 861 204 933 l 204 701 z "},"Þ":{"ha":788,"x_min":42,"x_max":761,"o":"m 42 0 q 84 95 68 25 q 100 253 100 165 l 100 860 q 84 1017 100 947 q 42 1113 68 1088 l 263 1113 q 214 989 229 1082 q 247 993 229 990 q 274 997 264 996 q 363 1008 324 1008 q 565 967 475 1008 q 708 842 656 925 q 761 638 761 758 q 716 457 761 536 q 594 334 671 378 q 431 290 518 290 q 286 324 347 290 q 204 401 225 357 l 204 253 q 220 95 204 165 q 263 0 236 25 l 42 0 m 204 576 q 238 428 204 486 q 322 344 271 369 q 431 318 374 318 q 539 354 492 318 q 612 456 586 390 q 638 604 638 521 q 632 679 638 626 q 527 911 610 842 q 347 981 444 981 q 253 945 285 981 q 213 859 222 910 q 204 736 204 808 l 204 576 z "},"Q":{"ha":958,"x_min":28,"x_max":931,"o":"m 478 -22 q 253 42 356 -22 q 89 238 150 107 q 28 557 28 369 q 89 874 28 744 q 253 1069 150 1004 q 478 1133 356 1133 q 703 1069 600 1133 q 869 874 807 1004 q 931 557 931 743 q 884 275 931 394 q 758 84 838 156 q 576 -11 678 13 q 658 -138 614 -94 q 765 -182 703 -182 l 765 -196 q 622 -157 676 -196 q 522 -19 568 -118 q 478 -22 492 -22 m 149 557 q 219 247 164 367 q 349 74 274 128 q 507 15 424 21 l 488 63 l 486 65 q 479 85 485 69 q 384 232 440 185 q 268 306 328 279 l 464 306 l 501 193 q 564 18 536 86 q 743 134 672 32 q 814 449 814 236 q 810 557 814 499 q 734 876 793 756 q 595 1046 675 996 q 429 1096 515 1096 q 226 996 308 1096 q 144 667 144 896 q 149 557 144 615 z "},"R":{"ha":851,"x_min":42,"x_max":824,"o":"m 42 0 q 84 95 68 25 q 100 253 100 165 l 100 860 q 84 1017 100 947 q 42 1113 68 1088 l 193 1113 q 243 1117 219 1113 q 272 1122 267 1121 q 363 1133 325 1133 q 565 1092 475 1133 q 708 967 656 1050 q 761 763 761 883 q 717 583 761 663 q 597 460 672 504 q 625 396 611 436 l 688 213 q 753 82 717 136 q 824 0 789 28 l 647 0 l 514 392 q 449 517 492 460 q 347 575 407 575 q 243 503 282 575 q 204 263 204 431 l 204 253 q 220 95 204 165 q 263 0 236 25 l 42 0 m 204 451 q 223 526 204 489 q 277 586 242 563 q 358 610 313 610 q 568 507 490 610 q 619 603 601 546 q 638 731 638 661 q 632 804 638 754 q 527 1036 610 967 q 347 1106 444 1106 q 253 1070 285 1106 q 213 984 222 1035 q 204 861 204 933 l 204 451 z "},"Ŕ":{"ha":851,"x_min":42,"x_max":824,"o":"m 42 0 q 84 95 68 25 q 100 253 100 165 l 100 860 q 84 1017 100 947 q 42 1113 68 1088 l 193 1113 q 243 1117 219 1113 q 272 1122 267 1121 q 363 1133 325 1133 q 565 1092 475 1133 q 708 967 656 1050 q 761 763 761 883 q 717 583 761 663 q 597 460 672 504 q 625 396 611 436 l 688 213 q 753 82 717 136 q 824 0 789 28 l 647 0 l 514 392 q 449 517 492 460 q 347 575 407 575 q 243 503 282 575 q 204 263 204 431 l 204 253 q 220 95 204 165 q 263 0 236 25 l 42 0 m 204 451 q 223 526 204 489 q 277 586 242 563 q 358 610 313 610 q 568 507 490 610 q 619 603 601 546 q 638 731 638 661 q 632 804 638 754 q 527 1036 610 967 q 347 1106 444 1106 q 253 1070 285 1106 q 213 984 222 1035 q 204 861 204 933 l 204 451 m 388 1151 q 397 1181 397 1165 q 374 1239 397 1201 l 478 1239 l 415 1151 l 388 1151 z "},"Ř":{"ha":851,"x_min":42,"x_max":824,"o":"m 42 0 q 84 95 68 25 q 100 253 100 165 l 100 860 q 84 1017 100 947 q 42 1113 68 1088 l 193 1113 q 243 1117 219 1113 q 272 1122 267 1121 q 363 1133 325 1133 q 565 1092 475 1133 q 708 967 656 1050 q 761 763 761 883 q 717 583 761 663 q 597 460 672 504 q 625 396 611 436 l 688 213 q 753 82 717 136 q 824 0 789 28 l 647 0 l 514 392 q 449 517 492 460 q 347 575 407 575 q 243 503 282 575 q 204 263 204 431 l 204 253 q 220 95 204 165 q 263 0 236 25 l 42 0 m 204 451 q 223 526 204 489 q 277 586 242 563 q 358 610 313 610 q 568 507 490 610 q 619 603 601 546 q 638 731 638 661 q 632 804 638 754 q 527 1036 610 967 q 347 1106 444 1106 q 253 1070 285 1106 q 213 984 222 1035 q 204 861 204 933 l 204 451 m 357 1239 l 389 1239 l 426 1176 l 464 1239 l 496 1239 l 443 1150 l 410 1150 l 357 1239 z "},"Ŗ":{"ha":851,"x_min":42,"x_max":824,"o":"m 42 0 q 84 95 68 25 q 100 253 100 165 l 100 860 q 84 1017 100 947 q 42 1113 68 1088 l 193 1113 q 243 1117 219 1113 q 272 1122 267 1121 q 363 1133 325 1133 q 565 1092 475 1133 q 708 967 656 1050 q 761 763 761 883 q 717 583 761 663 q 597 460 672 504 q 625 396 611 436 l 688 213 q 753 82 717 136 q 824 0 789 28 l 647 0 l 514 392 q 449 517 492 460 q 347 575 407 575 q 243 503 282 575 q 204 263 204 431 l 204 253 q 220 95 204 165 q 263 0 236 25 l 42 0 m 204 451 q 223 526 204 489 q 277 586 242 563 q 358 610 313 610 q 568 507 490 610 q 619 603 601 546 q 638 731 638 661 q 632 804 638 754 q 527 1036 610 967 q 347 1106 444 1106 q 253 1070 285 1106 q 213 984 222 1035 q 204 861 204 933 l 204 451 m 357 -154 q 385 -83 379 -111 q 390 -3 390 -56 l 494 -3 l 385 -154 l 357 -154 z "},"S":{"ha":788,"x_min":28,"x_max":760,"o":"m 381 -22 q 151 32 243 -22 q 28 186 60 86 l 140 329 q 173 161 140 235 q 265 47 206 88 q 400 6 324 6 q 520 38 463 6 q 613 131 578 71 q 649 271 649 192 q 614 393 649 343 q 527 476 579 443 q 386 550 475 508 q 228 636 288 597 q 126 739 168 675 q 85 897 85 803 q 126 1022 85 968 q 238 1105 168 1076 q 390 1133 308 1133 q 497 1119 453 1133 q 593 1081 540 1106 q 655 1053 629 1063 q 710 1044 681 1044 l 613 922 q 547 1056 601 1007 q 397 1106 492 1106 q 299 1085 346 1106 q 222 1027 251 1065 q 192 939 192 989 q 226 811 192 863 q 313 728 261 760 q 453 657 364 697 q 615 571 554 610 q 717 463 675 532 q 760 289 760 394 q 708 124 760 194 q 571 15 657 53 q 381 -22 485 -22 z "},"Ś":{"ha":788,"x_min":28,"x_max":760,"o":"m 381 -22 q 151 32 243 -22 q 28 186 60 86 l 140 329 q 173 161 140 235 q 265 47 206 88 q 400 6 324 6 q 520 38 463 6 q 613 131 578 71 q 649 271 649 192 q 614 393 649 343 q 527 476 579 443 q 386 550 475 508 q 228 636 288 597 q 126 739 168 675 q 85 897 85 803 q 126 1022 85 968 q 238 1105 168 1076 q 390 1133 308 1133 q 497 1119 453 1133 q 593 1081 540 1106 q 655 1053 629 1063 q 710 1044 681 1044 l 613 922 q 547 1056 601 1007 q 397 1106 492 1106 q 299 1085 346 1106 q 222 1027 251 1065 q 192 939 192 989 q 226 811 192 863 q 313 728 261 760 q 453 657 364 697 q 615 571 554 610 q 717 463 675 532 q 760 289 760 394 q 708 124 760 194 q 571 15 657 53 q 381 -22 485 -22 m 356 1151 q 365 1181 365 1165 q 342 1239 365 1201 l 446 1239 l 383 1151 l 356 1151 z "},"Š":{"ha":788,"x_min":28,"x_max":760,"o":"m 381 -22 q 151 32 243 -22 q 28 186 60 86 l 140 329 q 173 161 140 235 q 265 47 206 88 q 400 6 324 6 q 520 38 463 6 q 613 131 578 71 q 649 271 649 192 q 614 393 649 343 q 527 476 579 443 q 386 550 475 508 q 228 636 288 597 q 126 739 168 675 q 85 897 85 803 q 126 1022 85 968 q 238 1105 168 1076 q 390 1133 308 1133 q 497 1119 453 1133 q 593 1081 540 1106 q 655 1053 629 1063 q 710 1044 681 1044 l 613 922 q 547 1056 601 1007 q 397 1106 492 1106 q 299 1085 346 1106 q 222 1027 251 1065 q 192 939 192 989 q 226 811 192 863 q 313 728 261 760 q 453 657 364 697 q 615 571 554 610 q 717 463 675 532 q 760 289 760 394 q 708 124 760 194 q 571 15 657 53 q 381 -22 485 -22 m 325 1239 l 357 1239 l 394 1176 l 432 1239 l 464 1239 l 411 1150 l 378 1150 l 325 1239 z "},"Ş":{"ha":788,"x_min":28,"x_max":760,"o":"m 381 -22 q 151 32 243 -22 q 28 186 60 86 l 140 329 q 173 161 140 235 q 265 47 206 88 q 400 6 324 6 q 520 38 463 6 q 613 131 578 71 q 649 271 649 192 q 614 393 649 343 q 527 476 579 443 q 386 550 475 508 q 228 636 288 597 q 126 739 168 675 q 85 897 85 803 q 126 1022 85 968 q 238 1105 168 1076 q 390 1133 308 1133 q 497 1119 453 1133 q 593 1081 540 1106 q 655 1053 629 1063 q 710 1044 681 1044 l 613 922 q 547 1056 601 1007 q 397 1106 492 1106 q 299 1085 346 1106 q 222 1027 251 1065 q 192 939 192 989 q 226 811 192 863 q 313 728 261 760 q 453 657 364 697 q 615 571 554 610 q 717 463 675 532 q 760 289 760 394 q 708 124 760 194 q 571 15 657 53 q 381 -22 485 -22 m 367 -22 l 381 -22 l 358 -89 q 400 -82 379 -82 q 442 -92 425 -82 q 458 -121 458 -101 q 417 -167 458 -153 q 331 -182 376 -182 l 331 -168 q 386 -161 361 -168 q 411 -135 411 -154 q 399 -114 411 -122 q 372 -106 388 -106 q 351 -110 363 -106 l 338 -110 l 367 -22 z "},"Ș":{"ha":788,"x_min":28,"x_max":760,"o":"m 325 -154 q 352 -89 346 -115 q 358 -22 358 -62 q 144 38 229 -17 q 28 186 58 92 l 140 329 q 173 161 140 235 q 265 47 206 88 q 400 6 324 6 q 520 38 463 6 q 613 131 578 71 q 649 271 649 192 q 614 393 649 343 q 527 476 579 443 q 386 550 475 508 q 228 636 288 597 q 126 739 168 675 q 85 897 85 803 q 126 1022 85 968 q 238 1105 168 1076 q 390 1133 308 1133 q 497 1119 453 1133 q 593 1081 540 1106 q 655 1053 629 1063 q 710 1044 681 1044 l 613 922 q 547 1056 601 1007 q 397 1106 492 1106 q 299 1085 346 1106 q 222 1027 251 1065 q 192 939 192 989 q 226 811 192 863 q 313 728 261 760 q 453 657 364 697 q 615 571 554 610 q 717 463 675 532 q 760 289 760 394 q 673 83 760 165 q 451 -18 586 1 l 353 -154 l 325 -154 z "},"ẞ":{"ha":788,"x_min":42,"x_max":760,"o":"m 100 1042 q 120 1092 100 1072 q 171 1113 140 1113 l 193 1113 q 275 1124 228 1113 q 302 1129 281 1125 q 347 1133 324 1133 q 503 1104 428 1133 q 631 1005 579 1075 q 682 818 682 935 q 561 592 682 661 q 703 485 646 560 q 760 281 760 410 q 658 53 760 128 q 403 -22 557 -22 q 308 -15 350 -22 l 308 38 q 421 6 360 6 q 519 24 467 6 q 613 100 572 43 q 654 260 654 157 q 650 321 654 288 q 560 525 635 465 q 394 585 486 585 q 250 504 299 585 l 222 504 q 297 587 247 554 q 424 619 346 619 q 497 611 461 619 q 553 686 532 639 q 575 801 575 733 q 571 860 575 829 q 485 1060 550 1015 q 342 1106 419 1106 q 230 1040 256 1106 q 204 861 204 974 l 204 0 l 42 0 q 84 95 68 25 q 100 253 100 165 l 100 1042 z "},"T":{"ha":999,"x_min":35,"x_max":964,"o":"m 389 0 q 431 95 415 25 q 447 253 447 165 l 447 860 q 441 978 447 933 q 409 1054 435 1024 q 331 1085 383 1085 l 325 1085 q 158 1056 218 1085 q 70 1000 99 1026 q 35 967 42 974 l 68 1085 l 76 1113 l 922 1113 l 931 1085 l 964 967 q 921 1007 957 974 q 821 1063 885 1040 q 674 1085 757 1085 l 668 1085 q 590 1054 615 1085 q 558 978 564 1024 q 551 860 551 933 l 551 253 q 567 95 551 165 q 610 0 583 25 l 389 0 z "},"Ť":{"ha":999,"x_min":35,"x_max":964,"o":"m 389 0 q 431 95 415 25 q 447 253 447 165 l 447 860 q 441 978 447 933 q 409 1054 435 1024 q 331 1085 383 1085 l 325 1085 q 158 1056 218 1085 q 70 1000 99 1026 q 35 967 42 974 l 68 1085 l 76 1113 l 922 1113 l 931 1085 l 964 967 q 921 1007 957 974 q 821 1063 885 1040 q 674 1085 757 1085 l 668 1085 q 590 1054 615 1085 q 558 978 564 1024 q 551 860 551 933 l 551 253 q 567 95 551 165 q 610 0 583 25 l 389 0 m 431 1239 l 463 1239 l 500 1176 l 538 1239 l 569 1239 l 517 1150 l 483 1150 l 431 1239 z "},"Ţ":{"ha":999,"x_min":35,"x_max":964,"o":"m 389 0 q 431 95 415 25 q 447 253 447 165 l 447 860 q 441 978 447 933 q 409 1054 435 1024 q 331 1085 383 1085 l 325 1085 q 158 1056 218 1085 q 70 1000 99 1026 q 35 967 42 974 l 68 1085 l 76 1113 l 922 1113 l 931 1085 l 964 967 q 921 1007 957 974 q 821 1063 885 1040 q 674 1085 757 1085 l 668 1085 q 590 1054 615 1085 q 558 978 564 1024 q 551 860 551 933 l 551 253 q 567 95 551 165 q 610 0 583 25 l 389 0 m 472 -22 l 486 -22 l 464 -89 q 506 -82 485 -82 q 547 -92 531 -82 q 564 -121 564 -101 q 523 -167 564 -153 q 436 -182 482 -182 l 436 -168 q 492 -161 467 -168 q 517 -135 517 -154 q 505 -114 517 -122 q 478 -106 493 -106 q 457 -110 468 -106 l 443 -110 l 472 -22 z "},"Ț":{"ha":999,"x_min":35,"x_max":964,"o":"m 389 0 q 431 95 415 25 q 447 253 447 165 l 447 860 q 441 978 447 933 q 409 1054 435 1024 q 331 1085 383 1085 l 325 1085 q 158 1056 218 1085 q 70 1000 99 1026 q 35 967 42 974 l 68 1085 l 76 1113 l 922 1113 l 931 1085 l 964 967 q 921 1007 957 974 q 821 1063 885 1040 q 674 1085 757 1085 l 668 1085 q 590 1054 615 1085 q 558 978 564 1024 q 551 860 551 933 l 551 253 q 567 95 551 165 q 610 0 583 25 l 389 0 m 431 -154 q 458 -83 453 -111 q 464 -3 464 -56 l 568 -3 l 458 -154 l 431 -154 z "},"U":{"ha":922,"x_min":42,"x_max":894,"o":"m 100 860 q 84 1017 100 947 q 42 1113 68 1088 l 263 1113 q 220 1017 236 1088 q 204 860 204 947 l 204 371 q 483 6 204 6 q 670 39 600 6 q 774 152 740 72 q 808 371 808 232 l 808 860 q 792 1017 808 947 q 750 1113 776 1088 l 894 1113 q 852 1017 868 1088 q 836 860 836 947 l 836 371 l 836 358 q 793 126 835 210 q 676 10 751 43 q 483 -22 600 -22 q 100 358 106 -22 l 100 860 z "},"Ú":{"ha":922,"x_min":42,"x_max":894,"o":"m 100 860 q 84 1017 100 947 q 42 1113 68 1088 l 263 1113 q 220 1017 236 1088 q 204 860 204 947 l 204 371 q 483 6 204 6 q 670 39 600 6 q 774 152 740 72 q 808 371 808 232 l 808 860 q 792 1017 808 947 q 750 1113 776 1088 l 894 1113 q 852 1017 868 1088 q 836 860 836 947 l 836 371 l 836 358 q 793 126 835 210 q 676 10 751 43 q 483 -22 600 -22 q 100 358 106 -22 l 100 860 m 469 1151 q 479 1181 479 1165 q 456 1239 479 1201 l 560 1239 l 497 1151 l 469 1151 z "},"Û":{"ha":922,"x_min":42,"x_max":894,"o":"m 100 860 q 84 1017 100 947 q 42 1113 68 1088 l 263 1113 q 220 1017 236 1088 q 204 860 204 947 l 204 371 q 483 6 204 6 q 670 39 600 6 q 774 152 740 72 q 808 371 808 232 l 808 860 q 792 1017 808 947 q 750 1113 776 1088 l 894 1113 q 852 1017 868 1088 q 836 860 836 947 l 836 371 l 836 358 q 793 126 835 210 q 676 10 751 43 q 483 -22 600 -22 q 100 358 106 -22 l 100 860 m 492 1239 l 525 1239 l 578 1150 l 546 1150 l 508 1213 l 471 1150 l 439 1150 l 492 1239 z "},"Ü":{"ha":922,"x_min":42,"x_max":894,"o":"m 100 860 q 84 1017 100 947 q 42 1113 68 1088 l 263 1113 q 220 1017 236 1088 q 204 860 204 947 l 204 371 q 483 6 204 6 q 670 39 600 6 q 774 152 740 72 q 808 371 808 232 l 808 860 q 792 1017 808 947 q 750 1113 776 1088 l 894 1113 q 852 1017 868 1088 q 836 860 836 947 l 836 371 l 836 358 q 793 126 835 210 q 676 10 751 43 q 483 -22 600 -22 q 100 358 106 -22 l 100 860 m 467 1160 q 442 1170 453 1160 q 432 1194 432 1181 q 442 1219 432 1210 q 467 1229 453 1229 q 491 1219 481 1229 q 501 1194 501 1208 q 491 1170 501 1181 q 467 1160 481 1160 m 585 1194 q 595 1219 585 1210 q 619 1229 606 1229 q 644 1219 633 1229 q 654 1194 654 1208 q 644 1170 654 1181 q 619 1160 633 1160 q 595 1170 606 1160 q 585 1194 585 1181 z "},"Ù":{"ha":922,"x_min":42,"x_max":894,"o":"m 100 860 q 84 1017 100 947 q 42 1113 68 1088 l 263 1113 q 220 1017 236 1088 q 204 860 204 947 l 204 371 q 483 6 204 6 q 670 39 600 6 q 774 152 740 72 q 808 371 808 232 l 808 860 q 792 1017 808 947 q 750 1113 776 1088 l 894 1113 q 852 1017 868 1088 q 836 860 836 947 l 836 371 l 836 358 q 793 126 835 210 q 676 10 751 43 q 483 -22 600 -22 q 100 358 106 -22 l 100 860 m 518 1151 l 456 1239 l 560 1239 q 536 1181 536 1201 q 546 1151 536 1165 l 518 1151 z "},"Ű":{"ha":922,"x_min":42,"x_max":894,"o":"m 100 860 q 84 1017 100 947 q 42 1113 68 1088 l 263 1113 q 220 1017 236 1088 q 204 860 204 947 l 204 371 q 483 6 204 6 q 670 39 600 6 q 774 152 740 72 q 808 371 808 232 l 808 860 q 792 1017 808 947 q 750 1113 776 1088 l 894 1113 q 852 1017 868 1088 q 836 860 836 947 l 836 371 l 836 358 q 793 126 835 210 q 676 10 751 43 q 483 -22 600 -22 q 100 358 106 -22 l 100 860 m 408 1151 q 418 1181 418 1165 q 394 1239 418 1201 l 499 1239 l 436 1151 l 408 1151 m 622 1239 l 560 1151 l 532 1151 q 542 1181 542 1165 q 518 1239 542 1201 l 622 1239 z "},"Ū":{"ha":922,"x_min":42,"x_max":894,"o":"m 100 860 q 84 1017 100 947 q 42 1113 68 1088 l 263 1113 q 220 1017 236 1088 q 204 860 204 947 l 204 371 q 483 6 204 6 q 670 39 600 6 q 774 152 740 72 q 808 371 808 232 l 808 860 q 792 1017 808 947 q 750 1113 776 1088 l 894 1113 q 852 1017 868 1088 q 836 860 836 947 l 836 371 l 836 358 q 793 126 835 210 q 676 10 751 43 q 483 -22 600 -22 q 100 358 106 -22 l 100 860 m 371 1211 l 644 1211 l 644 1183 l 371 1183 l 371 1211 z "},"Ų":{"ha":922,"x_min":42,"x_max":894,"o":"m 100 860 q 84 1017 100 947 q 42 1113 68 1088 l 263 1113 q 220 1017 236 1088 q 204 860 204 947 l 204 371 q 483 6 204 6 q 670 39 600 6 q 774 152 740 72 q 808 371 808 232 l 808 860 q 792 1017 808 947 q 750 1113 776 1088 l 894 1113 q 852 1017 868 1088 q 836 860 836 947 l 836 371 l 836 358 q 797 136 835 218 q 692 19 760 54 q 519 -21 624 -17 q 501 -69 501 -35 q 582 -131 501 -131 l 582 -144 q 494 -127 535 -144 q 454 -65 454 -110 q 471 -22 454 -39 q 100 358 106 -15 l 100 860 z "},"Ů":{"ha":922,"x_min":42,"x_max":894,"o":"m 100 860 q 84 1017 100 947 q 42 1113 68 1088 l 263 1113 q 220 1017 236 1088 q 204 860 204 947 l 204 371 q 483 6 204 6 q 670 39 600 6 q 774 152 740 72 q 808 371 808 232 l 808 860 q 792 1017 808 947 q 750 1113 776 1088 l 894 1113 q 852 1017 868 1088 q 836 860 836 947 l 836 371 l 836 358 q 793 126 835 210 q 676 10 751 43 q 483 -22 600 -22 q 100 358 106 -22 l 100 860 m 507 1140 q 467 1157 483 1140 q 450 1199 450 1174 q 467 1240 450 1224 q 507 1256 483 1256 q 549 1240 532 1256 q 565 1199 565 1224 q 549 1157 565 1174 q 507 1140 532 1140 m 474 1199 q 483 1174 474 1183 q 507 1164 493 1164 q 532 1174 522 1164 q 542 1199 542 1183 q 532 1222 542 1213 q 507 1232 522 1232 q 483 1222 493 1232 q 474 1199 474 1213 z "},"Ũ":{"ha":922,"x_min":42,"x_max":894,"o":"m 100 860 q 84 1017 100 947 q 42 1113 68 1088 l 263 1113 q 220 1017 236 1088 q 204 860 204 947 l 204 371 q 483 6 204 6 q 670 39 600 6 q 774 152 740 72 q 808 371 808 232 l 808 860 q 792 1017 808 947 q 750 1113 776 1088 l 894 1113 q 852 1017 868 1088 q 836 860 836 947 l 836 371 l 836 358 q 793 126 835 210 q 676 10 751 43 q 483 -22 600 -22 q 100 358 106 -22 l 100 860 m 586 1136 q 538 1149 556 1136 q 499 1190 521 1163 q 465 1228 481 1215 q 424 1240 450 1240 q 376 1214 386 1240 q 365 1153 365 1188 l 338 1153 q 363 1233 338 1211 q 424 1254 389 1254 q 474 1240 456 1254 q 514 1197 493 1225 q 549 1161 535 1172 q 585 1150 563 1150 q 635 1170 619 1150 q 650 1244 650 1190 l 678 1244 q 652 1161 678 1186 q 586 1136 626 1136 z "},"V":{"ha":1003,"x_min":28,"x_max":1003,"o":"m 172 878 q 99 1019 140 956 q 28 1113 58 1083 l 260 1113 q 242 1058 242 1096 q 253 983 242 1028 q 289 869 265 939 l 519 235 q 564 140 539 188 l 838 901 q 872 1060 872 1008 q 856 1113 872 1096 l 1003 1113 q 928 1017 969 1081 q 854 869 886 953 l 582 110 q 664 0 626 35 l 492 0 l 172 878 z "},"W":{"ha":1336,"x_min":42,"x_max":1315,"o":"m 186 878 q 113 1019 154 956 q 42 1113 72 1083 l 274 1113 q 256 1058 256 1096 q 267 983 256 1028 q 303 869 279 939 l 533 235 q 578 142 554 185 l 733 575 l 624 878 q 551 1019 592 956 q 479 1113 510 1083 l 711 1113 q 693 1058 693 1096 q 705 983 693 1028 q 740 869 717 939 l 790 732 l 828 839 q 942 1051 868 963 q 1132 1139 1017 1139 q 1272 1086 1229 1139 q 1315 954 1315 1033 q 1296 842 1315 900 l 1033 110 q 1115 0 1078 35 l 943 0 l 749 535 l 596 110 q 678 0 640 35 l 506 0 l 186 878 m 971 235 q 1015 142 992 185 l 1268 844 q 1288 957 1288 906 q 1251 1069 1288 1026 q 1131 1111 1215 1111 q 968 1038 1032 1111 q 860 846 904 964 l 804 692 l 971 235 z "},"Ẃ":{"ha":1336,"x_min":42,"x_max":1315,"o":"m 186 878 q 113 1019 154 956 q 42 1113 72 1083 l 274 1113 q 256 1058 256 1096 q 267 983 256 1028 q 303 869 279 939 l 533 235 q 578 142 554 185 l 733 575 l 624 878 q 551 1019 592 956 q 479 1113 510 1083 l 711 1113 q 693 1058 693 1096 q 705 983 693 1028 q 740 869 717 939 l 790 732 l 828 839 q 942 1051 868 963 q 1132 1139 1017 1139 q 1272 1086 1229 1139 q 1315 954 1315 1033 q 1296 842 1315 900 l 1033 110 q 1115 0 1078 35 l 943 0 l 749 535 l 596 110 q 678 0 640 35 l 506 0 l 186 878 m 971 235 q 1015 142 992 185 l 1268 844 q 1288 957 1288 906 q 1251 1069 1288 1026 q 1131 1111 1215 1111 q 968 1038 1032 1111 q 860 846 904 964 l 804 692 l 971 235 m 740 1151 q 750 1181 750 1165 q 726 1239 750 1201 l 831 1239 l 768 1151 l 740 1151 z "},"Ŵ":{"ha":1336,"x_min":42,"x_max":1315,"o":"m 186 878 q 113 1019 154 956 q 42 1113 72 1083 l 274 1113 q 256 1058 256 1096 q 267 983 256 1028 q 303 869 279 939 l 533 235 q 578 142 554 185 l 733 575 l 624 878 q 551 1019 592 956 q 479 1113 510 1083 l 711 1113 q 693 1058 693 1096 q 705 983 693 1028 q 740 869 717 939 l 790 732 l 828 839 q 942 1051 868 963 q 1132 1139 1017 1139 q 1272 1086 1229 1139 q 1315 954 1315 1033 q 1296 842 1315 900 l 1033 110 q 1115 0 1078 35 l 943 0 l 749 535 l 596 110 q 678 0 640 35 l 506 0 l 186 878 m 971 235 q 1015 142 992 185 l 1268 844 q 1288 957 1288 906 q 1251 1069 1288 1026 q 1131 1111 1215 1111 q 968 1038 1032 1111 q 860 846 904 964 l 804 692 l 971 235 m 763 1239 l 796 1239 l 849 1150 l 817 1150 l 779 1213 l 742 1150 l 710 1150 l 763 1239 z "},"Ẅ":{"ha":1336,"x_min":42,"x_max":1315,"o":"m 186 878 q 113 1019 154 956 q 42 1113 72 1083 l 274 1113 q 256 1058 256 1096 q 267 983 256 1028 q 303 869 279 939 l 533 235 q 578 142 554 185 l 733 575 l 624 878 q 551 1019 592 956 q 479 1113 510 1083 l 711 1113 q 693 1058 693 1096 q 705 983 693 1028 q 740 869 717 939 l 790 732 l 828 839 q 942 1051 868 963 q 1132 1139 1017 1139 q 1272 1086 1229 1139 q 1315 954 1315 1033 q 1296 842 1315 900 l 1033 110 q 1115 0 1078 35 l 943 0 l 749 535 l 596 110 q 678 0 640 35 l 506 0 l 186 878 m 971 235 q 1015 142 992 185 l 1268 844 q 1288 957 1288 906 q 1251 1069 1288 1026 q 1131 1111 1215 1111 q 968 1038 1032 1111 q 860 846 904 964 l 804 692 l 971 235 m 738 1160 q 713 1170 724 1160 q 703 1194 703 1181 q 713 1219 703 1210 q 738 1229 724 1229 q 762 1219 751 1229 q 772 1194 772 1208 q 762 1170 772 1181 q 738 1160 751 1160 m 856 1194 q 866 1219 856 1210 q 890 1229 876 1229 q 915 1219 904 1229 q 925 1194 925 1208 q 915 1170 925 1181 q 890 1160 904 1160 q 866 1170 876 1160 q 856 1194 856 1181 z "},"Ẁ":{"ha":1336,"x_min":42,"x_max":1315,"o":"m 186 878 q 113 1019 154 956 q 42 1113 72 1083 l 274 1113 q 256 1058 256 1096 q 267 983 256 1028 q 303 869 279 939 l 533 235 q 578 142 554 185 l 733 575 l 624 878 q 551 1019 592 956 q 479 1113 510 1083 l 711 1113 q 693 1058 693 1096 q 705 983 693 1028 q 740 869 717 939 l 790 732 l 828 839 q 942 1051 868 963 q 1132 1139 1017 1139 q 1272 1086 1229 1139 q 1315 954 1315 1033 q 1296 842 1315 900 l 1033 110 q 1115 0 1078 35 l 943 0 l 749 535 l 596 110 q 678 0 640 35 l 506 0 l 186 878 m 971 235 q 1015 142 992 185 l 1268 844 q 1288 957 1288 906 q 1251 1069 1288 1026 q 1131 1111 1215 1111 q 968 1038 1032 1111 q 860 846 904 964 l 804 692 l 971 235 m 789 1151 l 726 1239 l 831 1239 q 807 1181 807 1201 q 817 1151 807 1165 l 789 1151 z "},"X":{"ha":922,"x_min":28,"x_max":894,"o":"m 428 506 l 276 242 q 193 26 193 92 q 199 0 193 10 l 49 0 q 130 70 85 15 q 222 204 175 125 l 243 240 l 244 243 l 244 243 l 413 535 l 224 869 q 119 1029 171 964 q 28 1113 68 1094 l 268 1113 q 263 1086 263 1103 q 336 888 263 1025 l 486 619 l 638 879 q 715 1085 715 1024 q 710 1113 715 1103 l 860 1113 q 768 1029 819 1094 q 664 869 717 964 l 503 592 l 699 243 q 803 83 751 149 q 894 0 854 18 l 713 0 l 428 506 z "},"Y":{"ha":993,"x_min":21,"x_max":972,"o":"m 393 0 q 435 95 419 25 q 451 253 451 165 l 451 371 l 196 869 q 104 1024 151 957 q 21 1113 57 1090 l 253 1113 q 240 1075 240 1101 q 260 992 240 1043 q 317 869 281 942 l 542 428 l 764 869 q 819 993 800 944 q 838 1074 838 1042 q 824 1113 838 1100 l 972 1113 q 891 1025 939 1089 q 796 872 843 961 l 556 394 l 556 253 q 572 95 556 165 q 614 0 588 25 l 393 0 z "},"Ý":{"ha":993,"x_min":21,"x_max":972,"o":"m 393 0 q 435 95 419 25 q 451 253 451 165 l 451 371 l 196 869 q 104 1024 151 957 q 21 1113 57 1090 l 253 1113 q 240 1075 240 1101 q 260 992 240 1043 q 317 869 281 942 l 542 428 l 764 869 q 819 993 800 944 q 838 1074 838 1042 q 824 1113 838 1100 l 972 1113 q 891 1025 939 1089 q 796 872 843 961 l 556 394 l 556 253 q 572 95 556 165 q 614 0 588 25 l 393 0 m 458 1151 q 468 1181 468 1165 q 444 1239 468 1201 l 549 1239 l 486 1151 l 458 1151 z "},"Ŷ":{"ha":993,"x_min":21,"x_max":972,"o":"m 393 0 q 435 95 419 25 q 451 253 451 165 l 451 371 l 196 869 q 104 1024 151 957 q 21 1113 57 1090 l 253 1113 q 240 1075 240 1101 q 260 992 240 1043 q 317 869 281 942 l 542 428 l 764 869 q 819 993 800 944 q 838 1074 838 1042 q 824 1113 838 1100 l 972 1113 q 891 1025 939 1089 q 796 872 843 961 l 556 394 l 556 253 q 572 95 556 165 q 614 0 588 25 l 393 0 m 481 1239 l 514 1239 l 567 1150 l 535 1150 l 497 1213 l 460 1150 l 428 1150 l 481 1239 z "},"Ÿ":{"ha":993,"x_min":21,"x_max":972,"o":"m 393 0 q 435 95 419 25 q 451 253 451 165 l 451 371 l 196 869 q 104 1024 151 957 q 21 1113 57 1090 l 253 1113 q 240 1075 240 1101 q 260 992 240 1043 q 317 869 281 942 l 542 428 l 764 869 q 819 993 800 944 q 838 1074 838 1042 q 824 1113 838 1100 l 972 1113 q 891 1025 939 1089 q 796 872 843 961 l 556 394 l 556 253 q 572 95 556 165 q 614 0 588 25 l 393 0 m 456 1160 q 431 1170 442 1160 q 421 1194 421 1181 q 431 1219 421 1210 q 456 1229 442 1229 q 480 1219 469 1229 q 490 1194 490 1208 q 480 1170 490 1181 q 456 1160 469 1160 m 574 1194 q 584 1219 574 1210 q 608 1229 594 1229 q 633 1219 622 1229 q 643 1194 643 1208 q 633 1170 643 1181 q 608 1160 622 1160 q 584 1170 594 1160 q 574 1194 574 1181 z "},"Ỳ":{"ha":993,"x_min":21,"x_max":972,"o":"m 393 0 q 435 95 419 25 q 451 253 451 165 l 451 371 l 196 869 q 104 1024 151 957 q 21 1113 57 1090 l 253 1113 q 240 1075 240 1101 q 260 992 240 1043 q 317 869 281 942 l 542 428 l 764 869 q 819 993 800 944 q 838 1074 838 1042 q 824 1113 838 1100 l 972 1113 q 891 1025 939 1089 q 796 872 843 961 l 556 394 l 556 253 q 572 95 556 165 q 614 0 588 25 l 393 0 m 507 1151 l 444 1239 l 549 1239 q 525 1181 525 1201 q 535 1151 525 1165 l 507 1151 z "},"Ỹ":{"ha":993,"x_min":21,"x_max":972,"o":"m 393 0 q 435 95 419 25 q 451 253 451 165 l 451 371 l 196 869 q 104 1024 151 957 q 21 1113 57 1090 l 253 1113 q 240 1075 240 1101 q 260 992 240 1043 q 317 869 281 942 l 542 428 l 764 869 q 819 993 800 944 q 838 1074 838 1042 q 824 1113 838 1100 l 972 1113 q 891 1025 939 1089 q 796 872 843 961 l 556 394 l 556 253 q 572 95 556 165 q 614 0 588 25 l 393 0 m 575 1136 q 527 1149 544 1136 q 488 1190 510 1163 q 454 1228 469 1215 q 413 1240 439 1240 q 365 1214 375 1240 q 354 1153 354 1188 l 326 1153 q 352 1233 326 1211 q 413 1254 378 1254 q 463 1240 444 1254 q 503 1197 482 1225 q 538 1161 524 1172 q 574 1150 551 1150 q 624 1170 608 1150 q 639 1244 639 1190 l 667 1244 q 641 1161 667 1186 q 575 1136 615 1136 z "},"Z":{"ha":876,"x_min":28,"x_max":849,"o":"m 28 0 q 118 91 63 22 q 221 243 174 160 l 707 1083 l 369 1083 q 185 1048 250 1083 q 79 965 121 1013 l 113 1083 l 119 1111 l 847 1111 l 221 28 l 558 28 q 742 63 678 28 q 849 146 807 99 l 815 28 l 807 0 l 28 0 z "},"Ź":{"ha":876,"x_min":28,"x_max":849,"o":"m 28 0 q 118 91 63 22 q 221 243 174 160 l 707 1083 l 369 1083 q 185 1048 250 1083 q 79 965 121 1013 l 113 1083 l 119 1111 l 847 1111 l 221 28 l 558 28 q 742 63 678 28 q 849 146 807 99 l 815 28 l 807 0 l 28 0 m 400 1151 q 410 1181 410 1165 q 386 1239 410 1201 l 490 1239 l 428 1151 l 400 1151 z "},"Ž":{"ha":876,"x_min":28,"x_max":849,"o":"m 28 0 q 118 91 63 22 q 221 243 174 160 l 707 1083 l 369 1083 q 185 1048 250 1083 q 79 965 121 1013 l 113 1083 l 119 1111 l 847 1111 l 221 28 l 558 28 q 742 63 678 28 q 849 146 807 99 l 815 28 l 807 0 l 28 0 m 369 1239 l 401 1239 l 439 1176 l 476 1239 l 508 1239 l 456 1150 l 422 1150 l 369 1239 z "},"Ż":{"ha":876,"x_min":28,"x_max":849,"o":"m 28 0 q 118 91 63 22 q 221 243 174 160 l 707 1083 l 369 1083 q 185 1048 250 1083 q 79 965 121 1013 l 113 1083 l 119 1111 l 847 1111 l 221 28 l 558 28 q 742 63 678 28 q 849 146 807 99 l 815 28 l 807 0 l 28 0 m 439 1161 q 415 1172 425 1161 q 404 1196 404 1182 q 415 1221 404 1211 q 439 1231 425 1231 q 463 1220 453 1231 q 474 1196 474 1210 q 463 1172 474 1182 q 439 1161 453 1161 z "},"a":{"ha":1017,"x_min":21,"x_max":996,"o":"m 764 0 q 782 54 782 17 q 770 129 782 85 q 735 243 758 174 l 504 878 q 460 972 485 925 l 186 211 q 151 53 151 104 q 168 0 151 17 l 21 0 q 96 96 54 32 q 169 243 138 160 l 442 1003 q 360 1113 397 1078 l 532 1113 l 851 235 q 924 93 883 157 q 996 0 965 29 l 764 0 z "},"á":{"ha":1017,"x_min":21,"x_max":996,"o":"m 764 0 q 782 54 782 17 q 770 129 782 85 q 735 243 758 174 l 504 878 q 460 972 485 925 l 186 211 q 151 53 151 104 q 168 0 151 17 l 21 0 q 96 96 54 32 q 169 243 138 160 l 442 1003 q 360 1113 397 1078 l 532 1113 l 851 235 q 924 93 883 157 q 996 0 965 29 l 764 0 m 407 1158 q 417 1188 417 1172 q 393 1246 417 1208 l 497 1246 l 435 1158 l 407 1158 z "},"ă":{"ha":1017,"x_min":21,"x_max":996,"o":"m 764 0 q 782 54 782 17 q 770 129 782 85 q 735 243 758 174 l 504 878 q 460 972 485 925 l 186 211 q 151 53 151 104 q 168 0 151 17 l 21 0 q 96 96 54 32 q 169 243 138 160 l 442 1003 q 360 1113 397 1078 l 532 1113 l 851 235 q 924 93 883 157 q 996 0 965 29 l 764 0 m 444 1176 q 397 1195 417 1176 q 376 1246 376 1214 l 404 1246 q 415 1205 404 1219 q 444 1190 425 1190 q 476 1205 465 1190 q 486 1246 486 1219 l 514 1246 q 494 1195 514 1214 q 444 1176 474 1176 z "},"â":{"ha":1017,"x_min":21,"x_max":996,"o":"m 764 0 q 782 54 782 17 q 770 129 782 85 q 735 243 758 174 l 504 878 q 460 972 485 925 l 186 211 q 151 53 151 104 q 168 0 151 17 l 21 0 q 96 96 54 32 q 169 243 138 160 l 442 1003 q 360 1113 397 1078 l 532 1113 l 851 235 q 924 93 883 157 q 996 0 965 29 l 764 0 m 429 1246 l 463 1246 l 515 1157 l 483 1157 l 446 1219 l 408 1157 l 376 1157 l 429 1246 z "},"ä":{"ha":1017,"x_min":21,"x_max":996,"o":"m 764 0 q 782 54 782 17 q 770 129 782 85 q 735 243 758 174 l 504 878 q 460 972 485 925 l 186 211 q 151 53 151 104 q 168 0 151 17 l 21 0 q 96 96 54 32 q 169 243 138 160 l 442 1003 q 360 1113 397 1078 l 532 1113 l 851 235 q 924 93 883 157 q 996 0 965 29 l 764 0 m 404 1167 q 380 1177 390 1167 q 369 1201 369 1188 q 380 1226 369 1217 q 404 1236 390 1236 q 428 1226 418 1236 q 439 1201 439 1215 q 428 1177 439 1188 q 404 1167 418 1167 m 522 1201 q 533 1226 522 1217 q 557 1236 543 1236 q 581 1226 571 1236 q 592 1201 592 1215 q 581 1177 592 1188 q 557 1167 571 1167 q 533 1177 543 1167 q 522 1201 522 1188 z "},"à":{"ha":1017,"x_min":21,"x_max":996,"o":"m 764 0 q 782 54 782 17 q 770 129 782 85 q 735 243 758 174 l 504 878 q 460 972 485 925 l 186 211 q 151 53 151 104 q 168 0 151 17 l 21 0 q 96 96 54 32 q 169 243 138 160 l 442 1003 q 360 1113 397 1078 l 532 1113 l 851 235 q 924 93 883 157 q 996 0 965 29 l 764 0 m 456 1158 l 393 1246 l 497 1246 q 474 1188 474 1208 q 483 1158 474 1172 l 456 1158 z "},"ā":{"ha":1017,"x_min":21,"x_max":996,"o":"m 764 0 q 782 54 782 17 q 770 129 782 85 q 735 243 758 174 l 504 878 q 460 972 485 925 l 186 211 q 151 53 151 104 q 168 0 151 17 l 21 0 q 96 96 54 32 q 169 243 138 160 l 442 1003 q 360 1113 397 1078 l 532 1113 l 851 235 q 924 93 883 157 q 996 0 965 29 l 764 0 m 308 1218 l 582 1218 l 582 1190 l 308 1190 l 308 1218 z "},"ą":{"ha":1017,"x_min":21,"x_max":996,"o":"m 21 0 q 96 96 54 32 q 169 243 138 160 l 442 1003 q 360 1113 397 1078 l 532 1113 l 851 235 q 924 93 883 157 q 996 0 965 29 l 882 0 l 882 -7 q 835 -62 835 -7 q 915 -124 835 -124 l 915 -137 q 828 -120 868 -137 q 788 -58 788 -103 q 824 0 788 -19 l 764 0 q 782 54 782 17 q 770 129 782 85 q 735 243 758 174 l 504 878 q 460 972 485 925 l 186 211 q 151 53 151 104 q 168 0 151 17 l 21 0 z "},"å":{"ha":1017,"x_min":21,"x_max":996,"o":"m 764 0 q 782 54 782 17 q 770 129 782 85 q 735 243 758 174 l 504 878 q 460 972 485 925 l 186 211 q 151 53 151 104 q 168 0 151 17 l 21 0 q 96 96 54 32 q 169 243 138 160 l 442 1003 q 360 1113 397 1078 l 532 1113 l 851 235 q 924 93 883 157 q 996 0 965 29 l 764 0 m 444 1147 q 404 1164 421 1147 q 388 1206 388 1181 q 404 1247 388 1231 q 444 1263 421 1263 q 486 1247 469 1263 q 503 1206 503 1231 q 486 1164 503 1181 q 444 1147 469 1147 m 411 1206 q 421 1181 411 1190 q 444 1171 431 1171 q 469 1181 460 1171 q 479 1206 479 1190 q 469 1229 479 1219 q 444 1239 460 1239 q 421 1229 431 1239 q 411 1206 411 1219 z "},"ã":{"ha":1017,"x_min":21,"x_max":996,"o":"m 764 0 q 782 54 782 17 q 770 129 782 85 q 735 243 758 174 l 504 878 q 460 972 485 925 l 186 211 q 151 53 151 104 q 168 0 151 17 l 21 0 q 96 96 54 32 q 169 243 138 160 l 442 1003 q 360 1113 397 1078 l 532 1113 l 851 235 q 924 93 883 157 q 996 0 965 29 l 764 0 m 524 1143 q 476 1156 493 1143 q 436 1197 458 1169 q 403 1235 418 1222 q 361 1247 388 1247 q 313 1221 324 1247 q 303 1160 303 1194 l 275 1160 q 301 1240 275 1218 q 361 1261 326 1261 q 412 1247 393 1261 q 451 1204 431 1232 q 486 1168 472 1179 q 522 1157 500 1157 q 572 1177 557 1157 q 588 1251 588 1197 l 615 1251 q 590 1168 615 1193 q 524 1143 564 1143 z "},"æ":{"ha":1224,"x_min":21,"x_max":1196,"o":"m 21 0 q 96 96 54 32 q 169 243 138 160 l 481 1113 l 1168 1113 l 1168 1004 q 1079 1063 1132 1042 q 915 1085 1026 1085 l 761 1085 q 683 1054 708 1085 q 651 978 657 1024 q 644 860 644 933 l 644 574 q 708 631 667 614 q 814 649 750 649 l 860 649 q 1013 671 942 649 q 1113 722 1085 693 l 1113 547 q 1013 599 1085 576 q 860 621 942 621 l 814 621 q 685 580 725 621 q 644 438 644 539 l 644 253 q 651 134 644 179 q 683 58 657 89 q 763 28 708 28 l 906 28 q 1090 63 1025 28 q 1196 146 1154 99 l 1163 28 l 1154 0 l 482 0 q 524 95 508 25 q 540 253 540 165 l 540 860 q 529 990 540 929 q 500 1086 518 1051 l 186 211 q 151 53 151 104 q 168 0 151 17 l 21 0 z "},"b":{"ha":788,"x_min":42,"x_max":760,"o":"m 42 0 q 84 95 68 25 q 100 253 100 165 l 100 860 q 84 1017 100 947 q 42 1113 68 1088 l 193 1113 q 275 1124 228 1113 q 302 1129 281 1125 q 347 1133 324 1133 q 503 1104 428 1133 q 631 1005 579 1075 q 682 818 682 935 q 626 646 682 708 q 481 561 569 583 q 678 456 596 533 q 760 253 760 378 q 650 34 760 90 q 403 -22 540 -22 q 274 -8 340 -22 q 204 0 226 0 l 42 0 m 204 253 q 239 108 204 164 q 323 29 274 53 q 421 6 372 6 q 579 51 504 6 q 654 225 654 96 q 651 274 654 238 q 553 483 633 419 q 378 550 472 547 q 278 575 329 550 q 204 644 226 600 l 204 253 m 204 822 q 263 635 204 692 q 396 578 321 578 q 479 601 438 578 q 548 674 521 624 q 575 800 575 724 q 571 860 575 829 q 485 1060 550 1015 q 342 1106 419 1106 q 230 1040 256 1106 q 204 861 204 974 l 204 822 z "},"c":{"ha":864,"x_min":28,"x_max":836,"o":"m 478 -22 q 253 42 356 -22 q 89 238 150 107 q 28 557 28 369 q 89 874 28 744 q 253 1069 150 1004 q 478 1133 356 1133 q 619 1110 551 1133 q 743 1040 686 1086 l 636 904 q 553 1046 613 996 q 429 1096 493 1096 q 226 996 308 1096 q 144 667 144 896 q 149 557 144 615 q 279 156 172 269 q 526 43 386 43 q 679 76 610 43 q 814 194 749 108 l 836 178 q 680 28 774 79 q 478 -22 586 -22 z "},"ć":{"ha":864,"x_min":28,"x_max":836,"o":"m 478 -22 q 253 42 356 -22 q 89 238 150 107 q 28 557 28 369 q 89 874 28 744 q 253 1069 150 1004 q 478 1133 356 1133 q 619 1110 551 1133 q 743 1040 686 1086 l 636 904 q 553 1046 613 996 q 429 1096 493 1096 q 226 996 308 1096 q 144 667 144 896 q 149 557 144 615 q 279 156 172 269 q 526 43 386 43 q 679 76 610 43 q 814 194 749 108 l 836 178 q 680 28 774 79 q 478 -22 586 -22 m 393 1158 q 403 1188 403 1172 q 379 1246 403 1208 l 483 1246 l 421 1158 l 393 1158 z "},"č":{"ha":864,"x_min":28,"x_max":836,"o":"m 478 -22 q 253 42 356 -22 q 89 238 150 107 q 28 557 28 369 q 89 874 28 744 q 253 1069 150 1004 q 478 1133 356 1133 q 619 1110 551 1133 q 743 1040 686 1086 l 636 904 q 553 1046 613 996 q 429 1096 493 1096 q 226 996 308 1096 q 144 667 144 896 q 149 557 144 615 q 279 156 172 269 q 526 43 386 43 q 679 76 610 43 q 814 194 749 108 l 836 178 q 680 28 774 79 q 478 -22 586 -22 m 363 1246 l 394 1246 l 432 1183 l 469 1246 l 501 1246 l 449 1157 l 415 1157 l 363 1246 z "},"ç":{"ha":864,"x_min":28,"x_max":836,"o":"m 478 -22 q 253 42 356 -22 q 89 238 150 107 q 28 557 28 369 q 89 874 28 744 q 253 1069 150 1004 q 478 1133 356 1133 q 619 1110 551 1133 q 743 1040 686 1086 l 636 904 q 553 1046 613 996 q 429 1096 493 1096 q 226 996 308 1096 q 144 667 144 896 q 149 557 144 615 q 279 156 172 269 q 526 43 386 43 q 679 76 610 43 q 814 194 749 108 l 836 178 q 680 28 774 79 q 478 -22 586 -22 m 404 -22 l 418 -22 l 396 -89 q 438 -82 417 -82 q 479 -92 463 -82 q 496 -121 496 -101 q 455 -167 496 -153 q 368 -182 414 -182 l 368 -168 q 424 -161 399 -168 q 449 -135 449 -154 q 437 -114 449 -122 q 410 -106 425 -106 q 389 -110 400 -106 l 375 -110 l 404 -22 z "},"ċ":{"ha":864,"x_min":28,"x_max":836,"o":"m 478 -22 q 253 42 356 -22 q 89 238 150 107 q 28 557 28 369 q 89 874 28 744 q 253 1069 150 1004 q 478 1133 356 1133 q 619 1110 551 1133 q 743 1040 686 1086 l 636 904 q 553 1046 613 996 q 429 1096 493 1096 q 226 996 308 1096 q 144 667 144 896 q 149 557 144 615 q 279 156 172 269 q 526 43 386 43 q 679 76 610 43 q 814 194 749 108 l 836 178 q 680 28 774 79 q 478 -22 586 -22 m 432 1168 q 408 1178 418 1168 q 397 1203 397 1189 q 408 1228 397 1218 q 432 1238 418 1238 q 456 1227 446 1238 q 467 1203 467 1217 q 456 1178 467 1189 q 432 1168 446 1168 z "},"d":{"ha":828,"x_min":42,"x_max":800,"o":"m 42 0 q 84 95 68 25 q 100 253 100 165 l 100 860 q 84 1017 100 947 q 42 1113 68 1088 l 193 1113 q 272 1124 228 1113 q 301 1129 279 1125 q 347 1133 324 1133 q 573 1069 469 1133 q 738 874 676 1004 q 800 557 800 743 q 740 240 800 371 q 583 43 679 108 q 378 -22 486 -22 q 265 -8 318 -22 q 204 0 226 0 l 42 0 m 204 253 q 263 65 204 122 q 396 8 321 8 q 537 51 472 8 q 642 191 601 93 q 683 447 683 289 q 679 557 683 499 q 606 876 663 753 q 477 1052 549 999 q 342 1106 406 1106 q 230 1040 256 1106 q 204 861 204 974 l 204 253 z "},"ð":{"ha":754,"x_min":42,"x_max":713,"o":"m 339 -22 q 122 71 203 -22 q 42 343 42 164 q 88 547 42 464 q 213 670 133 629 q 394 711 293 711 q 519 679 467 711 q 597 585 571 647 q 561 851 596 735 q 468 1035 526 968 l 329 985 l 329 1014 l 447 1057 q 329 1106 392 1106 q 204 1051 256 1106 l 161 1104 q 310 1133 226 1133 q 511 1081 425 1133 l 603 1114 l 603 1085 l 538 1061 q 669 863 628 990 q 713 581 711 736 q 685 276 713 407 q 574 62 657 146 q 339 -22 492 -22 m 161 343 q 157 264 157 300 q 349 6 157 6 q 523 137 467 6 q 592 451 579 268 q 540 626 593 569 q 414 682 486 682 q 246 604 314 682 q 161 343 178 526 z "},"ď":{"ha":828,"x_min":42,"x_max":800,"o":"m 42 0 q 84 95 68 25 q 100 253 100 165 l 100 860 q 84 1017 100 947 q 42 1113 68 1088 l 193 1113 q 272 1124 228 1113 q 301 1129 279 1125 q 347 1133 324 1133 q 573 1069 469 1133 q 738 874 676 1004 q 800 557 800 743 q 740 240 800 371 q 583 43 679 108 q 378 -22 486 -22 q 265 -8 318 -22 q 204 0 226 0 l 42 0 m 204 253 q 263 65 204 122 q 396 8 321 8 q 537 51 472 8 q 642 191 601 93 q 683 447 683 289 q 679 557 683 499 q 606 876 663 753 q 477 1052 549 999 q 342 1106 406 1106 q 230 1040 256 1106 q 204 861 204 974 l 204 253 m 703 1015 q 697 1059 703 1039 q 672 1103 690 1079 l 760 1103 l 731 1015 l 703 1015 z "},"đ":{"ha":828,"x_min":42,"x_max":800,"o":"m 42 0 q 84 95 68 25 q 100 253 100 165 l 100 588 l 64 588 l 64 615 l 100 615 l 100 860 q 84 1017 100 947 q 42 1113 68 1088 l 193 1113 q 272 1124 228 1113 q 301 1129 279 1125 q 347 1133 324 1133 q 573 1069 469 1133 q 738 874 676 1004 q 800 557 800 743 q 740 240 800 371 q 583 43 679 108 q 378 -22 486 -22 q 265 -8 318 -22 q 204 0 226 0 l 42 0 m 204 253 q 263 65 204 122 q 396 8 321 8 q 537 51 472 8 q 642 191 601 93 q 683 447 683 289 q 679 557 683 499 q 606 876 663 753 q 477 1052 549 999 q 342 1106 406 1106 q 230 1040 256 1106 q 204 861 204 974 l 204 615 l 338 615 l 338 588 l 204 588 l 204 253 z "},"e":{"ha":783,"x_min":42,"x_max":756,"o":"m 42 0 q 84 95 68 25 q 100 253 100 165 l 100 860 q 84 1017 100 947 q 42 1113 68 1088 l 728 1113 l 728 1004 q 639 1063 692 1042 q 475 1085 586 1085 l 321 1085 q 242 1054 268 1085 q 210 978 217 1024 q 204 860 204 933 l 204 574 q 268 631 226 614 q 374 649 310 649 l 419 649 q 573 671 501 649 q 672 722 644 693 l 672 547 q 573 599 644 576 q 419 621 501 621 l 374 621 q 244 580 285 621 q 204 438 204 539 l 204 253 q 210 134 204 179 q 242 58 217 89 q 322 28 268 28 l 465 28 q 649 63 585 28 q 756 146 714 99 l 722 28 l 714 0 l 42 0 z "},"é":{"ha":783,"x_min":42,"x_max":756,"o":"m 42 0 q 84 95 68 25 q 100 253 100 165 l 100 860 q 84 1017 100 947 q 42 1113 68 1088 l 728 1113 l 728 1004 q 639 1063 692 1042 q 475 1085 586 1085 l 321 1085 q 242 1054 268 1085 q 210 978 217 1024 q 204 860 204 933 l 204 574 q 268 631 226 614 q 374 649 310 649 l 419 649 q 573 671 501 649 q 672 722 644 693 l 672 547 q 573 599 644 576 q 419 621 501 621 l 374 621 q 244 580 285 621 q 204 438 204 539 l 204 253 q 210 134 204 179 q 242 58 217 89 q 322 28 268 28 l 465 28 q 649 63 585 28 q 756 146 714 99 l 722 28 l 714 0 l 42 0 m 353 1158 q 363 1188 363 1172 q 339 1246 363 1208 l 443 1246 l 381 1158 l 353 1158 z "},"ě":{"ha":783,"x_min":42,"x_max":756,"o":"m 42 0 q 84 95 68 25 q 100 253 100 165 l 100 860 q 84 1017 100 947 q 42 1113 68 1088 l 728 1113 l 728 1004 q 639 1063 692 1042 q 475 1085 586 1085 l 321 1085 q 242 1054 268 1085 q 210 978 217 1024 q 204 860 204 933 l 204 574 q 268 631 226 614 q 374 649 310 649 l 419 649 q 573 671 501 649 q 672 722 644 693 l 672 547 q 573 599 644 576 q 419 621 501 621 l 374 621 q 244 580 285 621 q 204 438 204 539 l 204 253 q 210 134 204 179 q 242 58 217 89 q 322 28 268 28 l 465 28 q 649 63 585 28 q 756 146 714 99 l 722 28 l 714 0 l 42 0 m 322 1246 l 354 1246 l 392 1183 l 429 1246 l 461 1246 l 408 1157 l 375 1157 l 322 1246 z "},"ê":{"ha":783,"x_min":42,"x_max":756,"o":"m 42 0 q 84 95 68 25 q 100 253 100 165 l 100 860 q 84 1017 100 947 q 42 1113 68 1088 l 728 1113 l 728 1004 q 639 1063 692 1042 q 475 1085 586 1085 l 321 1085 q 242 1054 268 1085 q 210 978 217 1024 q 204 860 204 933 l 204 574 q 268 631 226 614 q 374 649 310 649 l 419 649 q 573 671 501 649 q 672 722 644 693 l 672 547 q 573 599 644 576 q 419 621 501 621 l 374 621 q 244 580 285 621 q 204 438 204 539 l 204 253 q 210 134 204 179 q 242 58 217 89 q 322 28 268 28 l 465 28 q 649 63 585 28 q 756 146 714 99 l 722 28 l 714 0 l 42 0 m 375 1246 l 408 1246 l 461 1157 l 429 1157 l 392 1219 l 354 1157 l 322 1157 l 375 1246 z "},"ë":{"ha":783,"x_min":42,"x_max":756,"o":"m 42 0 q 84 95 68 25 q 100 253 100 165 l 100 860 q 84 1017 100 947 q 42 1113 68 1088 l 728 1113 l 728 1004 q 639 1063 692 1042 q 475 1085 586 1085 l 321 1085 q 242 1054 268 1085 q 210 978 217 1024 q 204 860 204 933 l 204 574 q 268 631 226 614 q 374 649 310 649 l 419 649 q 573 671 501 649 q 672 722 644 693 l 672 547 q 573 599 644 576 q 419 621 501 621 l 374 621 q 244 580 285 621 q 204 438 204 539 l 204 253 q 210 134 204 179 q 242 58 217 89 q 322 28 268 28 l 465 28 q 649 63 585 28 q 756 146 714 99 l 722 28 l 714 0 l 42 0 m 350 1167 q 326 1177 336 1167 q 315 1201 315 1188 q 326 1226 315 1217 q 350 1236 336 1236 q 374 1226 364 1236 q 385 1201 385 1215 q 374 1177 385 1188 q 350 1167 364 1167 m 468 1201 q 478 1226 468 1217 q 503 1236 489 1236 q 527 1226 517 1236 q 538 1201 538 1215 q 527 1177 538 1188 q 503 1167 517 1167 q 478 1177 489 1167 q 468 1201 468 1188 z "},"ė":{"ha":783,"x_min":42,"x_max":756,"o":"m 42 0 q 84 95 68 25 q 100 253 100 165 l 100 860 q 84 1017 100 947 q 42 1113 68 1088 l 728 1113 l 728 1004 q 639 1063 692 1042 q 475 1085 586 1085 l 321 1085 q 242 1054 268 1085 q 210 978 217 1024 q 204 860 204 933 l 204 574 q 268 631 226 614 q 374 649 310 649 l 419 649 q 573 671 501 649 q 672 722 644 693 l 672 547 q 573 599 644 576 q 419 621 501 621 l 374 621 q 244 580 285 621 q 204 438 204 539 l 204 253 q 210 134 204 179 q 242 58 217 89 q 322 28 268 28 l 465 28 q 649 63 585 28 q 756 146 714 99 l 722 28 l 714 0 l 42 0 m 392 1168 q 367 1178 378 1168 q 357 1203 357 1189 q 367 1228 357 1218 q 392 1238 378 1238 q 416 1227 406 1238 q 426 1203 426 1217 q 416 1178 426 1189 q 392 1168 406 1168 z "},"è":{"ha":783,"x_min":42,"x_max":756,"o":"m 42 0 q 84 95 68 25 q 100 253 100 165 l 100 860 q 84 1017 100 947 q 42 1113 68 1088 l 728 1113 l 728 1004 q 639 1063 692 1042 q 475 1085 586 1085 l 321 1085 q 242 1054 268 1085 q 210 978 217 1024 q 204 860 204 933 l 204 574 q 268 631 226 614 q 374 649 310 649 l 419 649 q 573 671 501 649 q 672 722 644 693 l 672 547 q 573 599 644 576 q 419 621 501 621 l 374 621 q 244 580 285 621 q 204 438 204 539 l 204 253 q 210 134 204 179 q 242 58 217 89 q 322 28 268 28 l 465 28 q 649 63 585 28 q 756 146 714 99 l 722 28 l 714 0 l 42 0 m 401 1158 l 339 1246 l 443 1246 q 419 1188 419 1208 q 429 1158 419 1172 l 401 1158 z "},"ē":{"ha":783,"x_min":42,"x_max":756,"o":"m 42 0 q 84 95 68 25 q 100 253 100 165 l 100 860 q 84 1017 100 947 q 42 1113 68 1088 l 728 1113 l 728 1004 q 639 1063 692 1042 q 475 1085 586 1085 l 321 1085 q 242 1054 268 1085 q 210 978 217 1024 q 204 860 204 933 l 204 574 q 268 631 226 614 q 374 649 310 649 l 419 649 q 573 671 501 649 q 672 722 644 693 l 672 547 q 573 599 644 576 q 419 621 501 621 l 374 621 q 244 580 285 621 q 204 438 204 539 l 204 253 q 210 134 204 179 q 242 58 217 89 q 322 28 268 28 l 465 28 q 649 63 585 28 q 756 146 714 99 l 722 28 l 714 0 l 42 0 m 254 1218 l 528 1218 l 528 1190 l 254 1190 l 254 1218 z "},"ę":{"ha":783,"x_min":42,"x_max":756,"o":"m 42 0 q 84 95 68 25 q 100 253 100 165 l 100 860 q 84 1017 100 947 q 42 1113 68 1088 l 728 1113 l 728 1004 q 639 1063 692 1042 q 475 1085 586 1085 l 321 1085 q 242 1054 268 1085 q 210 978 217 1024 q 204 860 204 933 l 204 574 q 268 631 226 614 q 374 649 310 649 l 419 649 q 573 671 501 649 q 672 722 644 693 l 672 547 q 573 599 644 576 q 419 621 501 621 l 374 621 q 244 580 285 621 q 204 438 204 539 l 204 253 q 210 134 204 179 q 242 58 217 89 q 322 28 268 28 l 465 28 q 649 63 585 28 q 756 146 714 99 l 722 28 l 714 0 l 672 0 l 672 -7 q 625 -62 625 -7 q 706 -124 625 -124 l 706 -137 q 618 -120 658 -137 q 578 -58 578 -103 q 614 0 578 -19 l 42 0 z "},"ẽ":{"ha":783,"x_min":42,"x_max":756,"o":"m 42 0 q 84 95 68 25 q 100 253 100 165 l 100 860 q 84 1017 100 947 q 42 1113 68 1088 l 728 1113 l 728 1004 q 639 1063 692 1042 q 475 1085 586 1085 l 321 1085 q 242 1054 268 1085 q 210 978 217 1024 q 204 860 204 933 l 204 574 q 268 631 226 614 q 374 649 310 649 l 419 649 q 573 671 501 649 q 672 722 644 693 l 672 547 q 573 599 644 576 q 419 621 501 621 l 374 621 q 244 580 285 621 q 204 438 204 539 l 204 253 q 210 134 204 179 q 242 58 217 89 q 322 28 268 28 l 465 28 q 649 63 585 28 q 756 146 714 99 l 722 28 l 714 0 l 42 0 m 469 1143 q 422 1156 439 1143 q 382 1197 404 1169 q 349 1235 364 1222 q 307 1247 333 1247 q 259 1221 269 1247 q 249 1160 249 1194 l 221 1160 q 247 1240 221 1218 q 307 1261 272 1261 q 358 1247 339 1261 q 397 1204 376 1232 q 432 1168 418 1179 q 468 1157 446 1157 q 518 1177 503 1157 q 533 1251 533 1197 l 561 1251 q 535 1168 561 1193 q 469 1143 510 1143 z "},"f":{"ha":756,"x_min":42,"x_max":728,"o":"m 42 0 q 84 95 68 25 q 100 253 100 165 l 100 860 q 84 1017 100 947 q 42 1113 68 1088 l 728 1113 l 728 1004 q 639 1063 692 1042 q 475 1085 586 1085 l 321 1085 q 242 1054 268 1085 q 210 978 217 1024 q 204 860 204 933 l 204 574 q 265 629 225 611 q 364 649 304 647 l 379 649 q 533 671 461 649 q 632 722 604 693 l 632 547 q 533 599 604 576 q 379 621 461 621 l 374 621 q 244 580 285 621 q 204 438 204 539 l 204 253 q 220 95 204 165 q 263 0 236 25 l 42 0 z "},"g":{"ha":863,"x_min":28,"x_max":821,"o":"m 493 -22 q 257 42 363 -22 q 90 238 151 107 q 28 557 28 368 q 89 874 28 744 q 253 1069 150 1004 q 478 1133 356 1133 q 655 1095 571 1133 q 801 982 739 1057 l 690 842 q 638 986 679 929 q 541 1069 597 1043 q 429 1096 485 1096 q 226 996 308 1096 q 144 667 144 896 q 149 557 144 615 q 224 235 165 358 q 363 60 283 113 q 526 7 442 7 q 665 65 617 7 q 714 283 714 124 l 714 342 q 672 488 714 426 q 544 594 631 550 l 821 594 l 821 269 q 726 42 817 106 q 493 -22 636 -22 z "},"ğ":{"ha":863,"x_min":28,"x_max":821,"o":"m 493 -22 q 257 42 363 -22 q 90 238 151 107 q 28 557 28 368 q 89 874 28 744 q 253 1069 150 1004 q 478 1133 356 1133 q 655 1095 571 1133 q 801 982 739 1057 l 690 842 q 638 986 679 929 q 541 1069 597 1043 q 429 1096 485 1096 q 226 996 308 1096 q 144 667 144 896 q 149 557 144 615 q 224 235 165 358 q 363 60 283 113 q 526 7 442 7 q 665 65 617 7 q 714 283 714 124 l 714 342 q 672 488 714 426 q 544 594 631 550 l 821 594 l 821 269 q 726 42 817 106 q 493 -22 636 -22 m 431 1175 q 383 1194 403 1175 q 363 1244 363 1213 l 390 1244 q 401 1203 390 1218 q 431 1189 411 1189 q 462 1203 451 1189 q 472 1244 472 1218 l 500 1244 q 480 1194 500 1213 q 431 1175 460 1175 z "},"ģ":{"ha":863,"x_min":28,"x_max":821,"o":"m 493 -22 q 257 42 363 -22 q 90 238 151 107 q 28 557 28 368 q 89 874 28 744 q 253 1069 150 1004 q 478 1133 356 1133 q 655 1095 571 1133 q 801 982 739 1057 l 690 842 q 638 986 679 929 q 541 1069 597 1043 q 429 1096 485 1096 q 226 996 308 1096 q 144 667 144 896 q 149 557 144 615 q 224 235 165 358 q 363 60 283 113 q 526 7 442 7 q 665 65 617 7 q 714 283 714 124 l 714 342 q 672 488 714 426 q 544 594 631 550 l 821 594 l 821 269 q 726 42 817 106 q 493 -22 636 -22 m 432 1175 q 408 1185 418 1175 q 397 1210 397 1196 q 416 1256 397 1233 q 458 1278 435 1278 l 458 1269 q 431 1244 438 1269 l 432 1244 q 456 1234 446 1244 q 467 1210 467 1224 q 456 1185 467 1196 q 432 1175 446 1175 z "},"ġ":{"ha":863,"x_min":28,"x_max":821,"o":"m 493 -22 q 257 42 363 -22 q 90 238 151 107 q 28 557 28 368 q 89 874 28 744 q 253 1069 150 1004 q 478 1133 356 1133 q 655 1095 571 1133 q 801 982 739 1057 l 690 842 q 638 986 679 929 q 541 1069 597 1043 q 429 1096 485 1096 q 226 996 308 1096 q 144 667 144 896 q 149 557 144 615 q 224 235 165 358 q 363 60 283 113 q 526 7 442 7 q 665 65 617 7 q 714 283 714 124 l 714 342 q 672 488 714 426 q 544 594 631 550 l 821 594 l 821 269 q 726 42 817 106 q 493 -22 636 -22 m 432 1167 q 408 1177 418 1167 q 397 1201 397 1188 q 408 1226 397 1217 q 432 1236 418 1236 q 456 1226 446 1236 q 467 1201 467 1215 q 456 1177 467 1188 q 432 1167 446 1167 z "},"h":{"ha":897,"x_min":42,"x_max":856,"o":"m 42 0 q 84 95 68 25 q 100 253 100 165 l 100 860 q 84 1017 100 947 q 42 1113 68 1088 l 263 1113 q 220 1017 236 1088 q 204 860 204 947 l 204 446 q 270 503 226 485 q 381 522 314 521 q 581 558 514 525 q 670 655 647 590 q 693 836 693 719 l 693 860 q 677 1017 693 947 q 635 1113 661 1088 l 856 1113 q 813 1017 829 1088 q 797 860 797 947 l 797 253 q 813 95 797 165 q 856 0 829 25 l 635 0 q 677 95 661 25 q 693 253 693 165 l 693 556 q 572 510 646 524 q 386 494 499 497 q 246 453 288 492 q 204 313 204 414 l 204 253 q 220 95 204 165 q 263 0 236 25 l 42 0 z "},"i":{"ha":304,"x_min":42,"x_max":263,"o":"m 42 0 q 84 95 68 25 q 100 253 100 165 l 100 860 q 84 1017 100 947 q 42 1113 68 1088 l 263 1113 q 220 1017 236 1088 q 204 860 204 947 l 204 253 q 220 95 204 165 q 263 0 236 25 l 42 0 z "},"ı":{"ha":304,"x_min":42,"x_max":263,"o":"m 42 0 q 84 95 68 25 q 100 253 100 165 l 100 860 q 84 1017 100 947 q 42 1113 68 1088 l 263 1113 q 220 1017 236 1088 q 204 860 204 947 l 204 253 q 220 95 204 165 q 263 0 236 25 l 42 0 z "},"í":{"ha":304,"x_min":42,"x_max":263,"o":"m 42 0 q 84 95 68 25 q 100 253 100 165 l 100 860 q 84 1017 100 947 q 42 1113 68 1088 l 263 1113 q 220 1017 236 1088 q 204 860 204 947 l 204 253 q 220 95 204 165 q 263 0 236 25 l 42 0 m 111 1158 q 121 1188 121 1172 q 97 1246 121 1208 l 201 1246 l 139 1158 l 111 1158 z "},"î":{"ha":304,"x_min":42,"x_max":263,"o":"m 42 0 q 84 95 68 25 q 100 253 100 165 l 100 860 q 84 1017 100 947 q 42 1113 68 1088 l 263 1113 q 220 1017 236 1088 q 204 860 204 947 l 204 253 q 220 95 204 165 q 263 0 236 25 l 42 0 m 133 1246 l 167 1246 l 219 1157 l 188 1157 l 150 1219 l 113 1157 l 81 1157 l 133 1246 z "},"ï":{"ha":304,"x_min":42,"x_max":296,"o":"m 42 0 q 84 95 68 25 q 100 253 100 165 l 100 860 q 84 1017 100 947 q 42 1113 68 1088 l 263 1113 q 220 1017 236 1088 q 204 860 204 947 l 204 253 q 220 95 204 165 q 263 0 236 25 l 42 0 m 108 1167 q 84 1177 94 1167 q 74 1201 74 1188 q 84 1226 74 1217 q 108 1236 94 1236 q 133 1226 122 1236 q 143 1201 143 1215 q 133 1177 143 1188 q 108 1167 122 1167 m 226 1201 q 237 1226 226 1217 q 261 1236 247 1236 q 285 1226 275 1236 q 296 1201 296 1215 q 285 1177 296 1188 q 261 1167 275 1167 q 237 1177 247 1167 q 226 1201 226 1188 z "},"ì":{"ha":304,"x_min":42,"x_max":263,"o":"m 42 0 q 84 95 68 25 q 100 253 100 165 l 100 860 q 84 1017 100 947 q 42 1113 68 1088 l 263 1113 q 220 1017 236 1088 q 204 860 204 947 l 204 253 q 220 95 204 165 q 263 0 236 25 l 42 0 m 160 1158 l 97 1246 l 201 1246 q 178 1188 178 1208 q 188 1158 178 1172 l 160 1158 z "},"ĳ":{"ha":654,"x_min":42,"x_max":626,"o":"m 42 0 q 84 95 68 25 q 100 253 100 165 l 100 860 q 84 1017 100 947 q 42 1113 68 1088 l 263 1113 q 220 1017 236 1088 q 204 860 204 947 l 204 253 q 220 95 204 165 q 263 0 236 25 l 42 0 m 464 860 q 448 1017 464 947 q 406 1113 432 1088 l 626 1113 q 584 1017 600 1088 q 568 860 568 947 l 568 456 l 568 451 l 568 447 q 556 207 568 296 q 492 59 543 118 q 332 0 442 0 l 332 28 q 422 89 393 28 q 458 235 451 150 q 464 456 464 321 l 464 860 z "},"ī":{"ha":304,"x_min":13,"x_max":286,"o":"m 42 0 q 84 95 68 25 q 100 253 100 165 l 100 860 q 84 1017 100 947 q 42 1113 68 1088 l 263 1113 q 220 1017 236 1088 q 204 860 204 947 l 204 253 q 220 95 204 165 q 263 0 236 25 l 42 0 m 13 1218 l 286 1218 l 286 1190 l 13 1190 l 13 1218 z "},"į":{"ha":304,"x_min":42,"x_max":263,"o":"m 42 0 q 84 95 68 25 q 100 253 100 165 l 100 860 q 84 1017 100 947 q 42 1113 68 1088 l 263 1113 q 220 1017 236 1088 q 204 860 204 947 l 204 253 q 220 95 204 165 q 263 0 236 25 l 185 0 l 185 -7 q 138 -62 138 -7 q 218 -124 138 -124 l 218 -137 q 131 -120 171 -137 q 90 -58 90 -103 q 126 0 90 -19 l 42 0 m 115 1203 q 126 1228 115 1218 q 150 1238 136 1238 q 174 1227 164 1238 q 185 1203 185 1217 q 174 1178 185 1189 q 150 1168 164 1168 q 126 1178 136 1168 q 115 1203 115 1189 z "},"ĩ":{"ha":304,"x_min":-21,"x_max":319,"o":"m 42 0 q 84 95 68 25 q 100 253 100 165 l 100 860 q 84 1017 100 947 q 42 1113 68 1088 l 263 1113 q 220 1017 236 1088 q 204 860 204 947 l 204 253 q 220 95 204 165 q 263 0 236 25 l 42 0 m 228 1143 q 180 1156 197 1143 q 140 1197 163 1169 q 107 1235 122 1222 q 65 1247 92 1247 q 17 1221 28 1247 q 7 1160 7 1194 l -21 1160 q 5 1240 -21 1218 q 65 1261 31 1261 q 116 1247 97 1261 q 156 1204 135 1232 q 190 1168 176 1179 q 226 1157 204 1157 q 276 1177 261 1157 q 292 1251 292 1197 l 319 1251 q 294 1168 319 1193 q 228 1143 268 1143 z "},"j":{"ha":350,"x_min":28,"x_max":322,"o":"m 160 860 q 144 1017 160 947 q 101 1113 128 1088 l 322 1113 q 280 1017 296 1088 q 264 860 264 947 l 264 456 l 264 451 l 264 447 q 251 207 264 296 q 188 59 239 118 q 28 0 138 0 l 28 28 q 118 89 89 28 q 153 235 147 150 q 160 456 160 321 l 160 860 z "},"ȷ":{"ha":350,"x_min":28,"x_max":322,"o":"m 160 860 q 144 1017 160 947 q 101 1113 128 1088 l 322 1113 q 280 1017 296 1088 q 264 860 264 947 l 264 456 l 264 451 l 264 447 q 251 207 264 296 q 188 59 239 118 q 28 0 138 0 l 28 28 q 118 89 89 28 q 153 235 147 150 q 160 456 160 321 l 160 860 z "},"k":{"ha":890,"x_min":42,"x_max":863,"o":"m 42 0 q 84 95 68 25 q 100 253 100 165 l 100 860 q 84 1017 100 947 q 42 1113 68 1088 l 263 1113 q 220 1017 236 1088 q 204 860 204 947 l 204 828 q 265 642 204 697 q 401 588 325 588 l 574 910 q 636 1078 636 1032 q 624 1113 636 1100 l 863 1113 q 772 1022 824 1086 q 674 869 719 957 l 513 569 q 744 253 689 510 q 783 81 767 138 q 826 0 800 25 l 606 0 q 638 69 626 21 q 650 182 650 118 q 647 246 650 224 q 401 560 601 554 q 277 585 331 560 q 204 653 224 611 l 204 253 q 220 95 204 165 q 263 0 236 25 l 42 0 z "},"ķ":{"ha":890,"x_min":42,"x_max":863,"o":"m 42 0 q 84 95 68 25 q 100 253 100 165 l 100 860 q 84 1017 100 947 q 42 1113 68 1088 l 263 1113 q 220 1017 236 1088 q 204 860 204 947 l 204 828 q 265 642 204 697 q 401 588 325 588 l 574 910 q 636 1078 636 1032 q 624 1113 636 1100 l 863 1113 q 772 1022 824 1086 q 674 869 719 957 l 513 569 q 744 253 689 510 q 783 81 767 138 q 826 0 800 25 l 606 0 q 638 69 626 21 q 650 182 650 118 q 647 246 650 224 q 401 560 601 554 q 277 585 331 560 q 204 653 224 611 l 204 253 q 220 95 204 165 q 263 0 236 25 l 42 0 m 376 -154 q 404 -83 399 -111 q 410 -3 410 -56 l 514 -3 l 404 -154 l 376 -154 z "},"l":{"ha":797,"x_min":42,"x_max":769,"o":"m 42 0 q 84 95 68 25 q 100 253 100 165 l 100 860 q 84 1017 100 947 q 42 1113 68 1088 l 263 1113 q 220 1017 236 1088 q 204 860 204 947 l 204 253 q 210 134 204 179 q 242 58 217 89 q 322 28 268 28 l 479 28 q 663 63 599 28 q 769 146 728 99 l 736 28 l 728 0 l 42 0 z "},"ĺ":{"ha":797,"x_min":42,"x_max":769,"o":"m 42 0 q 84 95 68 25 q 100 253 100 165 l 100 860 q 84 1017 100 947 q 42 1113 68 1088 l 263 1113 q 220 1017 236 1088 q 204 860 204 947 l 204 253 q 210 134 204 179 q 242 58 217 89 q 322 28 268 28 l 479 28 q 663 63 599 28 q 769 146 728 99 l 736 28 l 728 0 l 42 0 m 111 1151 q 121 1181 121 1165 q 97 1239 121 1201 l 201 1239 l 139 1151 l 111 1151 z "},"ľ":{"ha":797,"x_min":42,"x_max":769,"o":"m 42 0 q 84 95 68 25 q 100 253 100 165 l 100 860 q 84 1017 100 947 q 42 1113 68 1088 l 263 1113 q 220 1017 236 1088 q 204 860 204 947 l 204 253 q 210 134 204 179 q 242 58 217 89 q 322 28 268 28 l 479 28 q 663 63 599 28 q 769 146 728 99 l 736 28 l 728 0 l 42 0 m 635 874 q 628 917 635 897 q 604 961 622 938 l 692 961 l 663 874 l 635 874 z "},"ļ":{"ha":797,"x_min":42,"x_max":769,"o":"m 42 0 q 84 95 68 25 q 100 253 100 165 l 100 860 q 84 1017 100 947 q 42 1113 68 1088 l 263 1113 q 220 1017 236 1088 q 204 860 204 947 l 204 253 q 210 134 204 179 q 242 58 217 89 q 322 28 268 28 l 479 28 q 663 63 599 28 q 769 146 728 99 l 736 28 l 728 0 l 42 0 m 329 -154 q 357 -83 351 -111 q 363 -3 363 -56 l 467 -3 l 357 -154 l 329 -154 z "},"ł":{"ha":797,"x_min":42,"x_max":769,"o":"m 42 0 q 84 95 68 25 q 100 253 100 165 l 100 565 l 56 549 l 56 578 l 100 594 l 100 860 q 84 1017 100 947 q 42 1113 68 1088 l 263 1113 q 220 1017 236 1088 q 204 860 204 947 l 204 632 l 329 678 l 329 649 l 204 603 l 204 253 q 210 134 204 179 q 242 58 217 89 q 322 28 268 28 l 479 28 q 663 63 599 28 q 769 146 728 99 l 736 28 l 728 0 l 42 0 z "},"m":{"ha":1078,"x_min":35,"x_max":1036,"o":"m 179 876 q 125 988 153 940 l 125 253 q 141 95 125 165 q 183 0 157 25 l 39 0 q 81 95 65 25 q 97 253 97 165 l 97 1033 q 35 1113 61 1088 l 267 1113 q 249 1058 249 1096 q 260 983 249 1028 q 296 869 272 939 l 519 222 q 547 160 528 201 l 872 1113 l 1036 1113 q 994 1017 1010 1088 q 978 860 978 947 l 978 253 q 994 95 978 165 q 1036 0 1010 25 l 815 0 q 858 95 842 25 q 874 253 874 165 l 874 1031 l 565 126 q 660 0 614 43 l 483 0 l 179 876 z "},"n":{"ha":889,"x_min":35,"x_max":847,"o":"m 239 869 q 164 983 196 940 l 164 253 q 180 95 164 165 q 222 0 196 25 l 78 0 q 120 95 104 25 q 136 253 136 165 l 136 1019 q 35 1113 78 1094 l 276 1113 q 271 1088 271 1099 q 364 869 271 1025 l 761 207 l 761 860 q 745 1017 761 947 q 703 1113 729 1088 l 847 1113 q 805 1017 821 1088 q 789 860 789 947 l 789 0 l 761 0 l 239 869 z "},"ń":{"ha":889,"x_min":35,"x_max":847,"o":"m 239 869 q 164 983 196 940 l 164 253 q 180 95 164 165 q 222 0 196 25 l 78 0 q 120 95 104 25 q 136 253 136 165 l 136 1019 q 35 1113 78 1094 l 276 1113 q 271 1088 271 1099 q 364 869 271 1025 l 761 207 l 761 860 q 745 1017 761 947 q 703 1113 729 1088 l 847 1113 q 805 1017 821 1088 q 789 860 789 947 l 789 0 l 761 0 l 239 869 m 419 1158 q 429 1188 429 1172 q 406 1246 429 1208 l 510 1246 l 447 1158 l 419 1158 z "},"ň":{"ha":889,"x_min":35,"x_max":847,"o":"m 239 869 q 164 983 196 940 l 164 253 q 180 95 164 165 q 222 0 196 25 l 78 0 q 120 95 104 25 q 136 253 136 165 l 136 1019 q 35 1113 78 1094 l 276 1113 q 271 1088 271 1099 q 364 869 271 1025 l 761 207 l 761 860 q 745 1017 761 947 q 703 1113 729 1088 l 847 1113 q 805 1017 821 1088 q 789 860 789 947 l 789 0 l 761 0 l 239 869 m 389 1246 l 421 1246 l 458 1183 l 496 1246 l 528 1246 l 475 1157 l 442 1157 l 389 1246 z "},"ņ":{"ha":889,"x_min":35,"x_max":847,"o":"m 239 869 q 164 983 196 940 l 164 253 q 180 95 164 165 q 222 0 196 25 l 78 0 q 120 95 104 25 q 136 253 136 165 l 136 1019 q 35 1113 78 1094 l 276 1113 q 271 1088 271 1099 q 364 869 271 1025 l 761 207 l 761 860 q 745 1017 761 947 q 703 1113 729 1088 l 847 1113 q 805 1017 821 1088 q 789 860 789 947 l 789 0 l 761 0 l 239 869 m 375 -154 q 403 -83 397 -111 q 408 -3 408 -56 l 513 -3 l 403 -154 l 375 -154 z "},"ñ":{"ha":889,"x_min":35,"x_max":847,"o":"m 239 869 q 164 983 196 940 l 164 253 q 180 95 164 165 q 222 0 196 25 l 78 0 q 120 95 104 25 q 136 253 136 165 l 136 1019 q 35 1113 78 1094 l 276 1113 q 271 1088 271 1099 q 364 869 271 1025 l 761 207 l 761 860 q 745 1017 761 947 q 703 1113 729 1088 l 847 1113 q 805 1017 821 1088 q 789 860 789 947 l 789 0 l 761 0 l 239 869 m 536 1143 q 488 1156 506 1143 q 449 1197 471 1169 q 415 1235 431 1222 q 374 1247 400 1247 q 326 1221 336 1247 q 315 1160 315 1194 l 288 1160 q 313 1240 288 1218 q 374 1261 339 1261 q 424 1247 406 1261 q 464 1204 443 1232 q 499 1168 485 1179 q 535 1157 513 1157 q 585 1177 569 1157 q 600 1251 600 1197 l 628 1251 q 602 1168 628 1193 q 536 1143 576 1143 z "},"o":{"ha":958,"x_min":28,"x_max":931,"o":"m 478 -22 q 253 42 356 -22 q 89 238 150 107 q 28 557 28 369 q 89 874 28 744 q 253 1069 150 1004 q 478 1133 356 1133 q 703 1069 600 1133 q 869 874 807 1004 q 931 557 931 743 q 869 239 931 369 q 703 43 807 108 q 478 -22 600 -22 m 149 557 q 224 238 165 358 q 361 66 282 117 q 526 15 440 15 q 731 116 649 15 q 814 447 814 217 q 810 557 814 499 q 734 876 793 756 q 595 1046 675 996 q 429 1096 515 1096 q 226 996 308 1096 q 144 667 144 896 q 149 557 144 615 z "},"ó":{"ha":958,"x_min":28,"x_max":931,"o":"m 478 -22 q 253 42 356 -22 q 89 238 150 107 q 28 557 28 369 q 89 874 28 744 q 253 1069 150 1004 q 478 1133 356 1133 q 703 1069 600 1133 q 869 874 807 1004 q 931 557 931 743 q 869 239 931 369 q 703 43 807 108 q 478 -22 600 -22 m 149 557 q 224 238 165 358 q 361 66 282 117 q 526 15 440 15 q 731 116 649 15 q 814 447 814 217 q 810 557 814 499 q 734 876 793 756 q 595 1046 675 996 q 429 1096 515 1096 q 226 996 308 1096 q 144 667 144 896 q 149 557 144 615 m 440 1158 q 450 1188 450 1172 q 426 1246 450 1208 l 531 1246 l 468 1158 l 440 1158 z "},"ô":{"ha":958,"x_min":28,"x_max":931,"o":"m 478 -22 q 253 42 356 -22 q 89 238 150 107 q 28 557 28 369 q 89 874 28 744 q 253 1069 150 1004 q 478 1133 356 1133 q 703 1069 600 1133 q 869 874 807 1004 q 931 557 931 743 q 869 239 931 369 q 703 43 807 108 q 478 -22 600 -22 m 149 557 q 224 238 165 358 q 361 66 282 117 q 526 15 440 15 q 731 116 649 15 q 814 447 814 217 q 810 557 814 499 q 734 876 793 756 q 595 1046 675 996 q 429 1096 515 1096 q 226 996 308 1096 q 144 667 144 896 q 149 557 144 615 m 463 1246 l 496 1246 l 549 1157 l 517 1157 l 479 1219 l 442 1157 l 410 1157 l 463 1246 z "},"ö":{"ha":958,"x_min":28,"x_max":931,"o":"m 478 -22 q 253 42 356 -22 q 89 238 150 107 q 28 557 28 369 q 89 874 28 744 q 253 1069 150 1004 q 478 1133 356 1133 q 703 1069 600 1133 q 869 874 807 1004 q 931 557 931 743 q 869 239 931 369 q 703 43 807 108 q 478 -22 600 -22 m 149 557 q 224 238 165 358 q 361 66 282 117 q 526 15 440 15 q 731 116 649 15 q 814 447 814 217 q 810 557 814 499 q 734 876 793 756 q 595 1046 675 996 q 429 1096 515 1096 q 226 996 308 1096 q 144 667 144 896 q 149 557 144 615 m 438 1167 q 413 1177 424 1167 q 403 1201 403 1188 q 413 1226 403 1217 q 438 1236 424 1236 q 462 1226 451 1236 q 472 1201 472 1215 q 462 1177 472 1188 q 438 1167 451 1167 m 556 1201 q 566 1226 556 1217 q 590 1236 576 1236 q 615 1226 604 1236 q 625 1201 625 1215 q 615 1177 625 1188 q 590 1167 604 1167 q 566 1177 576 1167 q 556 1201 556 1188 z "},"ò":{"ha":958,"x_min":28,"x_max":931,"o":"m 478 -22 q 253 42 356 -22 q 89 238 150 107 q 28 557 28 369 q 89 874 28 744 q 253 1069 150 1004 q 478 1133 356 1133 q 703 1069 600 1133 q 869 874 807 1004 q 931 557 931 743 q 869 239 931 369 q 703 43 807 108 q 478 -22 600 -22 m 149 557 q 224 238 165 358 q 361 66 282 117 q 526 15 440 15 q 731 116 649 15 q 814 447 814 217 q 810 557 814 499 q 734 876 793 756 q 595 1046 675 996 q 429 1096 515 1096 q 226 996 308 1096 q 144 667 144 896 q 149 557 144 615 m 489 1158 l 426 1246 l 531 1246 q 507 1188 507 1208 q 517 1158 507 1172 l 489 1158 z "},"ő":{"ha":958,"x_min":28,"x_max":931,"o":"m 478 -22 q 253 42 356 -22 q 89 238 150 107 q 28 557 28 369 q 89 874 28 744 q 253 1069 150 1004 q 478 1133 356 1133 q 703 1069 600 1133 q 869 874 807 1004 q 931 557 931 743 q 869 239 931 369 q 703 43 807 108 q 478 -22 600 -22 m 149 557 q 224 238 165 358 q 361 66 282 117 q 526 15 440 15 q 731 116 649 15 q 814 447 814 217 q 810 557 814 499 q 734 876 793 756 q 595 1046 675 996 q 429 1096 515 1096 q 226 996 308 1096 q 144 667 144 896 q 149 557 144 615 m 379 1158 q 389 1188 389 1172 q 365 1246 389 1208 l 469 1246 l 407 1158 l 379 1158 m 593 1246 l 531 1158 l 503 1158 q 513 1188 513 1172 q 489 1246 513 1208 l 593 1246 z "},"ō":{"ha":958,"x_min":28,"x_max":931,"o":"m 478 -22 q 253 42 356 -22 q 89 238 150 107 q 28 557 28 369 q 89 874 28 744 q 253 1069 150 1004 q 478 1133 356 1133 q 703 1069 600 1133 q 869 874 807 1004 q 931 557 931 743 q 869 239 931 369 q 703 43 807 108 q 478 -22 600 -22 m 149 557 q 224 238 165 358 q 361 66 282 117 q 526 15 440 15 q 731 116 649 15 q 814 447 814 217 q 810 557 814 499 q 734 876 793 756 q 595 1046 675 996 q 429 1096 515 1096 q 226 996 308 1096 q 144 667 144 896 q 149 557 144 615 m 342 1218 l 615 1218 l 615 1190 l 342 1190 l 342 1218 z "},"ø":{"ha":958,"x_min":28,"x_max":931,"o":"m 256 40 q 89 238 150 107 q 28 557 28 369 q 89 874 28 744 q 253 1069 150 1004 q 478 1133 356 1133 q 690 1076 593 1133 l 706 1111 l 736 1111 l 715 1061 q 873 865 815 992 q 931 557 931 738 q 869 239 931 369 q 703 43 807 108 q 478 -22 600 -22 q 281 26 374 -22 l 269 0 l 239 0 l 256 40 m 149 557 q 293 128 171 271 l 656 993 q 548 1072 607 1047 q 429 1096 489 1096 q 226 996 308 1096 q 144 667 144 896 q 149 557 144 615 m 314 106 q 526 15 404 15 q 731 116 649 15 q 814 447 814 217 q 810 557 814 499 q 676 969 788 828 l 314 106 z "},"õ":{"ha":958,"x_min":28,"x_max":931,"o":"m 478 -22 q 253 42 356 -22 q 89 238 150 107 q 28 557 28 369 q 89 874 28 744 q 253 1069 150 1004 q 478 1133 356 1133 q 703 1069 600 1133 q 869 874 807 1004 q 931 557 931 743 q 869 239 931 369 q 703 43 807 108 q 478 -22 600 -22 m 149 557 q 224 238 165 358 q 361 66 282 117 q 526 15 440 15 q 731 116 649 15 q 814 447 814 217 q 810 557 814 499 q 734 876 793 756 q 595 1046 675 996 q 429 1096 515 1096 q 226 996 308 1096 q 144 667 144 896 q 149 557 144 615 m 557 1143 q 509 1156 526 1143 q 469 1197 492 1169 q 436 1235 451 1222 q 394 1247 421 1247 q 347 1221 357 1247 q 336 1160 336 1194 l 308 1160 q 334 1240 308 1218 q 394 1261 360 1261 q 445 1247 426 1261 q 485 1204 464 1232 q 519 1168 506 1179 q 556 1157 533 1157 q 606 1177 590 1157 q 621 1251 621 1197 l 649 1251 q 623 1168 649 1193 q 557 1143 597 1143 z "},"œ":{"ha":1367,"x_min":43,"x_max":1339,"o":"m 493 -22 q 268 42 371 -22 q 104 238 165 107 q 43 557 43 369 q 104 874 43 744 q 268 1069 165 1004 q 493 1133 371 1133 q 625 1113 563 1133 l 1311 1113 l 1311 1004 q 1222 1063 1275 1042 q 1058 1085 1169 1085 l 904 1085 q 826 1054 851 1085 q 794 978 800 1024 q 788 860 788 933 l 788 574 q 851 631 810 614 q 957 649 893 649 l 1003 649 q 1156 671 1085 649 q 1256 722 1228 693 l 1256 547 q 1156 599 1228 576 q 1003 621 1085 621 l 957 621 q 828 580 868 621 q 788 438 788 539 l 788 253 q 794 134 788 179 q 826 58 800 89 q 906 28 851 28 l 1049 28 q 1233 63 1168 28 q 1339 146 1297 99 l 1306 28 l 1297 0 l 629 0 q 493 -22 567 -22 m 164 557 q 239 238 181 358 q 376 66 297 117 q 542 15 456 15 q 649 38 599 15 q 674 131 665 74 q 683 253 683 188 l 683 860 q 672 993 683 929 q 565 1072 624 1047 q 444 1096 506 1096 q 242 996 324 1096 q 160 667 160 896 q 164 557 160 615 z "},"p":{"ha":788,"x_min":42,"x_max":761,"o":"m 42 0 q 84 95 68 25 q 100 253 100 165 l 100 860 q 84 1017 100 947 q 42 1113 68 1088 l 193 1113 q 243 1117 219 1113 q 272 1122 267 1121 q 363 1133 325 1133 q 565 1092 475 1133 q 708 967 656 1050 q 761 763 761 883 q 716 582 761 661 q 594 459 671 503 q 431 415 518 415 q 286 449 347 415 q 204 526 225 482 l 204 253 q 220 95 204 165 q 263 0 236 25 l 42 0 m 204 701 q 238 553 204 611 q 322 469 271 494 q 431 443 374 443 q 539 479 492 443 q 612 581 586 515 q 638 729 638 646 q 632 804 638 751 q 527 1036 610 967 q 347 1106 444 1106 q 253 1070 285 1106 q 213 984 222 1035 q 204 861 204 933 l 204 701 z "},"þ":{"ha":788,"x_min":42,"x_max":761,"o":"m 42 0 q 84 95 68 25 q 100 253 100 165 l 100 860 q 84 1017 100 947 q 42 1113 68 1088 l 263 1113 q 214 989 229 1082 q 247 993 229 990 q 274 997 264 996 q 363 1008 324 1008 q 565 967 475 1008 q 708 842 656 925 q 761 638 761 758 q 716 457 761 536 q 594 334 671 378 q 431 290 518 290 q 286 324 347 290 q 204 401 225 357 l 204 253 q 220 95 204 165 q 263 0 236 25 l 42 0 m 204 576 q 238 428 204 486 q 322 344 271 369 q 431 318 374 318 q 539 354 492 318 q 612 456 586 390 q 638 604 638 521 q 632 679 638 626 q 527 911 610 842 q 347 981 444 981 q 253 945 285 981 q 213 859 222 910 q 204 736 204 808 l 204 576 z "},"q":{"ha":958,"x_min":28,"x_max":931,"o":"m 478 -22 q 253 42 356 -22 q 89 238 150 107 q 28 557 28 369 q 89 874 28 744 q 253 1069 150 1004 q 478 1133 356 1133 q 703 1069 600 1133 q 869 874 807 1004 q 931 557 931 743 q 839 182 931 325 q 600 -4 747 39 q 663 -120 628 -69 q 728 -199 699 -171 l 551 -199 l 492 -22 l 478 -22 m 149 557 q 261 168 169 296 q 476 19 353 40 l 456 81 q 389 217 426 157 q 321 306 351 276 l 550 306 q 532 247 532 288 q 575 63 532 185 l 588 25 l 589 22 q 751 147 689 46 q 814 447 814 249 q 810 557 814 499 q 734 876 793 756 q 595 1046 675 996 q 429 1096 515 1096 q 226 996 308 1096 q 144 667 144 896 q 149 557 144 615 z "},"r":{"ha":851,"x_min":42,"x_max":824,"o":"m 42 0 q 84 95 68 25 q 100 253 100 165 l 100 860 q 84 1017 100 947 q 42 1113 68 1088 l 193 1113 q 243 1117 219 1113 q 272 1122 267 1121 q 363 1133 325 1133 q 563 1091 472 1133 q 708 971 654 1049 q 761 792 761 893 q 693 587 761 669 q 513 476 625 504 q 666 390 610 454 q 747 218 722 325 l 767 144 q 795 49 783 81 q 824 0 807 17 l 606 0 q 640 63 626 19 q 653 160 653 106 q 642 253 653 201 q 560 406 617 351 q 401 463 504 460 q 277 488 331 463 q 204 556 224 514 l 204 253 q 220 95 204 165 q 263 0 236 25 l 42 0 m 204 731 q 265 545 204 600 q 401 490 325 490 q 574 563 510 490 q 638 761 638 636 q 632 833 638 800 q 573 990 619 929 q 466 1078 526 1051 q 347 1106 406 1106 q 253 1070 285 1106 q 213 984 222 1035 q 204 861 204 933 l 204 731 z "},"ŕ":{"ha":851,"x_min":42,"x_max":824,"o":"m 42 0 q 84 95 68 25 q 100 253 100 165 l 100 860 q 84 1017 100 947 q 42 1113 68 1088 l 193 1113 q 243 1117 219 1113 q 272 1122 267 1121 q 363 1133 325 1133 q 563 1091 472 1133 q 708 971 654 1049 q 761 792 761 893 q 693 587 761 669 q 513 476 625 504 q 666 390 610 454 q 747 218 722 325 l 767 144 q 795 49 783 81 q 824 0 807 17 l 606 0 q 640 63 626 19 q 653 160 653 106 q 642 253 653 201 q 560 406 617 351 q 401 463 504 460 q 277 488 331 463 q 204 556 224 514 l 204 253 q 220 95 204 165 q 263 0 236 25 l 42 0 m 204 731 q 265 545 204 600 q 401 490 325 490 q 574 563 510 490 q 638 761 638 636 q 632 833 638 800 q 573 990 619 929 q 466 1078 526 1051 q 347 1106 406 1106 q 253 1070 285 1106 q 213 984 222 1035 q 204 861 204 933 l 204 731 m 342 1160 q 351 1189 351 1174 q 328 1247 351 1210 l 432 1247 l 369 1160 l 342 1160 z "},"ř":{"ha":851,"x_min":42,"x_max":824,"o":"m 42 0 q 84 95 68 25 q 100 253 100 165 l 100 860 q 84 1017 100 947 q 42 1113 68 1088 l 193 1113 q 243 1117 219 1113 q 272 1122 267 1121 q 363 1133 325 1133 q 563 1091 472 1133 q 708 971 654 1049 q 761 792 761 893 q 693 587 761 669 q 513 476 625 504 q 666 390 610 454 q 747 218 722 325 l 767 144 q 795 49 783 81 q 824 0 807 17 l 606 0 q 640 63 626 19 q 653 160 653 106 q 642 253 653 201 q 560 406 617 351 q 401 463 504 460 q 277 488 331 463 q 204 556 224 514 l 204 253 q 220 95 204 165 q 263 0 236 25 l 42 0 m 204 731 q 265 545 204 600 q 401 490 325 490 q 574 563 510 490 q 638 761 638 636 q 632 833 638 800 q 573 990 619 929 q 466 1078 526 1051 q 347 1106 406 1106 q 253 1070 285 1106 q 213 984 222 1035 q 204 861 204 933 l 204 731 m 311 1247 l 343 1247 l 381 1185 l 418 1247 l 450 1247 l 397 1158 l 364 1158 l 311 1247 z "},"ŗ":{"ha":851,"x_min":42,"x_max":824,"o":"m 42 0 q 84 95 68 25 q 100 253 100 165 l 100 860 q 84 1017 100 947 q 42 1113 68 1088 l 193 1113 q 243 1117 219 1113 q 272 1122 267 1121 q 363 1133 325 1133 q 563 1091 472 1133 q 708 971 654 1049 q 761 792 761 893 q 693 587 761 669 q 513 476 625 504 q 666 390 610 454 q 747 218 722 325 l 767 144 q 795 49 783 81 q 824 0 807 17 l 606 0 q 640 63 626 19 q 653 160 653 106 q 642 253 653 201 q 560 406 617 351 q 401 463 504 460 q 277 488 331 463 q 204 556 224 514 l 204 253 q 220 95 204 165 q 263 0 236 25 l 42 0 m 204 731 q 265 545 204 600 q 401 490 325 490 q 574 563 510 490 q 638 761 638 636 q 632 833 638 800 q 573 990 619 929 q 466 1078 526 1051 q 347 1106 406 1106 q 253 1070 285 1106 q 213 984 222 1035 q 204 861 204 933 l 204 731 m 357 -154 q 385 -83 379 -111 q 390 -3 390 -56 l 494 -3 l 385 -154 l 357 -154 z "},"s":{"ha":788,"x_min":28,"x_max":760,"o":"m 381 -22 q 151 32 243 -22 q 28 186 60 86 l 140 329 q 173 161 140 235 q 265 47 206 88 q 400 6 324 6 q 520 38 463 6 q 613 131 578 71 q 649 271 649 192 q 614 393 649 343 q 527 476 579 443 q 386 550 475 508 q 228 636 288 597 q 126 739 168 675 q 85 897 85 803 q 126 1022 85 968 q 238 1105 168 1076 q 390 1133 308 1133 q 497 1119 453 1133 q 593 1081 540 1106 q 655 1053 629 1063 q 710 1044 681 1044 l 613 922 q 547 1056 601 1007 q 397 1106 492 1106 q 299 1085 346 1106 q 222 1027 251 1065 q 192 939 192 989 q 226 811 192 863 q 313 728 261 760 q 453 657 364 697 q 615 571 554 610 q 717 463 675 532 q 760 289 760 394 q 708 124 760 194 q 571 15 657 53 q 381 -22 485 -22 z "},"ś":{"ha":788,"x_min":28,"x_max":760,"o":"m 381 -22 q 151 32 243 -22 q 28 186 60 86 l 140 329 q 173 161 140 235 q 265 47 206 88 q 400 6 324 6 q 520 38 463 6 q 613 131 578 71 q 649 271 649 192 q 614 393 649 343 q 527 476 579 443 q 386 550 475 508 q 228 636 288 597 q 126 739 168 675 q 85 897 85 803 q 126 1022 85 968 q 238 1105 168 1076 q 390 1133 308 1133 q 497 1119 453 1133 q 593 1081 540 1106 q 655 1053 629 1063 q 710 1044 681 1044 l 613 922 q 547 1056 601 1007 q 397 1106 492 1106 q 299 1085 346 1106 q 222 1027 251 1065 q 192 939 192 989 q 226 811 192 863 q 313 728 261 760 q 453 657 364 697 q 615 571 554 610 q 717 463 675 532 q 760 289 760 394 q 708 124 760 194 q 571 15 657 53 q 381 -22 485 -22 m 356 1158 q 365 1188 365 1172 q 342 1246 365 1208 l 446 1246 l 383 1158 l 356 1158 z "},"š":{"ha":788,"x_min":28,"x_max":760,"o":"m 381 -22 q 151 32 243 -22 q 28 186 60 86 l 140 329 q 173 161 140 235 q 265 47 206 88 q 400 6 324 6 q 520 38 463 6 q 613 131 578 71 q 649 271 649 192 q 614 393 649 343 q 527 476 579 443 q 386 550 475 508 q 228 636 288 597 q 126 739 168 675 q 85 897 85 803 q 126 1022 85 968 q 238 1105 168 1076 q 390 1133 308 1133 q 497 1119 453 1133 q 593 1081 540 1106 q 655 1053 629 1063 q 710 1044 681 1044 l 613 922 q 547 1056 601 1007 q 397 1106 492 1106 q 299 1085 346 1106 q 222 1027 251 1065 q 192 939 192 989 q 226 811 192 863 q 313 728 261 760 q 453 657 364 697 q 615 571 554 610 q 717 463 675 532 q 760 289 760 394 q 708 124 760 194 q 571 15 657 53 q 381 -22 485 -22 m 325 1246 l 357 1246 l 394 1183 l 432 1246 l 464 1246 l 411 1157 l 378 1157 l 325 1246 z "},"ş":{"ha":788,"x_min":28,"x_max":760,"o":"m 381 -22 q 151 32 243 -22 q 28 186 60 86 l 140 329 q 173 161 140 235 q 265 47 206 88 q 400 6 324 6 q 520 38 463 6 q 613 131 578 71 q 649 271 649 192 q 614 393 649 343 q 527 476 579 443 q 386 550 475 508 q 228 636 288 597 q 126 739 168 675 q 85 897 85 803 q 126 1022 85 968 q 238 1105 168 1076 q 390 1133 308 1133 q 497 1119 453 1133 q 593 1081 540 1106 q 655 1053 629 1063 q 710 1044 681 1044 l 613 922 q 547 1056 601 1007 q 397 1106 492 1106 q 299 1085 346 1106 q 222 1027 251 1065 q 192 939 192 989 q 226 811 192 863 q 313 728 261 760 q 453 657 364 697 q 615 571 554 610 q 717 463 675 532 q 760 289 760 394 q 708 124 760 194 q 571 15 657 53 q 381 -22 485 -22 m 367 -22 l 381 -22 l 358 -89 q 400 -82 379 -82 q 442 -92 425 -82 q 458 -121 458 -101 q 417 -167 458 -153 q 331 -182 376 -182 l 331 -168 q 386 -161 361 -168 q 411 -135 411 -154 q 399 -114 411 -122 q 372 -106 388 -106 q 351 -110 363 -106 l 338 -110 l 367 -22 z "},"ș":{"ha":788,"x_min":28,"x_max":760,"o":"m 325 -154 q 352 -89 346 -115 q 358 -22 358 -62 q 144 38 229 -17 q 28 186 58 92 l 140 329 q 173 161 140 235 q 265 47 206 88 q 400 6 324 6 q 520 38 463 6 q 613 131 578 71 q 649 271 649 192 q 614 393 649 343 q 527 476 579 443 q 386 550 475 508 q 228 636 288 597 q 126 739 168 675 q 85 897 85 803 q 126 1022 85 968 q 238 1105 168 1076 q 390 1133 308 1133 q 497 1119 453 1133 q 593 1081 540 1106 q 655 1053 629 1063 q 710 1044 681 1044 l 613 922 q 547 1056 601 1007 q 397 1106 492 1106 q 299 1085 346 1106 q 222 1027 251 1065 q 192 939 192 989 q 226 811 192 863 q 313 728 261 760 q 453 657 364 697 q 615 571 554 610 q 717 463 675 532 q 760 289 760 394 q 673 83 760 165 q 451 -18 586 1 l 353 -154 l 325 -154 z "},"ß":{"ha":788,"x_min":42,"x_max":760,"o":"m 100 1042 q 120 1092 100 1072 q 171 1113 140 1113 l 193 1113 q 275 1124 228 1113 q 302 1129 281 1125 q 347 1133 324 1133 q 503 1104 428 1133 q 631 1005 579 1075 q 682 818 682 935 q 626 646 682 708 q 481 561 569 583 q 678 456 596 533 q 760 253 760 378 q 650 34 760 90 q 403 -22 540 -22 q 283 -11 344 -22 l 283 54 q 351 17 314 29 q 421 6 388 6 q 579 51 504 6 q 654 225 654 96 q 651 274 654 238 q 553 483 633 419 q 378 550 472 547 q 321 558 351 550 q 265 582 290 567 l 265 610 q 332 584 304 590 q 396 578 360 578 q 479 601 438 578 q 548 674 521 624 q 575 800 575 724 q 571 860 575 829 q 485 1060 550 1015 q 342 1106 419 1106 q 230 1040 256 1106 q 204 861 204 974 l 204 0 l 42 0 q 84 95 68 25 q 100 253 100 165 l 100 1042 z "},"t":{"ha":999,"x_min":35,"x_max":964,"o":"m 389 0 q 431 95 415 25 q 447 253 447 165 l 447 860 q 441 978 447 933 q 409 1054 435 1024 q 331 1085 383 1085 l 325 1085 q 158 1056 218 1085 q 70 1000 99 1026 q 35 967 42 974 l 68 1085 l 76 1113 l 922 1113 l 931 1085 l 964 967 q 921 1007 957 974 q 821 1063 885 1040 q 674 1085 757 1085 l 668 1085 q 590 1054 615 1085 q 558 978 564 1024 q 551 860 551 933 l 551 253 q 567 95 551 165 q 610 0 583 25 l 389 0 z "},"ť":{"ha":999,"x_min":35,"x_max":964,"o":"m 389 0 q 431 95 415 25 q 447 253 447 165 l 447 860 q 441 978 447 933 q 409 1054 435 1024 q 331 1085 383 1085 l 325 1085 q 158 1056 218 1085 q 70 1000 99 1026 q 35 967 42 974 l 68 1085 l 76 1113 l 922 1113 l 931 1085 l 964 967 q 921 1007 957 974 q 821 1063 885 1040 q 674 1085 757 1085 l 668 1085 q 590 1054 615 1085 q 558 978 564 1024 q 551 860 551 933 l 551 253 q 567 95 551 165 q 610 0 583 25 l 389 0 m 894 790 q 888 834 894 814 q 864 878 882 854 l 951 878 l 922 790 l 894 790 z "},"ţ":{"ha":999,"x_min":35,"x_max":964,"o":"m 389 0 q 431 95 415 25 q 447 253 447 165 l 447 860 q 441 978 447 933 q 409 1054 435 1024 q 331 1085 383 1085 l 325 1085 q 158 1056 218 1085 q 70 1000 99 1026 q 35 967 42 974 l 68 1085 l 76 1113 l 922 1113 l 931 1085 l 964 967 q 921 1007 957 974 q 821 1063 885 1040 q 674 1085 757 1085 l 668 1085 q 590 1054 615 1085 q 558 978 564 1024 q 551 860 551 933 l 551 253 q 567 95 551 165 q 610 0 583 25 l 389 0 m 472 -7 l 486 -7 l 464 -74 q 506 -67 485 -67 q 547 -76 531 -67 q 564 -106 564 -86 q 523 -152 564 -137 q 436 -167 482 -167 l 436 -153 q 492 -146 467 -153 q 517 -119 517 -139 q 505 -99 517 -107 q 478 -90 493 -90 q 457 -94 468 -90 l 443 -94 l 472 -7 z "},"ț":{"ha":999,"x_min":35,"x_max":964,"o":"m 389 0 q 431 95 415 25 q 447 253 447 165 l 447 860 q 441 978 447 933 q 409 1054 435 1024 q 331 1085 383 1085 l 325 1085 q 158 1056 218 1085 q 70 1000 99 1026 q 35 967 42 974 l 68 1085 l 76 1113 l 922 1113 l 931 1085 l 964 967 q 921 1007 957 974 q 821 1063 885 1040 q 674 1085 757 1085 l 668 1085 q 590 1054 615 1085 q 558 978 564 1024 q 551 860 551 933 l 551 253 q 567 95 551 165 q 610 0 583 25 l 558 0 l 458 -139 l 431 -139 q 458 -71 451 -97 q 464 0 464 -44 l 389 0 z "},"u":{"ha":922,"x_min":42,"x_max":894,"o":"m 100 860 q 84 1017 100 947 q 42 1113 68 1088 l 263 1113 q 220 1017 236 1088 q 204 860 204 947 l 204 371 q 483 6 204 6 q 670 39 600 6 q 774 152 740 72 q 808 371 808 232 l 808 860 q 792 1017 808 947 q 750 1113 776 1088 l 894 1113 q 852 1017 868 1088 q 836 860 836 947 l 836 371 l 836 358 q 793 126 835 210 q 676 10 751 43 q 483 -22 600 -22 q 100 358 106 -22 l 100 860 z "},"ú":{"ha":922,"x_min":42,"x_max":894,"o":"m 100 860 q 84 1017 100 947 q 42 1113 68 1088 l 263 1113 q 220 1017 236 1088 q 204 860 204 947 l 204 371 q 483 6 204 6 q 670 39 600 6 q 774 152 740 72 q 808 371 808 232 l 808 860 q 792 1017 808 947 q 750 1113 776 1088 l 894 1113 q 852 1017 868 1088 q 836 860 836 947 l 836 371 l 836 358 q 793 126 835 210 q 676 10 751 43 q 483 -22 600 -22 q 100 358 106 -22 l 100 860 m 476 1161 q 486 1190 486 1175 q 463 1249 486 1211 l 567 1249 l 504 1161 l 476 1161 z "},"û":{"ha":922,"x_min":42,"x_max":894,"o":"m 100 860 q 84 1017 100 947 q 42 1113 68 1088 l 263 1113 q 220 1017 236 1088 q 204 860 204 947 l 204 371 q 483 6 204 6 q 670 39 600 6 q 774 152 740 72 q 808 371 808 232 l 808 860 q 792 1017 808 947 q 750 1113 776 1088 l 894 1113 q 852 1017 868 1088 q 836 860 836 947 l 836 371 l 836 358 q 793 126 835 210 q 676 10 751 43 q 483 -22 600 -22 q 100 358 106 -22 l 100 860 m 499 1249 l 532 1249 l 585 1160 l 553 1160 l 515 1222 l 478 1160 l 446 1160 l 499 1249 z "},"ü":{"ha":922,"x_min":42,"x_max":894,"o":"m 100 860 q 84 1017 100 947 q 42 1113 68 1088 l 263 1113 q 220 1017 236 1088 q 204 860 204 947 l 204 371 q 483 6 204 6 q 670 39 600 6 q 774 152 740 72 q 808 371 808 232 l 808 860 q 792 1017 808 947 q 750 1113 776 1088 l 894 1113 q 852 1017 868 1088 q 836 860 836 947 l 836 371 l 836 358 q 793 126 835 210 q 676 10 751 43 q 483 -22 600 -22 q 100 358 106 -22 l 100 860 m 474 1169 q 449 1180 460 1169 q 439 1204 439 1190 q 449 1229 439 1219 q 474 1239 460 1239 q 498 1228 488 1239 q 508 1204 508 1218 q 498 1180 508 1190 q 474 1169 488 1169 m 592 1204 q 602 1229 592 1219 q 626 1239 613 1239 q 651 1228 640 1239 q 661 1204 661 1218 q 651 1180 661 1190 q 626 1169 640 1169 q 602 1180 613 1169 q 592 1204 592 1190 z "},"ù":{"ha":922,"x_min":42,"x_max":894,"o":"m 100 860 q 84 1017 100 947 q 42 1113 68 1088 l 263 1113 q 220 1017 236 1088 q 204 860 204 947 l 204 371 q 483 6 204 6 q 670 39 600 6 q 774 152 740 72 q 808 371 808 232 l 808 860 q 792 1017 808 947 q 750 1113 776 1088 l 894 1113 q 852 1017 868 1088 q 836 860 836 947 l 836 371 l 836 358 q 793 126 835 210 q 676 10 751 43 q 483 -22 600 -22 q 100 358 106 -22 l 100 860 m 525 1161 l 463 1249 l 567 1249 q 543 1190 543 1211 q 553 1161 543 1175 l 525 1161 z "},"ű":{"ha":922,"x_min":42,"x_max":894,"o":"m 100 860 q 84 1017 100 947 q 42 1113 68 1088 l 263 1113 q 220 1017 236 1088 q 204 860 204 947 l 204 371 q 483 6 204 6 q 670 39 600 6 q 774 152 740 72 q 808 371 808 232 l 808 860 q 792 1017 808 947 q 750 1113 776 1088 l 894 1113 q 852 1017 868 1088 q 836 860 836 947 l 836 371 l 836 358 q 793 126 835 210 q 676 10 751 43 q 483 -22 600 -22 q 100 358 106 -22 l 100 860 m 415 1161 q 425 1190 425 1175 q 401 1249 425 1211 l 506 1249 l 443 1161 l 415 1161 m 629 1249 l 567 1161 l 539 1161 q 549 1190 549 1175 q 525 1249 549 1211 l 629 1249 z "},"ū":{"ha":922,"x_min":42,"x_max":894,"o":"m 100 860 q 84 1017 100 947 q 42 1113 68 1088 l 263 1113 q 220 1017 236 1088 q 204 860 204 947 l 204 371 q 483 6 204 6 q 670 39 600 6 q 774 152 740 72 q 808 371 808 232 l 808 860 q 792 1017 808 947 q 750 1113 776 1088 l 894 1113 q 852 1017 868 1088 q 836 860 836 947 l 836 371 l 836 358 q 793 126 835 210 q 676 10 751 43 q 483 -22 600 -22 q 100 358 106 -22 l 100 860 m 378 1221 l 651 1221 l 651 1193 l 378 1193 l 378 1221 z "},"ų":{"ha":922,"x_min":42,"x_max":894,"o":"m 100 860 q 84 1017 100 947 q 42 1113 68 1088 l 263 1113 q 220 1017 236 1088 q 204 860 204 947 l 204 371 q 483 6 204 6 q 670 39 600 6 q 774 152 740 72 q 808 371 808 232 l 808 860 q 792 1017 808 947 q 750 1113 776 1088 l 894 1113 q 852 1017 868 1088 q 836 860 836 947 l 836 371 l 836 358 q 793 126 835 210 q 676 10 751 43 q 483 -22 600 -22 l 476 -22 l 476 -26 q 429 -82 429 -26 q 510 -143 429 -143 l 510 -157 q 422 -140 463 -157 q 382 -78 382 -122 q 418 -19 382 -39 q 100 358 106 13 l 100 860 z "},"ů":{"ha":922,"x_min":42,"x_max":894,"o":"m 100 860 q 84 1017 100 947 q 42 1113 68 1088 l 263 1113 q 220 1017 236 1088 q 204 860 204 947 l 204 371 q 483 6 204 6 q 670 39 600 6 q 774 152 740 72 q 808 371 808 232 l 808 860 q 792 1017 808 947 q 750 1113 776 1088 l 894 1113 q 852 1017 868 1088 q 836 860 836 947 l 836 371 l 836 358 q 793 126 835 210 q 676 10 751 43 q 483 -22 600 -22 q 100 358 106 -22 l 100 860 m 514 1150 q 474 1167 490 1150 q 457 1208 457 1183 q 474 1249 457 1233 q 514 1265 490 1265 q 556 1249 539 1265 q 572 1208 572 1233 q 556 1167 572 1183 q 514 1150 539 1150 m 481 1208 q 490 1183 481 1193 q 514 1174 500 1174 q 539 1183 529 1174 q 549 1208 549 1193 q 539 1232 549 1222 q 514 1242 529 1242 q 490 1232 500 1242 q 481 1208 481 1222 z "},"ũ":{"ha":922,"x_min":42,"x_max":894,"o":"m 100 860 q 84 1017 100 947 q 42 1113 68 1088 l 263 1113 q 220 1017 236 1088 q 204 860 204 947 l 204 371 q 483 6 204 6 q 670 39 600 6 q 774 152 740 72 q 808 371 808 232 l 808 860 q 792 1017 808 947 q 750 1113 776 1088 l 894 1113 q 852 1017 868 1088 q 836 860 836 947 l 836 371 l 836 358 q 793 126 835 210 q 676 10 751 43 q 483 -22 600 -22 q 100 358 106 -22 l 100 860 m 593 1146 q 545 1159 563 1146 q 506 1200 528 1172 q 472 1238 488 1225 q 431 1250 457 1250 q 383 1224 393 1250 q 372 1163 372 1197 l 344 1163 q 370 1242 344 1221 q 431 1264 396 1264 q 481 1249 463 1264 q 521 1207 500 1235 q 556 1171 542 1182 q 592 1160 569 1160 q 642 1180 626 1160 q 657 1254 657 1200 l 685 1254 q 659 1171 685 1196 q 593 1146 633 1146 z "},"v":{"ha":1003,"x_min":28,"x_max":1003,"o":"m 172 878 q 99 1019 140 956 q 28 1113 58 1083 l 260 1113 q 242 1058 242 1096 q 253 983 242 1028 q 289 869 265 939 l 519 235 q 564 140 539 188 l 838 901 q 872 1060 872 1008 q 856 1113 872 1096 l 1003 1113 q 928 1017 969 1081 q 854 869 886 953 l 582 110 q 664 0 626 35 l 492 0 l 172 878 z "},"w":{"ha":1440,"x_min":28,"x_max":1440,"o":"m 172 878 q 99 1019 140 956 q 28 1113 58 1083 l 260 1113 q 242 1058 242 1096 q 253 983 242 1028 q 289 869 265 939 l 519 235 q 564 140 539 188 l 719 575 l 610 878 q 537 1019 578 956 q 465 1113 496 1083 l 697 1113 q 679 1058 679 1096 q 691 983 679 1028 q 726 869 703 939 l 776 732 l 838 901 q 872 1060 872 1008 q 856 1113 872 1096 l 1003 1113 q 928 1017 969 1081 q 854 869 886 953 l 790 692 l 957 235 q 1001 140 976 188 l 1275 901 q 1310 1060 1310 1008 q 1293 1113 1310 1096 l 1440 1113 q 1365 1017 1407 1081 q 1292 869 1324 953 l 1019 110 q 1101 0 1064 35 l 929 0 l 735 535 l 582 110 q 664 0 626 35 l 492 0 l 172 878 z "},"ẃ":{"ha":1440,"x_min":28,"x_max":1440,"o":"m 172 878 q 99 1019 140 956 q 28 1113 58 1083 l 260 1113 q 242 1058 242 1096 q 253 983 242 1028 q 289 869 265 939 l 519 235 q 564 140 539 188 l 719 575 l 610 878 q 537 1019 578 956 q 465 1113 496 1083 l 697 1113 q 679 1058 679 1096 q 691 983 679 1028 q 726 869 703 939 l 776 732 l 838 901 q 872 1060 872 1008 q 856 1113 872 1096 l 1003 1113 q 928 1017 969 1081 q 854 869 886 953 l 790 692 l 957 235 q 1001 140 976 188 l 1275 901 q 1310 1060 1310 1008 q 1293 1113 1310 1096 l 1440 1113 q 1365 1017 1407 1081 q 1292 869 1324 953 l 1019 110 q 1101 0 1064 35 l 929 0 l 735 535 l 582 110 q 664 0 626 35 l 492 0 l 172 878 m 724 1157 q 733 1186 733 1171 q 710 1244 733 1207 l 814 1244 l 751 1157 l 724 1157 z "},"ŵ":{"ha":1440,"x_min":28,"x_max":1440,"o":"m 172 878 q 99 1019 140 956 q 28 1113 58 1083 l 260 1113 q 242 1058 242 1096 q 253 983 242 1028 q 289 869 265 939 l 519 235 q 564 140 539 188 l 719 575 l 610 878 q 537 1019 578 956 q 465 1113 496 1083 l 697 1113 q 679 1058 679 1096 q 691 983 679 1028 q 726 869 703 939 l 776 732 l 838 901 q 872 1060 872 1008 q 856 1113 872 1096 l 1003 1113 q 928 1017 969 1081 q 854 869 886 953 l 790 692 l 957 235 q 1001 140 976 188 l 1275 901 q 1310 1060 1310 1008 q 1293 1113 1310 1096 l 1440 1113 q 1365 1017 1407 1081 q 1292 869 1324 953 l 1019 110 q 1101 0 1064 35 l 929 0 l 735 535 l 582 110 q 664 0 626 35 l 492 0 l 172 878 m 746 1244 l 779 1244 l 832 1156 l 800 1156 l 763 1218 l 725 1156 l 693 1156 l 746 1244 z "},"ẅ":{"ha":1440,"x_min":28,"x_max":1440,"o":"m 172 878 q 99 1019 140 956 q 28 1113 58 1083 l 260 1113 q 242 1058 242 1096 q 253 983 242 1028 q 289 869 265 939 l 519 235 q 564 140 539 188 l 719 575 l 610 878 q 537 1019 578 956 q 465 1113 496 1083 l 697 1113 q 679 1058 679 1096 q 691 983 679 1028 q 726 869 703 939 l 776 732 l 838 901 q 872 1060 872 1008 q 856 1113 872 1096 l 1003 1113 q 928 1017 969 1081 q 854 869 886 953 l 790 692 l 957 235 q 1001 140 976 188 l 1275 901 q 1310 1060 1310 1008 q 1293 1113 1310 1096 l 1440 1113 q 1365 1017 1407 1081 q 1292 869 1324 953 l 1019 110 q 1101 0 1064 35 l 929 0 l 735 535 l 582 110 q 664 0 626 35 l 492 0 l 172 878 m 721 1165 q 697 1176 707 1165 q 686 1200 686 1186 q 697 1225 686 1215 q 721 1235 707 1235 q 745 1224 735 1235 q 756 1200 756 1214 q 745 1176 756 1186 q 721 1165 735 1165 m 839 1200 q 849 1225 839 1215 q 874 1235 860 1235 q 898 1224 888 1235 q 908 1200 908 1214 q 898 1176 908 1186 q 874 1165 888 1165 q 849 1176 860 1165 q 839 1200 839 1186 z "},"ẁ":{"ha":1440,"x_min":28,"x_max":1440,"o":"m 172 878 q 99 1019 140 956 q 28 1113 58 1083 l 260 1113 q 242 1058 242 1096 q 253 983 242 1028 q 289 869 265 939 l 519 235 q 564 140 539 188 l 719 575 l 610 878 q 537 1019 578 956 q 465 1113 496 1083 l 697 1113 q 679 1058 679 1096 q 691 983 679 1028 q 726 869 703 939 l 776 732 l 838 901 q 872 1060 872 1008 q 856 1113 872 1096 l 1003 1113 q 928 1017 969 1081 q 854 869 886 953 l 790 692 l 957 235 q 1001 140 976 188 l 1275 901 q 1310 1060 1310 1008 q 1293 1113 1310 1096 l 1440 1113 q 1365 1017 1407 1081 q 1292 869 1324 953 l 1019 110 q 1101 0 1064 35 l 929 0 l 735 535 l 582 110 q 664 0 626 35 l 492 0 l 172 878 m 772 1157 l 710 1244 l 814 1244 q 790 1186 790 1207 q 800 1157 790 1171 l 772 1157 z "},"x":{"ha":922,"x_min":28,"x_max":894,"o":"m 428 506 l 276 242 q 193 26 193 92 q 199 0 193 10 l 49 0 q 130 70 85 15 q 222 204 175 125 l 243 240 l 244 243 l 244 243 l 413 535 l 224 869 q 119 1029 171 964 q 28 1113 68 1094 l 268 1113 q 263 1086 263 1103 q 336 888 263 1025 l 486 619 l 638 879 q 715 1085 715 1024 q 710 1113 715 1103 l 860 1113 q 768 1029 819 1094 q 664 869 717 964 l 503 592 l 699 243 q 803 83 751 149 q 894 0 854 18 l 713 0 l 428 506 z "},"y":{"ha":993,"x_min":21,"x_max":972,"o":"m 393 0 q 435 95 419 25 q 451 253 451 165 l 451 371 l 196 869 q 104 1024 151 957 q 21 1113 57 1090 l 253 1113 q 240 1075 240 1101 q 260 992 240 1043 q 317 869 281 942 l 542 428 l 764 869 q 819 993 800 944 q 838 1074 838 1042 q 824 1113 838 1100 l 972 1113 q 891 1025 939 1089 q 796 872 843 961 l 556 394 l 556 253 q 572 95 556 165 q 614 0 588 25 l 393 0 z "},"ý":{"ha":993,"x_min":21,"x_max":972,"o":"m 393 0 q 435 95 419 25 q 451 253 451 165 l 451 371 l 196 869 q 104 1024 151 957 q 21 1113 57 1090 l 253 1113 q 240 1075 240 1101 q 260 992 240 1043 q 317 869 281 942 l 542 428 l 764 869 q 819 993 800 944 q 838 1074 838 1042 q 824 1113 838 1100 l 972 1113 q 891 1025 939 1089 q 796 872 843 961 l 556 394 l 556 253 q 572 95 556 165 q 614 0 588 25 l 393 0 m 486 1157 q 496 1186 496 1171 q 472 1244 496 1207 l 576 1244 l 514 1157 l 486 1157 z "},"ŷ":{"ha":993,"x_min":21,"x_max":972,"o":"m 393 0 q 435 95 419 25 q 451 253 451 165 l 451 371 l 196 869 q 104 1024 151 957 q 21 1113 57 1090 l 253 1113 q 240 1075 240 1101 q 260 992 240 1043 q 317 869 281 942 l 542 428 l 764 869 q 819 993 800 944 q 838 1074 838 1042 q 824 1113 838 1100 l 972 1113 q 891 1025 939 1089 q 796 872 843 961 l 556 394 l 556 253 q 572 95 556 165 q 614 0 588 25 l 393 0 m 508 1244 l 542 1244 l 594 1156 l 563 1156 l 525 1218 l 488 1156 l 456 1156 l 508 1244 z "},"ÿ":{"ha":993,"x_min":21,"x_max":972,"o":"m 393 0 q 435 95 419 25 q 451 253 451 165 l 451 371 l 196 869 q 104 1024 151 957 q 21 1113 57 1090 l 253 1113 q 240 1075 240 1101 q 260 992 240 1043 q 317 869 281 942 l 542 428 l 764 869 q 819 993 800 944 q 838 1074 838 1042 q 824 1113 838 1100 l 972 1113 q 891 1025 939 1089 q 796 872 843 961 l 556 394 l 556 253 q 572 95 556 165 q 614 0 588 25 l 393 0 m 483 1165 q 459 1176 469 1165 q 449 1200 449 1186 q 459 1225 449 1215 q 483 1235 469 1235 q 508 1224 497 1235 q 518 1200 518 1214 q 508 1176 518 1186 q 483 1165 497 1165 m 601 1200 q 612 1225 601 1215 q 636 1235 622 1235 q 660 1224 650 1235 q 671 1200 671 1214 q 660 1176 671 1186 q 636 1165 650 1165 q 612 1176 622 1165 q 601 1200 601 1186 z "},"ỳ":{"ha":993,"x_min":21,"x_max":972,"o":"m 393 0 q 435 95 419 25 q 451 253 451 165 l 451 371 l 196 869 q 104 1024 151 957 q 21 1113 57 1090 l 253 1113 q 240 1075 240 1101 q 260 992 240 1043 q 317 869 281 942 l 542 428 l 764 869 q 819 993 800 944 q 838 1074 838 1042 q 824 1113 838 1100 l 972 1113 q 891 1025 939 1089 q 796 872 843 961 l 556 394 l 556 253 q 572 95 556 165 q 614 0 588 25 l 393 0 m 535 1157 l 472 1244 l 576 1244 q 553 1186 553 1207 q 563 1157 553 1171 l 535 1157 z "},"ỹ":{"ha":993,"x_min":21,"x_max":972,"o":"m 393 0 q 435 95 419 25 q 451 253 451 165 l 451 371 l 196 869 q 104 1024 151 957 q 21 1113 57 1090 l 253 1113 q 240 1075 240 1101 q 260 992 240 1043 q 317 869 281 942 l 542 428 l 764 869 q 819 993 800 944 q 838 1074 838 1042 q 824 1113 838 1100 l 972 1113 q 891 1025 939 1089 q 796 872 843 961 l 556 394 l 556 253 q 572 95 556 165 q 614 0 588 25 l 393 0 m 603 1142 q 555 1155 572 1142 q 515 1196 538 1168 q 482 1233 497 1221 q 440 1246 467 1246 q 392 1219 403 1246 q 382 1158 382 1193 l 354 1158 q 380 1238 354 1217 q 440 1260 406 1260 q 491 1245 472 1260 q 531 1203 510 1231 q 565 1167 551 1178 q 601 1156 579 1156 q 651 1176 636 1156 q 667 1250 667 1196 l 694 1250 q 669 1167 694 1192 q 603 1142 643 1142 z "},"z":{"ha":876,"x_min":28,"x_max":849,"o":"m 28 0 q 118 91 63 22 q 221 243 174 160 l 707 1083 l 369 1083 q 185 1048 250 1083 q 79 965 121 1013 l 113 1083 l 119 1111 l 847 1111 l 221 28 l 558 28 q 742 63 678 28 q 849 146 807 99 l 815 28 l 807 0 l 28 0 z "},"ź":{"ha":876,"x_min":28,"x_max":849,"o":"m 28 0 q 118 91 63 22 q 221 243 174 160 l 707 1083 l 369 1083 q 185 1048 250 1083 q 79 965 121 1013 l 113 1083 l 119 1111 l 847 1111 l 221 28 l 558 28 q 742 63 678 28 q 849 146 807 99 l 815 28 l 807 0 l 28 0 m 400 1157 q 410 1186 410 1171 q 386 1244 410 1207 l 490 1244 l 428 1157 l 400 1157 z "},"ž":{"ha":876,"x_min":28,"x_max":849,"o":"m 28 0 q 118 91 63 22 q 221 243 174 160 l 707 1083 l 369 1083 q 185 1048 250 1083 q 79 965 121 1013 l 113 1083 l 119 1111 l 847 1111 l 221 28 l 558 28 q 742 63 678 28 q 849 146 807 99 l 815 28 l 807 0 l 28 0 m 369 1244 l 401 1244 l 439 1182 l 476 1244 l 508 1244 l 456 1156 l 422 1156 l 369 1244 z "},"ż":{"ha":876,"x_min":28,"x_max":849,"o":"m 28 0 q 118 91 63 22 q 221 243 174 160 l 707 1083 l 369 1083 q 185 1048 250 1083 q 79 965 121 1013 l 113 1083 l 119 1111 l 847 1111 l 221 28 l 558 28 q 742 63 678 28 q 849 146 807 99 l 815 28 l 807 0 l 28 0 m 439 1167 q 415 1177 425 1167 q 404 1201 404 1188 q 415 1226 404 1217 q 439 1236 425 1236 q 463 1226 453 1236 q 474 1201 474 1215 q 463 1177 474 1188 q 439 1167 453 1167 z "},".":{"ha":204,"x_min":42,"x_max":163,"o":"m 103 0 q 60 18 78 0 q 42 61 42 36 q 60 103 42 86 q 103 121 78 121 q 145 103 128 121 q 163 61 163 86 q 145 18 163 36 q 103 0 128 0 z "},",":{"ha":204,"x_min":42,"x_max":163,"o":"m 103 0 q 60 18 78 0 q 42 61 42 36 q 60 103 42 86 q 103 121 78 121 q 145 103 128 121 q 163 61 163 86 q 148 7 163 35 q 108 -40 133 -21 q 56 -58 83 -58 l 56 -44 q 103 0 90 -44 z "},":":{"ha":204,"x_min":42,"x_max":163,"o":"m 103 185 q 60 203 78 185 q 42 246 42 221 q 60 288 42 271 q 103 306 78 306 q 145 288 128 306 q 163 246 163 271 q 145 203 163 221 q 103 185 128 185 m 42 542 q 60 584 42 567 q 103 601 78 601 q 145 584 128 601 q 163 542 163 567 q 145 499 163 517 q 103 481 128 481 q 60 499 78 481 q 42 542 42 517 z "},";":{"ha":204,"x_min":42,"x_max":163,"o":"m 103 481 q 60 499 78 481 q 42 542 42 517 q 60 584 42 567 q 103 601 78 601 q 145 584 128 601 q 163 542 163 567 q 145 499 163 517 q 103 481 128 481 m 42 246 q 60 288 42 271 q 103 306 78 306 q 145 288 128 306 q 163 246 163 271 q 148 192 163 219 q 108 145 133 164 q 56 126 83 126 l 56 140 q 103 185 90 140 q 60 203 78 185 q 42 246 42 221 z "},"…":{"ha":597,"x_min":42,"x_max":556,"o":"m 294 0 q 251 18 269 0 q 233 61 233 36 q 251 103 233 86 q 294 121 269 121 q 337 103 319 121 q 354 61 354 86 q 337 18 354 36 q 294 0 319 0 m 496 0 q 453 18 471 0 q 435 61 435 36 q 453 103 435 86 q 496 121 471 121 q 538 103 521 121 q 556 61 556 86 q 538 18 556 36 q 496 0 521 0 m 103 0 q 60 18 78 0 q 42 61 42 36 q 60 103 42 86 q 103 121 78 121 q 145 103 128 121 q 163 61 163 86 q 145 18 163 36 q 103 0 128 0 z "},"!":{"ha":304,"x_min":42,"x_max":263,"o":"m 158 0 q 115 18 133 0 q 97 61 97 36 q 115 103 97 86 q 158 121 133 121 q 201 103 183 121 q 218 61 218 86 q 201 18 218 36 q 158 0 183 0 m 263 1113 q 219 1022 238 1089 q 194 876 200 954 l 165 153 l 139 153 l 110 876 q 85 1022 104 954 q 42 1113 67 1089 l 263 1113 z "},"¡":{"ha":304,"x_min":42,"x_max":263,"o":"m 158 992 q 115 1009 133 992 q 97 1051 97 1026 q 115 1094 97 1076 q 158 1113 133 1113 q 201 1094 183 1113 q 218 1051 218 1076 q 201 1009 218 1026 q 158 992 183 992 m 42 0 q 85 91 67 24 q 110 236 104 158 l 139 960 l 165 960 l 194 236 q 219 91 200 158 q 263 0 238 24 l 42 0 z "},"?":{"ha":815,"x_min":42,"x_max":774,"o":"m 274 153 q 265 228 265 189 q 297 395 265 326 q 374 506 329 464 q 492 599 419 549 q 585 671 551 642 q 640 742 618 700 q 663 840 663 783 q 627 980 663 919 q 534 1073 592 1040 q 414 1106 476 1106 q 251 1026 313 1106 q 176 817 189 946 l 42 925 q 165 1079 74 1025 q 394 1133 257 1133 q 585 1096 499 1133 q 722 988 671 1058 q 774 822 774 917 q 738 669 774 731 q 651 570 703 607 q 515 490 600 533 q 397 421 440 451 q 323 343 353 390 q 293 226 293 296 q 301 153 293 181 l 274 153 m 240 61 q 258 103 240 86 q 301 121 276 121 q 344 103 326 121 q 361 61 361 86 q 344 18 361 36 q 301 0 326 0 q 258 18 276 0 q 240 61 240 36 z "},"¿":{"ha":815,"x_min":42,"x_max":774,"o":"m 421 0 q 231 38 317 0 q 93 146 144 75 q 42 311 42 217 q 77 465 42 403 q 164 563 113 526 q 300 643 215 600 q 419 713 375 682 q 492 790 463 743 q 522 907 522 838 q 514 981 522 953 l 542 981 q 550 906 550 946 q 518 738 550 807 q 441 627 486 669 q 324 535 396 585 q 231 463 264 492 q 175 392 197 433 q 153 293 153 350 q 188 153 153 214 q 281 60 224 93 q 401 28 339 28 q 565 108 503 28 q 639 317 626 188 l 774 208 q 650 54 742 108 q 421 0 558 0 m 454 1072 q 472 1115 454 1097 q 514 1133 489 1133 q 557 1115 539 1133 q 575 1072 575 1097 q 557 1030 575 1047 q 514 1013 539 1013 q 472 1030 489 1013 q 454 1072 454 1047 z "},"·":{"ha":204,"x_min":42,"x_max":163,"o":"m 103 342 q 60 360 78 342 q 42 403 42 378 q 60 445 42 428 q 103 463 78 463 q 145 445 128 463 q 163 403 163 428 q 145 360 163 378 q 103 342 128 342 z "},"•":{"ha":313,"x_min":42,"x_max":271,"o":"m 157 288 q 76 322 110 288 q 42 403 42 356 q 76 483 42 450 q 157 517 110 517 q 238 484 206 517 q 271 403 271 451 q 238 322 271 356 q 157 288 204 288 z "},"*":{"ha":497,"x_min":42,"x_max":456,"o":"m 88 604 q 232 756 176 674 q 42 843 139 815 l 101 929 q 235 790 161 844 q 197 979 231 886 l 301 979 q 264 790 271 893 q 396 929 339 847 l 456 843 q 268 757 357 814 q 415 604 329 669 l 328 549 q 251 733 300 650 q 175 549 203 650 l 88 604 z "},"#":{"ha":690,"x_min":42,"x_max":649,"o":"m 153 318 l 42 318 l 42 346 l 160 346 l 229 628 l 99 628 l 99 656 l 236 656 l 314 972 l 343 972 l 265 656 l 493 656 l 571 972 l 600 972 l 522 656 l 649 656 l 649 628 l 515 628 l 446 346 l 592 346 l 592 318 l 439 318 l 361 0 l 332 0 l 410 318 l 182 318 l 104 0 l 75 0 l 153 318 m 417 346 l 486 628 l 258 628 l 189 346 l 417 346 z "},"/":{"ha":581,"x_min":42,"x_max":539,"o":"m 508 1111 l 539 1111 l 72 0 l 42 0 l 508 1111 z "},"\\":{"ha":581,"x_min":42,"x_max":539,"o":"m 42 1111 l 72 1111 l 539 0 l 508 0 l 42 1111 z "},"-":{"ha":524,"x_min":42,"x_max":482,"o":"m 42 463 l 482 463 l 482 435 l 42 435 l 42 463 z "},"–":{"ha":633,"x_min":42,"x_max":592,"o":"m 42 463 l 592 463 l 592 435 l 42 435 l 42 463 z "},"—":{"ha":806,"x_min":42,"x_max":764,"o":"m 42 463 l 764 463 l 764 435 l 42 435 l 42 463 z "},"_":{"ha":564,"x_min":42,"x_max":522,"o":"m 42 28 l 522 28 l 522 0 l 42 0 l 42 28 z "},"(":{"ha":525,"x_min":42,"x_max":483,"o":"m 483 -85 q 245 -1 344 -85 q 94 229 146 83 q 42 557 42 375 q 94 884 42 739 q 245 1113 146 1029 q 483 1196 344 1196 l 483 1168 q 317 1090 388 1168 q 208 872 246 1011 q 169 557 169 733 q 208 240 169 379 q 317 22 246 101 q 483 -57 388 -57 l 483 -85 z "},")":{"ha":525,"x_min":42,"x_max":483,"o":"m 42 -57 q 208 22 138 -57 q 317 240 279 101 q 356 557 356 379 q 317 872 356 733 q 208 1090 279 1011 q 42 1168 138 1168 l 42 1196 q 280 1113 181 1196 q 431 884 379 1029 q 483 557 483 739 q 431 229 483 375 q 280 -1 379 83 q 42 -85 181 -85 l 42 -57 z "},"{":{"ha":525,"x_min":42,"x_max":483,"o":"m 483 -82 q 292 -61 356 -82 q 204 15 229 -40 q 179 178 179 69 q 165 356 179 293 q 131 444 150 419 q 82 489 111 469 q 51 515 61 503 q 42 557 42 528 q 51 599 42 586 q 82 625 61 611 q 131 669 111 644 q 165 758 150 694 q 179 936 179 821 q 204 1099 179 1044 q 292 1175 229 1154 q 483 1196 356 1196 l 483 1168 q 365 1151 403 1168 q 313 1082 328 1133 q 297 919 297 1031 q 272 744 297 806 q 215 658 247 682 q 135 618 182 633 q 84 595 99 606 q 69 557 69 585 q 84 519 69 529 q 135 496 99 508 q 215 456 182 481 q 272 370 247 432 q 297 194 297 308 q 313 32 297 83 q 365 -37 328 -19 q 483 -54 403 -54 l 483 -82 z "},"}":{"ha":525,"x_min":42,"x_max":483,"o":"m 42 -54 q 160 -37 122 -54 q 213 32 197 -19 q 228 194 228 83 q 253 370 228 308 q 310 456 278 432 q 390 496 343 481 q 441 519 426 508 q 456 557 456 529 q 441 595 456 585 q 390 618 426 606 q 310 658 343 633 q 253 744 278 682 q 228 919 228 806 q 213 1082 228 1031 q 160 1151 197 1133 q 42 1168 122 1168 l 42 1196 q 233 1175 169 1196 q 321 1099 296 1154 q 346 936 346 1044 q 360 758 346 821 q 394 669 375 694 q 443 625 414 644 q 474 599 464 611 q 483 557 483 586 q 474 515 483 528 q 443 489 464 503 q 394 444 414 469 q 360 356 375 419 q 346 178 346 293 q 321 15 346 69 q 233 -61 296 -40 q 42 -82 169 -82 l 42 -54 z "},"[":{"ha":322,"x_min":28,"x_max":281,"o":"m 28 1172 l 281 1172 l 281 1146 l 135 1146 l 135 -33 l 281 -33 l 281 -60 l 28 -60 l 28 1172 z "},"]":{"ha":390,"x_min":28,"x_max":281,"o":"m 28 -33 l 174 -33 l 174 1146 l 28 1146 l 28 1172 l 281 1172 l 281 -60 l 28 -60 l 28 -33 z "},"‚":{"ha":204,"x_min":42,"x_max":163,"o":"m 103 0 q 60 18 78 0 q 42 61 42 36 q 60 103 42 86 q 103 121 78 121 q 145 103 128 121 q 163 61 163 86 q 148 7 163 35 q 108 -40 133 -21 q 56 -58 83 -58 l 56 -44 q 103 0 90 -44 z "},"„":{"ha":204,"x_min":42,"x_max":163,"o":"m 103 0 q 60 18 78 0 q 42 61 42 36 q 60 103 42 86 q 103 121 78 121 q 145 103 128 121 q 163 61 163 86 q 148 7 163 35 q 108 -40 133 -21 q 56 -58 83 -58 l 56 -44 q 103 0 90 -44 z "},"“":{"ha":315,"x_min":42,"x_max":274,"o":"m 207 1133 l 236 1133 q 274 915 236 1024 l 169 915 l 207 1133 m 79 1133 l 108 1133 q 146 915 108 1024 l 42 915 l 79 1133 z "},"”":{"ha":315,"x_min":42,"x_max":274,"o":"m 79 915 q 42 1133 79 1025 l 146 1133 l 108 915 l 79 915 m 274 1133 l 236 915 l 207 915 q 169 1133 207 1025 l 274 1133 z "},"‘":{"ha":188,"x_min":42,"x_max":146,"o":"m 79 1133 l 108 1133 q 146 915 108 1024 l 42 915 l 79 1133 z "},"’":{"ha":188,"x_min":42,"x_max":146,"o":"m 79 915 q 42 1133 79 1025 l 146 1133 l 108 915 l 79 915 z "},"«":{"ha":474,"x_min":42,"x_max":432,"o":"m 206 442 q 328 660 286 551 l 432 660 q 332 565 376 617 q 235 442 288 514 q 332 318 288 369 q 432 224 376 267 l 328 224 q 206 442 286 332 m 42 442 q 164 660 122 551 l 268 660 q 168 565 213 617 q 71 442 124 514 q 168 318 124 369 q 268 224 213 267 l 164 224 q 42 442 122 332 z "},"»":{"ha":474,"x_min":42,"x_max":432,"o":"m 239 442 q 142 565 186 514 q 42 660 97 617 l 146 660 q 268 442 188 551 q 146 224 188 332 l 42 224 q 142 318 97 267 q 239 442 186 369 m 206 224 q 306 318 261 267 q 403 442 350 369 q 306 565 350 514 q 206 660 261 617 l 310 660 q 432 442 351 551 q 310 224 351 332 l 206 224 z "},"‹":{"ha":310,"x_min":42,"x_max":268,"o":"m 42 442 q 164 660 122 551 l 268 660 q 168 565 213 617 q 71 442 124 514 q 168 318 124 369 q 268 224 213 267 l 164 224 q 42 442 122 332 z "},"›":{"ha":310,"x_min":42,"x_max":268,"o":"m 239 442 q 142 565 186 514 q 42 660 97 617 l 146 660 q 268 442 188 551 q 146 224 188 332 l 42 224 q 142 318 97 267 q 239 442 186 369 z "},"\"":{"ha":314,"x_min":42,"x_max":272,"o":"m 79 915 q 42 1133 79 1025 l 146 1133 q 108 915 108 1025 l 79 915 m 272 1133 q 235 915 235 1025 l 206 915 q 168 1133 206 1025 l 272 1133 z "},"'":{"ha":188,"x_min":42,"x_max":146,"o":"m 79 915 q 42 1133 79 1025 l 146 1133 q 108 915 108 1025 l 79 915 z "},"@":{"ha":1250,"x_min":28,"x_max":1222,"o":"m 625 -46 q 326 35 464 -46 q 108 253 189 115 q 28 551 28 390 q 108 850 28 713 q 326 1068 189 988 q 625 1149 464 1149 q 924 1068 786 1149 q 1142 850 1061 988 q 1222 551 1222 713 q 1199 351 1222 456 q 1130 175 1175 246 q 1024 104 1085 104 q 910 153 960 104 q 827 269 860 203 q 757 428 794 335 l 656 707 l 769 707 l 872 425 q 945 272 906 332 q 1044 213 985 213 q 1121 266 1086 213 q 1175 399 1156 319 q 1194 551 1194 479 q 1117 834 1194 703 q 909 1043 1040 965 q 625 1121 778 1121 q 342 1043 474 1121 q 133 834 211 965 q 56 551 56 703 q 133 267 56 399 q 342 59 211 136 q 625 -18 474 -18 q 813 14 724 -18 l 838 -7 q 625 -46 736 -46 m 233 321 q 273 450 233 388 q 392 604 313 513 q 506 753 468 693 q 544 876 544 814 q 532 942 544 908 l 639 942 q 656 871 656 904 q 628 776 656 822 q 562 690 601 731 q 456 590 522 650 q 309 446 358 506 q 260 321 260 386 q 298 215 260 253 q 400 176 336 176 q 544 258 494 176 q 593 493 593 340 l 688 493 q 610 238 681 328 q 400 149 539 149 q 278 195 324 149 q 233 321 233 242 z "},"&":{"ha":976,"x_min":42,"x_max":935,"o":"m 750 0 q 740 111 750 64 q 411 0 606 0 q 138 73 235 0 q 42 289 42 146 q 101 495 42 414 q 263 638 160 576 q 177 746 207 689 q 147 878 147 803 q 189 1013 147 956 q 301 1102 231 1071 q 453 1133 371 1133 q 655 1075 579 1133 q 731 906 731 1017 q 697 792 731 842 q 611 704 663 742 q 476 621 560 667 l 501 604 q 671 480 606 535 q 788 347 736 425 q 822 565 822 461 l 935 422 q 846 229 903 317 q 882 0 882 125 l 750 0 m 153 271 q 188 137 153 192 q 283 55 224 82 q 411 28 342 28 q 589 74 513 28 q 717 199 665 119 q 642 333 689 274 q 542 433 594 392 q 408 529 489 475 l 365 558 q 209 432 265 499 q 153 271 153 365 m 254 919 q 285 799 254 851 q 372 699 315 746 q 509 774 461 744 q 590 847 557 804 q 624 947 624 889 q 576 1065 624 1025 q 453 1106 529 1106 q 357 1083 403 1106 q 283 1017 311 1060 q 254 919 254 974 z "},"§":{"ha":493,"x_min":18,"x_max":475,"o":"m 88 206 q 107 102 88 149 q 159 30 126 56 q 229 4 192 4 q 300 24 265 4 q 356 83 335 44 q 378 169 378 121 q 358 246 378 214 q 308 298 338 278 q 226 344 278 318 q 135 399 169 375 q 76 463 100 422 q 53 561 53 503 q 103 665 53 625 q 229 710 154 706 q 136 764 171 740 q 77 828 101 788 q 53 928 53 868 q 109 1035 53 994 q 244 1076 165 1076 q 310 1068 283 1076 q 371 1043 336 1060 q 411 1026 396 1032 q 444 1021 426 1021 l 383 944 q 345 1027 376 996 q 265 1058 314 1058 q 185 1029 222 1058 q 147 954 147 1000 q 167 874 147 906 q 217 822 188 842 q 297 778 247 803 q 391 724 356 749 q 451 656 426 700 q 475 547 475 613 q 444 445 475 489 q 360 378 413 401 q 444 300 414 344 q 475 181 475 256 q 406 40 475 93 q 239 -14 338 -14 q 94 20 151 -14 q 18 117 38 54 l 88 206 m 147 588 q 170 503 147 536 q 223 451 193 469 q 315 401 253 433 q 360 458 343 424 q 378 536 378 493 q 348 626 378 592 q 263 692 318 661 q 184 661 221 690 q 147 588 147 632 z "},"©":{"ha":944,"x_min":26,"x_max":918,"o":"m 478 176 q 330 219 397 176 q 222 347 263 261 q 182 557 182 433 q 222 765 182 679 q 330 892 263 850 q 478 935 397 935 q 651 874 575 935 l 581 785 q 526 877 565 844 q 446 910 488 910 q 372 883 408 910 q 311 793 336 856 q 286 628 286 731 q 289 557 286 607 q 336 353 299 429 q 419 249 374 278 q 510 219 465 219 q 609 240 564 219 q 697 318 654 261 l 713 308 q 610 210 672 243 q 478 176 549 176 m 26 551 q 87 774 26 672 q 249 937 147 876 q 472 997 351 997 q 695 937 593 997 q 858 774 797 876 q 918 551 918 672 q 858 328 918 431 q 695 166 797 226 q 472 106 593 106 q 249 166 351 106 q 87 328 147 226 q 26 551 26 431 m 58 551 q 115 343 58 439 q 266 190 171 247 q 472 133 361 133 q 681 190 585 133 q 834 342 778 246 q 890 551 890 439 q 833 759 890 663 q 681 913 776 856 q 472 969 585 969 q 266 913 361 969 q 115 759 171 856 q 58 551 58 663 z "},"®":{"ha":778,"x_min":42,"x_max":736,"o":"m 389 435 q 216 482 296 435 q 89 609 136 529 q 42 782 42 689 q 89 955 42 875 q 216 1082 136 1035 q 389 1129 296 1129 q 562 1082 482 1129 q 689 955 642 1035 q 736 782 736 875 q 689 609 736 689 q 562 482 642 529 q 389 435 482 435 m 69 782 q 113 622 69 696 q 231 506 157 549 q 389 463 304 463 q 549 506 475 463 q 665 622 622 549 q 708 782 708 696 q 665 940 708 867 q 549 1058 622 1014 q 389 1101 475 1101 q 231 1058 304 1101 q 113 940 157 1014 q 69 782 69 867 m 219 539 q 239 582 232 550 q 246 653 246 614 l 246 925 q 239 996 246 964 q 219 1039 232 1028 l 288 1039 q 308 1041 299 1039 q 324 1043 318 1043 q 364 1049 346 1049 q 491 1006 439 1049 q 543 894 543 963 q 513 802 543 839 q 432 753 482 765 q 497 719 472 743 q 533 653 521 694 l 547 604 q 571 539 558 551 l 474 539 q 489 567 483 547 q 494 611 494 586 q 490 653 494 632 q 453 722 479 697 q 382 747 428 746 q 326 758 350 747 q 293 789 301 769 l 293 653 q 300 582 293 614 q 319 539 307 550 l 219 539 m 293 867 q 320 784 293 808 q 382 760 347 760 q 459 791 431 760 q 488 878 488 822 q 447 997 488 958 q 357 1036 406 1036 q 305 1006 317 1036 q 293 926 293 976 l 293 867 z "},"°":{"ha":469,"x_min":28,"x_max":442,"o":"m 235 719 q 131 747 179 719 q 56 823 83 775 q 28 926 28 871 q 56 1030 28 982 q 131 1106 83 1078 q 235 1133 179 1133 q 338 1106 290 1133 q 414 1030 386 1078 q 442 926 442 982 q 414 823 442 871 q 338 747 386 775 q 235 719 290 719 m 57 926 q 81 837 57 878 q 147 772 106 796 q 235 747 188 747 q 324 772 283 747 q 390 837 365 796 q 414 926 414 878 q 390 1015 414 974 q 324 1081 365 1057 q 235 1106 283 1106 q 147 1081 188 1106 q 81 1015 106 1057 q 57 926 57 974 z "},"|":{"ha":111,"x_min":42,"x_max":69,"o":"m 42 1144 l 69 1144 l 69 -87 l 42 -87 l 42 1144 z "},"†":{"ha":633,"x_min":167,"x_max":467,"o":"m 167 974 l 303 974 l 303 1110 l 331 1110 l 331 974 l 467 974 l 467 946 l 331 946 l 331 435 l 303 435 l 303 946 l 167 946 l 167 974 z "},"¢":{"ha":586,"x_min":28,"x_max":558,"o":"m 301 178 l 301 69 l 274 69 l 274 181 q 97 297 167 200 q 28 557 28 393 q 97 815 28 719 q 274 931 167 911 l 274 1015 l 301 1015 l 301 933 q 324 935 308 935 q 497 874 421 935 l 426 785 q 377 873 413 840 q 301 910 342 906 l 301 229 q 356 219 329 219 q 455 240 410 219 q 543 318 500 261 l 558 308 q 456 210 518 243 q 324 176 394 176 l 301 178 m 135 557 q 183 351 146 426 q 274 243 221 275 l 274 908 q 174 832 217 899 q 132 629 132 765 q 135 557 132 582 z "},"¤":{"ha":601,"x_min":28,"x_max":574,"o":"m 301 379 q 190 413 242 379 q 101 275 140 353 l 28 349 q 163 433 103 385 q 113 502 131 463 q 94 586 94 542 q 113 670 94 631 q 163 739 131 710 q 28 825 99 792 l 101 899 q 190 761 140 822 q 301 793 243 793 q 411 761 363 793 q 500 899 461 822 l 574 825 q 439 740 499 789 q 490 671 472 711 q 508 586 508 631 q 490 502 508 542 q 440 433 472 463 q 574 349 499 385 l 500 275 q 413 411 464 346 q 301 379 360 379 m 203 586 q 232 517 203 546 q 301 488 261 488 q 372 517 342 488 q 401 586 401 546 q 372 656 401 626 q 301 686 342 686 q 232 656 261 686 q 203 586 203 626 z "},"$":{"ha":788,"x_min":28,"x_max":760,"o":"m 368 -22 q 147 35 235 -19 q 28 186 58 89 l 140 329 q 203 109 140 197 q 368 7 265 21 l 368 558 q 220 641 278 601 q 124 744 163 681 q 85 897 85 807 q 123 1017 85 965 q 226 1099 161 1069 q 368 1133 290 1129 l 368 1200 l 396 1200 l 396 1133 q 498 1119 456 1132 q 593 1081 540 1106 q 655 1053 629 1063 q 710 1044 681 1044 l 613 922 q 547 1056 601 1007 q 397 1106 492 1106 l 396 1106 l 396 683 q 453 657 414 674 q 615 571 554 610 q 717 463 675 532 q 760 289 760 394 q 711 127 760 197 q 579 19 663 57 q 396 -22 496 -19 l 396 -89 l 368 -89 l 368 -22 m 192 939 q 238 795 192 850 q 368 696 283 740 l 368 1104 q 244 1051 296 1096 q 192 939 192 1006 m 400 6 q 520 38 463 6 q 613 131 578 71 q 649 271 649 192 q 615 391 649 342 q 531 473 582 440 q 396 546 479 506 l 396 6 l 400 6 z "},"€":{"ha":932,"x_min":28,"x_max":904,"o":"m 546 -22 q 344 29 438 -22 q 186 183 250 81 q 103 436 122 286 l 28 436 l 28 464 l 100 464 q 96 557 96 508 q 99 622 96 581 l 28 622 l 28 650 l 100 650 q 179 916 115 807 q 338 1079 243 1025 q 546 1133 433 1133 q 687 1110 619 1133 q 811 1040 754 1086 l 704 904 q 621 1046 681 996 q 497 1096 561 1096 q 291 992 374 1096 q 213 650 208 889 l 578 650 l 578 622 l 213 622 l 217 557 q 228 464 219 521 l 578 464 l 578 436 l 232 436 q 372 131 272 218 q 594 43 471 43 q 747 76 678 43 q 882 194 817 108 l 904 178 q 748 28 842 79 q 546 -22 654 -22 z "},"£":{"ha":757,"x_min":28,"x_max":729,"o":"m 28 697 l 197 697 l 197 826 l 197 828 q 274 984 199 933 q 461 1038 350 1035 l 476 1038 q 630 1060 558 1038 q 729 1111 701 1082 l 729 936 q 630 988 701 965 q 476 1010 558 1010 l 471 1010 q 342 969 382 1010 q 301 826 301 928 l 301 697 l 626 697 l 626 669 l 301 669 l 301 369 l 301 365 q 161 28 300 99 l 476 28 q 630 50 558 28 q 729 101 701 72 l 729 0 l 28 0 l 28 28 q 126 52 90 28 q 179 150 161 76 q 197 369 197 224 l 197 669 l 28 669 l 28 697 z "},"¥":{"ha":993,"x_min":21,"x_max":972,"o":"m 393 0 q 428 71 414 21 q 449 188 443 121 l 232 188 l 232 215 l 450 215 q 451 253 451 228 l 451 371 l 450 374 l 232 374 l 232 401 l 436 401 l 196 869 q 104 1024 151 957 q 21 1113 57 1090 l 253 1113 q 240 1075 240 1101 q 260 992 240 1043 q 317 869 281 942 l 542 428 l 764 869 q 819 993 800 944 q 838 1074 838 1042 q 824 1113 838 1100 l 972 1113 q 891 1025 939 1089 q 796 872 843 961 l 560 401 l 782 401 l 782 374 l 556 374 l 556 253 l 557 215 l 782 215 l 782 188 l 558 188 q 578 71 564 121 q 614 0 593 21 l 393 0 z "},"+":{"ha":633,"x_min":42,"x_max":592,"o":"m 42 558 l 303 558 l 303 819 l 331 819 l 331 558 l 592 558 l 592 531 l 331 531 l 331 269 l 303 269 l 303 531 l 42 531 l 42 558 z "},"−":{"ha":633,"x_min":42,"x_max":592,"o":"m 42 558 l 592 558 l 592 531 l 42 531 l 42 558 z "},"×":{"ha":492,"x_min":42,"x_max":450,"o":"m 42 360 l 226 544 l 42 729 l 61 749 l 246 564 l 431 749 l 450 729 l 265 544 l 450 360 l 431 340 l 246 525 l 61 340 l 42 360 z "},"÷":{"ha":633,"x_min":42,"x_max":592,"o":"m 42 558 l 592 558 l 592 531 l 42 531 l 42 558 m 254 397 q 272 440 254 422 q 315 457 290 457 q 358 440 340 457 q 375 397 375 422 q 358 354 375 372 q 315 336 340 336 q 272 354 290 336 q 254 397 254 372 m 254 693 q 272 735 254 718 q 315 753 290 753 q 358 735 340 753 q 375 693 375 718 q 358 650 375 668 q 315 632 340 632 q 272 650 290 632 q 254 693 254 668 z "},"=":{"ha":633,"x_min":42,"x_max":592,"o":"m 42 650 l 592 650 l 592 622 l 42 622 l 42 650 m 42 464 l 592 464 l 592 436 l 42 436 l 42 464 z "},"±":{"ha":633,"x_min":42,"x_max":592,"o":"m 42 599 l 303 599 l 303 715 l 331 715 l 331 599 l 592 599 l 592 571 l 331 571 l 331 454 l 303 454 l 303 571 l 42 571 l 42 599 m 42 414 l 592 414 l 592 386 l 42 386 l 42 414 z "},"≈":{"ha":728,"x_min":42,"x_max":686,"o":"m 529 190 q 445 207 478 190 q 375 257 413 224 q 310 303 340 288 q 233 319 279 319 q 183 296 201 319 q 165 232 165 272 l 56 232 q 98 368 56 318 q 213 418 140 418 q 301 390 265 418 q 381 306 338 361 q 453 229 422 254 q 528 204 485 204 q 592 220 571 204 q 614 267 614 236 q 576 367 614 307 l 686 367 q 644 238 686 285 q 529 190 603 190 m 42 474 q 84 610 42 560 q 199 660 126 660 q 288 631 251 660 q 367 547 324 603 q 440 471 408 496 q 514 446 471 446 q 578 462 557 446 q 600 508 600 478 q 563 608 600 549 l 672 608 q 631 479 672 526 q 515 432 589 432 q 431 449 464 432 q 361 499 399 465 q 296 545 326 529 q 219 561 265 561 q 169 538 188 561 q 151 474 151 514 l 42 474 z "},"~":{"ha":714,"x_min":42,"x_max":672,"o":"m 515 329 q 431 346 464 329 q 361 396 399 363 q 296 442 326 426 q 219 458 265 458 q 169 435 188 458 q 151 371 151 411 l 42 371 q 84 507 42 457 q 199 557 126 557 q 288 528 251 557 q 367 444 324 500 q 440 368 408 393 q 514 343 471 343 q 578 359 557 343 q 600 406 600 375 q 563 506 600 446 l 672 506 q 631 376 672 424 q 515 329 589 329 z "},"^":{"ha":415,"x_min":42,"x_max":374,"o":"m 42 915 q 193 1133 135 1022 l 222 1133 q 374 915 281 1022 l 269 915 q 208 1104 253 1013 q 146 915 164 1014 l 42 915 z "},"%":{"ha":774,"x_min":42,"x_max":732,"o":"m 607 1111 l 638 1111 l 171 0 l 140 0 l 607 1111 m 42 844 q 83 1028 42 965 q 194 1092 125 1092 q 307 1028 265 1092 q 349 844 349 965 q 307 659 349 722 q 194 596 265 596 q 83 659 124 596 q 42 844 42 722 m 97 844 q 138 672 107 724 q 210 621 168 621 q 294 792 294 621 q 293 844 294 825 q 253 1015 285 964 q 179 1067 222 1067 q 118 1029 142 1067 q 94 904 94 992 q 97 844 94 889 m 425 244 q 467 428 425 365 q 578 492 508 492 q 690 428 649 492 q 732 244 732 365 q 690 59 732 122 q 578 -4 649 -4 q 466 59 507 -4 q 425 244 425 122 m 481 244 q 521 72 490 124 q 593 21 551 21 q 678 192 678 21 q 676 244 678 225 q 637 415 668 364 q 563 467 606 467 q 501 429 525 467 q 478 304 478 392 q 481 244 478 289 z "},"‰":{"ha":1124,"x_min":42,"x_max":1082,"o":"m 703 1111 l 736 1111 l 75 0 l 44 0 l 703 1111 m 42 844 q 83 1028 42 965 q 194 1092 125 1092 q 307 1028 265 1092 q 349 844 349 965 q 307 659 349 722 q 194 596 265 596 q 83 659 124 596 q 42 844 42 722 m 97 844 q 138 672 107 724 q 210 621 168 621 q 294 792 294 621 q 293 844 294 825 q 253 1015 285 964 q 179 1067 222 1067 q 118 1029 142 1067 q 94 904 94 992 q 97 844 94 889 m 425 244 q 467 428 425 365 q 578 492 508 492 q 690 428 649 492 q 732 244 732 365 q 690 59 732 122 q 578 -4 649 -4 q 466 59 507 -4 q 425 244 425 122 m 481 244 q 521 72 490 124 q 593 21 551 21 q 678 192 678 21 q 676 244 678 225 q 637 415 668 364 q 563 467 606 467 q 501 429 525 467 q 478 304 478 392 q 481 244 478 289 m 775 244 q 817 428 775 365 q 928 492 858 492 q 1040 428 999 492 q 1082 244 1082 365 q 1040 59 1082 122 q 928 -4 999 -4 q 816 59 857 -4 q 775 244 775 122 m 831 244 q 871 72 840 124 q 943 21 901 21 q 1028 192 1028 21 q 1026 244 1028 225 q 987 415 1018 364 q 913 467 956 467 q 851 429 875 467 q 828 304 828 392 q 831 244 828 289 z "},"̈":{"ha":0,"x_min":28,"x_max":250,"o":"m 63 882 q 38 892 49 882 q 28 917 28 903 q 38 942 28 932 q 63 951 49 951 q 87 941 76 951 q 97 917 97 931 q 87 892 97 903 q 63 882 76 882 m 181 917 q 191 942 181 932 q 215 951 201 951 q 240 941 229 951 q 250 917 250 931 q 240 892 250 903 q 215 882 229 882 q 191 892 201 882 q 181 917 181 903 z "},"̇":{"ha":0,"x_min":28,"x_max":97,"o":"m 63 883 q 38 894 49 883 q 28 918 28 904 q 38 943 28 933 q 63 953 49 953 q 87 942 76 953 q 97 918 97 932 q 87 894 97 904 q 63 883 76 883 z "},"̀":{"ha":0,"x_min":28,"x_max":132,"o":"m 90 874 l 28 961 l 132 961 q 108 903 108 924 q 118 874 108 888 l 90 874 z "},"́":{"ha":0,"x_min":28,"x_max":132,"o":"m 42 874 q 51 903 51 888 q 28 961 51 924 l 132 961 l 69 874 l 42 874 z "},"̋":{"ha":0,"x_min":28,"x_max":256,"o":"m 42 874 q 51 903 51 888 q 28 961 51 924 l 132 961 l 69 874 l 42 874 m 256 961 l 193 874 l 165 874 q 175 903 175 888 q 151 961 175 924 l 256 961 z "},"̂":{"ha":0,"x_min":28,"x_max":167,"o":"m 81 961 l 114 961 l 167 872 l 135 872 l 97 935 l 60 872 l 28 872 l 81 961 z "},"̌":{"ha":0,"x_min":28,"x_max":167,"o":"m 28 961 l 60 961 l 97 899 l 135 961 l 167 961 l 114 872 l 81 872 l 28 961 z "},"̆":{"ha":0,"x_min":28,"x_max":165,"o":"m 96 892 q 48 910 68 892 q 28 961 28 929 l 56 961 q 66 920 56 935 q 96 906 76 906 q 127 920 117 906 q 138 961 138 935 l 165 961 q 145 910 165 929 q 96 892 125 892 z "},"̊":{"ha":0,"x_min":28,"x_max":143,"o":"m 85 863 q 44 879 61 863 q 28 921 28 896 q 44 962 28 946 q 85 978 61 978 q 126 962 110 978 q 143 921 143 946 q 126 879 143 896 q 85 863 110 863 m 51 921 q 61 896 51 906 q 85 886 71 886 q 110 896 100 886 q 119 921 119 906 q 110 944 119 935 q 85 954 100 954 q 61 944 71 954 q 51 921 51 935 z "},"̃":{"ha":0,"x_min":28,"x_max":368,"o":"m 276 858 q 228 872 246 858 q 189 913 211 885 q 156 950 171 938 q 114 963 140 963 q 66 936 76 963 q 56 875 56 910 l 28 875 q 53 955 28 933 q 114 976 79 976 q 165 962 146 976 q 204 919 183 947 q 239 883 225 894 q 275 872 253 872 q 325 892 310 872 q 340 967 340 913 l 368 967 q 342 883 368 908 q 276 858 317 858 z "},"̄":{"ha":0,"x_min":28,"x_max":301,"o":"m 28 933 l 301 933 l 301 906 l 28 906 l 28 933 z "},"̒":{"ha":0,"x_min":28,"x_max":97,"o":"m 63 892 q 38 902 49 892 q 28 926 28 913 q 47 972 28 950 q 89 994 65 994 l 89 986 q 61 961 68 986 l 63 961 q 87 951 76 961 q 97 926 97 940 q 87 902 97 913 q 63 892 76 892 z "},"̦":{"ha":0,"x_min":28,"x_max":165,"o":"m 28 -154 q 56 -83 50 -111 q 61 -3 61 -56 l 165 -3 l 56 -154 l 28 -154 z "},"̧":{"ha":0,"x_min":28,"x_max":156,"o":"m 64 -22 l 78 -22 l 56 -89 q 97 -82 76 -82 q 139 -92 122 -82 q 156 -121 156 -101 q 115 -167 156 -153 q 28 -182 74 -182 l 28 -168 q 83 -161 58 -168 q 108 -135 108 -154 q 97 -114 108 -122 q 69 -106 85 -106 q 49 -110 60 -106 l 35 -110 l 64 -22 z "},"̨":{"ha":0,"x_min":28,"x_max":156,"o":"m 156 -154 q 68 -137 108 -154 q 28 -75 28 -119 q 56 -21 28 -39 q 122 -3 85 -3 l 122 -24 q 75 -79 75 -24 q 156 -140 75 -140 l 156 -154 z "}}}
